G04 #@! TF.GenerationSoftware,KiCad,Pcbnew,(6.0.7)*
G04 #@! TF.CreationDate,2022-11-19T14:13:10-06:00*
G04 #@! TF.ProjectId,BPS-Amperes,4250532d-416d-4706-9572-65732e6b6963,rev?*
G04 #@! TF.SameCoordinates,Original*
G04 #@! TF.FileFunction,Copper,L2,Bot*
G04 #@! TF.FilePolarity,Positive*
%FSLAX46Y46*%
G04 Gerber Fmt 4.6, Leading zero omitted, Abs format (unit mm)*
G04 Created by KiCad (PCBNEW (6.0.7)) date 2022-11-19 14:13:10*
%MOMM*%
%LPD*%
G01*
G04 APERTURE LIST*
G04 Aperture macros list*
%AMRoundRect*
0 Rectangle with rounded corners*
0 $1 Rounding radius*
0 $2 $3 $4 $5 $6 $7 $8 $9 X,Y pos of 4 corners*
0 Add a 4 corners polygon primitive as box body*
4,1,4,$2,$3,$4,$5,$6,$7,$8,$9,$2,$3,0*
0 Add four circle primitives for the rounded corners*
1,1,$1+$1,$2,$3*
1,1,$1+$1,$4,$5*
1,1,$1+$1,$6,$7*
1,1,$1+$1,$8,$9*
0 Add four rect primitives between the rounded corners*
20,1,$1+$1,$2,$3,$4,$5,0*
20,1,$1+$1,$4,$5,$6,$7,0*
20,1,$1+$1,$6,$7,$8,$9,0*
20,1,$1+$1,$8,$9,$2,$3,0*%
G04 Aperture macros list end*
G04 #@! TA.AperFunction,ComponentPad*
%ADD10RoundRect,0.250001X0.499999X0.759999X-0.499999X0.759999X-0.499999X-0.759999X0.499999X-0.759999X0*%
G04 #@! TD*
G04 #@! TA.AperFunction,ComponentPad*
%ADD11O,1.500000X2.020000*%
G04 #@! TD*
G04 #@! TA.AperFunction,ComponentPad*
%ADD12O,1.000000X1.800000*%
G04 #@! TD*
G04 #@! TA.AperFunction,ComponentPad*
%ADD13R,1.700000X1.700000*%
G04 #@! TD*
G04 #@! TA.AperFunction,ComponentPad*
%ADD14O,1.700000X1.700000*%
G04 #@! TD*
G04 #@! TA.AperFunction,SMDPad,CuDef*
%ADD15RoundRect,0.250000X0.250000X0.475000X-0.250000X0.475000X-0.250000X-0.475000X0.250000X-0.475000X0*%
G04 #@! TD*
G04 #@! TA.AperFunction,SMDPad,CuDef*
%ADD16R,1.016000X5.410200*%
G04 #@! TD*
G04 #@! TA.AperFunction,SMDPad,CuDef*
%ADD17RoundRect,0.250000X-0.262500X-0.450000X0.262500X-0.450000X0.262500X0.450000X-0.262500X0.450000X0*%
G04 #@! TD*
G04 #@! TA.AperFunction,SMDPad,CuDef*
%ADD18RoundRect,0.250000X0.475000X-0.250000X0.475000X0.250000X-0.475000X0.250000X-0.475000X-0.250000X0*%
G04 #@! TD*
G04 #@! TA.AperFunction,SMDPad,CuDef*
%ADD19RoundRect,0.243750X0.243750X0.456250X-0.243750X0.456250X-0.243750X-0.456250X0.243750X-0.456250X0*%
G04 #@! TD*
G04 #@! TA.AperFunction,SMDPad,CuDef*
%ADD20RoundRect,0.250000X-0.250000X-0.475000X0.250000X-0.475000X0.250000X0.475000X-0.250000X0.475000X0*%
G04 #@! TD*
G04 #@! TA.AperFunction,SMDPad,CuDef*
%ADD21RoundRect,0.250000X-0.475000X0.250000X-0.475000X-0.250000X0.475000X-0.250000X0.475000X0.250000X0*%
G04 #@! TD*
G04 #@! TA.AperFunction,ViaPad*
%ADD22C,0.800000*%
G04 #@! TD*
G04 #@! TA.AperFunction,Conductor*
%ADD23C,1.000000*%
G04 #@! TD*
G04 #@! TA.AperFunction,Conductor*
%ADD24C,0.400000*%
G04 #@! TD*
G04 #@! TA.AperFunction,Conductor*
%ADD25C,0.200000*%
G04 #@! TD*
G04 APERTURE END LIST*
D10*
X139500000Y-125915000D03*
D11*
X136500000Y-125915000D03*
X133500000Y-125915000D03*
X130500000Y-125915000D03*
D12*
X143690000Y-103500000D03*
X146230000Y-103500000D03*
X148770000Y-103500000D03*
X151310000Y-103500000D03*
D13*
X131200000Y-97500000D03*
D14*
X133740000Y-97500000D03*
X136280000Y-97500000D03*
X138820000Y-97500000D03*
D13*
X129250000Y-112500000D03*
D15*
X133975000Y-105000000D03*
X132075000Y-105000000D03*
X139450000Y-107500000D03*
X137550000Y-107500000D03*
D16*
X147921000Y-99000000D03*
X142079000Y-99000000D03*
D17*
X137675000Y-105000000D03*
X139500000Y-105000000D03*
D18*
X126000000Y-103450000D03*
X126000000Y-101550000D03*
D15*
X139450000Y-110500000D03*
X137550000Y-110500000D03*
D19*
X146437500Y-126000000D03*
X144562500Y-126000000D03*
D20*
X123482500Y-123000000D03*
X125382500Y-123000000D03*
D15*
X134025000Y-107500000D03*
X132125000Y-107500000D03*
X133975000Y-103000000D03*
X132075000Y-103000000D03*
D13*
X117525000Y-107420000D03*
D14*
X117525000Y-109960000D03*
X117525000Y-112500000D03*
X117525000Y-115040000D03*
X117525000Y-117580000D03*
D18*
X128000000Y-103450000D03*
X128000000Y-101550000D03*
X120000000Y-103450000D03*
X120000000Y-101550000D03*
D21*
X126000000Y-98050000D03*
X126000000Y-99950000D03*
D13*
X152500000Y-107425000D03*
D14*
X152500000Y-109965000D03*
X152500000Y-112505000D03*
X152500000Y-115045000D03*
X152500000Y-117585000D03*
D18*
X122000000Y-103450000D03*
X122000000Y-101550000D03*
D22*
X149000000Y-120750000D03*
X150250000Y-120750000D03*
X121000000Y-129000000D03*
X121000000Y-96000000D03*
X133500000Y-116500000D03*
X119500000Y-96000000D03*
X125500000Y-129000000D03*
X133500000Y-122500000D03*
X134500000Y-101000000D03*
X133500000Y-119500000D03*
X133500000Y-118000000D03*
X119500000Y-124000000D03*
X116000000Y-126000000D03*
X116000000Y-124500000D03*
X116500000Y-97500000D03*
X133000000Y-111000000D03*
X119500000Y-129000000D03*
X124000000Y-129000000D03*
X116000000Y-123000000D03*
X127500000Y-99750000D03*
X118000000Y-96500000D03*
X138000000Y-101000000D03*
X133500000Y-113500000D03*
X122500000Y-129000000D03*
X131000000Y-103500000D03*
X118000000Y-128500000D03*
X122500000Y-96000000D03*
X138250000Y-109000000D03*
X118500000Y-102500000D03*
X116000000Y-120000000D03*
X124000000Y-96000000D03*
X128650000Y-119000000D03*
X126500000Y-111500000D03*
X133500000Y-121000000D03*
X133500000Y-115000000D03*
X116500000Y-127500000D03*
X121000000Y-111500000D03*
X116000000Y-100500000D03*
X126500000Y-123000000D03*
X116000000Y-121500000D03*
X136000000Y-111000000D03*
X116000000Y-99000000D03*
X124500000Y-106000000D03*
X139450000Y-109000000D03*
X140750000Y-108000000D03*
X132500000Y-108750000D03*
X127500000Y-98250000D03*
X140750000Y-104500000D03*
X135500000Y-108250000D03*
X136000000Y-106500000D03*
X135000000Y-109500000D03*
X122432500Y-123000000D03*
X135075000Y-105000000D03*
X122600000Y-111000000D03*
X123500000Y-102500000D03*
X124500000Y-104500000D03*
D23*
X142079000Y-101889000D02*
X142079000Y-99000000D01*
X141415000Y-124000000D02*
X147500000Y-124000000D01*
X149000000Y-113500000D02*
X143690000Y-108190000D01*
X147500000Y-124000000D02*
X149000000Y-122500000D01*
X149000000Y-120750000D02*
X149000000Y-113500000D01*
X149000000Y-122500000D02*
X149000000Y-120750000D01*
X143690000Y-108190000D02*
X143690000Y-103500000D01*
X139500000Y-125915000D02*
X141415000Y-124000000D01*
X143690000Y-103500000D02*
X142079000Y-101889000D01*
X150250000Y-113000000D02*
X146230000Y-108980000D01*
X146230000Y-103500000D02*
X147921000Y-101809000D01*
X146230000Y-108980000D02*
X146230000Y-103500000D01*
X147250000Y-126000000D02*
X150250000Y-123000000D01*
X147921000Y-101809000D02*
X147921000Y-99000000D01*
X150250000Y-120750000D02*
X150250000Y-113000000D01*
X146437500Y-126000000D02*
X147250000Y-126000000D01*
X150250000Y-123000000D02*
X150250000Y-120750000D01*
D24*
X132075000Y-105550000D02*
X134025000Y-107500000D01*
X137675000Y-105000000D02*
X137675000Y-107375000D01*
X131000000Y-103500000D02*
X131575000Y-103500000D01*
X132075000Y-103000000D02*
X132075000Y-105000000D01*
D25*
X126500000Y-123000000D02*
X125382500Y-123000000D01*
X137600000Y-109000000D02*
X137550000Y-108950000D01*
X138250000Y-109000000D02*
X137600000Y-109000000D01*
D24*
X137675000Y-107375000D02*
X137550000Y-107500000D01*
D25*
X136000000Y-111000000D02*
X137050000Y-111000000D01*
X137050000Y-111000000D02*
X137550000Y-110500000D01*
D24*
X137550000Y-107500000D02*
X137550000Y-108950000D01*
X120000000Y-101550000D02*
X122000000Y-101550000D01*
X132075000Y-105000000D02*
X132075000Y-105550000D01*
X127500000Y-99750000D02*
X126200000Y-99750000D01*
X137550000Y-108950000D02*
X137550000Y-110500000D01*
X128000000Y-101550000D02*
X126000000Y-101550000D01*
X131575000Y-103500000D02*
X132075000Y-103000000D01*
X126200000Y-99750000D02*
X126000000Y-99950000D01*
X139450000Y-109000000D02*
X139450000Y-110500000D01*
X132125000Y-107500000D02*
X130273000Y-105648000D01*
X132125000Y-108375000D02*
X132125000Y-107500000D01*
X130250000Y-101500000D02*
X130250000Y-101000000D01*
X130273000Y-101523000D02*
X130250000Y-101500000D01*
D25*
X140250000Y-107500000D02*
X139450000Y-107500000D01*
D24*
X139450000Y-107500000D02*
X139450000Y-109000000D01*
X132500000Y-108750000D02*
X132125000Y-108375000D01*
X130273000Y-105648000D02*
X130273000Y-101523000D01*
X127500000Y-98250000D02*
X127300000Y-98050000D01*
D25*
X140750000Y-108000000D02*
X140250000Y-107500000D01*
D24*
X130250000Y-101000000D02*
X127500000Y-98250000D01*
X127300000Y-98050000D02*
X126000000Y-98050000D01*
D25*
X140250000Y-105000000D02*
X139500000Y-105000000D01*
X140750000Y-104500000D02*
X140250000Y-105000000D01*
X135373000Y-106240288D02*
X136173000Y-105440288D01*
X135500000Y-108250000D02*
X135373000Y-108123000D01*
X136173000Y-105440288D02*
X136173000Y-97607000D01*
X135373000Y-108123000D02*
X135373000Y-106240288D01*
X136173000Y-97607000D02*
X136280000Y-97500000D01*
X138535000Y-97500000D02*
X138820000Y-97500000D01*
X136500000Y-99535000D02*
X138535000Y-97500000D01*
X136000000Y-106500000D02*
X136500000Y-106000000D01*
X136500000Y-106000000D02*
X136500000Y-99535000D01*
X135000000Y-109500000D02*
X134873000Y-109373000D01*
X135846000Y-99606000D02*
X133740000Y-97500000D01*
X134873000Y-109373000D02*
X134873000Y-106127000D01*
X134873000Y-106127000D02*
X135846000Y-105154000D01*
X135846000Y-105154000D02*
X135846000Y-99606000D01*
D24*
X123482500Y-111882500D02*
X122600000Y-111000000D01*
D25*
X122432500Y-123000000D02*
X123482500Y-123000000D01*
D24*
X123482500Y-123000000D02*
X123482500Y-111882500D01*
X133975000Y-103000000D02*
X133975000Y-105000000D01*
X122000000Y-103450000D02*
X122550000Y-103450000D01*
X120000000Y-103450000D02*
X122000000Y-103450000D01*
X122550000Y-103450000D02*
X123500000Y-102500000D01*
X135075000Y-105000000D02*
X133975000Y-105000000D01*
X126000000Y-103450000D02*
X128000000Y-103450000D01*
X124500000Y-104500000D02*
X125550000Y-103450000D01*
X125550000Y-103450000D02*
X126000000Y-103450000D01*
D23*
X140250000Y-128000000D02*
X142250000Y-126000000D01*
X130500000Y-125915000D02*
X132585000Y-128000000D01*
X132585000Y-128000000D02*
X140250000Y-128000000D01*
X142250000Y-126000000D02*
X144562500Y-126000000D01*
G04 #@! TA.AperFunction,Conductor*
G36*
X141193039Y-95270185D02*
G01*
X141238794Y-95322989D01*
X141250000Y-95374500D01*
X141250000Y-103822681D01*
X141230315Y-103889720D01*
X141177511Y-103935475D01*
X141108353Y-103945419D01*
X141067977Y-103932268D01*
X140991443Y-103891745D01*
X140991437Y-103891743D01*
X140984831Y-103888245D01*
X140832128Y-103849889D01*
X140750329Y-103849461D01*
X140682158Y-103849104D01*
X140682157Y-103849104D01*
X140674684Y-103849065D01*
X140667421Y-103850809D01*
X140667418Y-103850809D01*
X140598136Y-103867443D01*
X140521588Y-103885820D01*
X140381679Y-103958032D01*
X140376048Y-103962945D01*
X140376047Y-103962945D01*
X140363863Y-103973574D01*
X140263034Y-104061533D01*
X140226946Y-104112880D01*
X140172295Y-104156409D01*
X140102784Y-104163481D01*
X140051131Y-104140804D01*
X140012395Y-104111773D01*
X140012390Y-104111770D01*
X140005324Y-104106474D01*
X139988135Y-104100030D01*
X139965732Y-104091632D01*
X139871080Y-104056149D01*
X139809877Y-104049500D01*
X139500047Y-104049500D01*
X139190124Y-104049501D01*
X139128920Y-104056149D01*
X139028356Y-104093848D01*
X139011866Y-104100030D01*
X138994676Y-104106474D01*
X138987611Y-104111769D01*
X138987609Y-104111770D01*
X138887019Y-104187159D01*
X138879954Y-104192454D01*
X138874659Y-104199519D01*
X138806509Y-104290451D01*
X138793974Y-104307176D01*
X138743649Y-104441420D01*
X138737000Y-104502623D01*
X138737001Y-105497376D01*
X138743649Y-105558580D01*
X138793974Y-105692824D01*
X138799269Y-105699889D01*
X138799270Y-105699891D01*
X138870206Y-105794540D01*
X138879954Y-105807546D01*
X138887019Y-105812841D01*
X138987609Y-105888230D01*
X138987611Y-105888231D01*
X138994676Y-105893526D01*
X139002944Y-105896626D01*
X139002945Y-105896626D01*
X139026489Y-105905452D01*
X139128920Y-105943851D01*
X139190123Y-105950500D01*
X139499953Y-105950500D01*
X139809876Y-105950499D01*
X139871080Y-105943851D01*
X139973511Y-105905452D01*
X139997055Y-105896626D01*
X139997056Y-105896626D01*
X140005324Y-105893526D01*
X140012389Y-105888231D01*
X140012391Y-105888230D01*
X140112981Y-105812841D01*
X140120046Y-105807546D01*
X140129794Y-105794540D01*
X140200730Y-105699891D01*
X140200731Y-105699889D01*
X140206026Y-105692824D01*
X140256351Y-105558580D01*
X140263000Y-105497377D01*
X140263000Y-105457978D01*
X140282685Y-105390939D01*
X140335489Y-105345184D01*
X140343820Y-105341865D01*
X140349138Y-105341236D01*
X140356758Y-105337577D01*
X140365103Y-105336188D01*
X140374118Y-105331324D01*
X140374123Y-105331322D01*
X140406623Y-105313785D01*
X140411784Y-105311155D01*
X140454326Y-105290726D01*
X140458274Y-105287408D01*
X140460180Y-105285502D01*
X140461811Y-105284006D01*
X140462220Y-105283786D01*
X140462256Y-105283825D01*
X140462428Y-105283674D01*
X140467794Y-105280778D01*
X140501493Y-105244323D01*
X140504868Y-105240814D01*
X140561522Y-105184160D01*
X140622845Y-105150675D01*
X140660963Y-105149187D01*
X140661069Y-105149215D01*
X140745715Y-105150545D01*
X140811025Y-105151571D01*
X140811028Y-105151571D01*
X140818495Y-105151688D01*
X140825776Y-105150020D01*
X140825780Y-105150020D01*
X140964681Y-105118207D01*
X140971968Y-105116538D01*
X141070284Y-105067090D01*
X141139021Y-105054554D01*
X141203622Y-105081169D01*
X141243580Y-105138485D01*
X141250000Y-105177868D01*
X141250000Y-107322681D01*
X141230315Y-107389720D01*
X141177511Y-107435475D01*
X141108353Y-107445419D01*
X141067977Y-107432268D01*
X140991443Y-107391745D01*
X140991437Y-107391743D01*
X140984831Y-107388245D01*
X140832128Y-107349889D01*
X140760089Y-107349512D01*
X140682165Y-107349104D01*
X140682164Y-107349104D01*
X140674684Y-107349065D01*
X140667413Y-107350811D01*
X140663391Y-107351276D01*
X140594533Y-107339425D01*
X140561460Y-107315778D01*
X140533631Y-107287949D01*
X140521154Y-107272500D01*
X140518381Y-107269452D01*
X140512825Y-107260848D01*
X140488824Y-107241927D01*
X140484856Y-107238401D01*
X140484775Y-107238497D01*
X140480873Y-107235191D01*
X140477254Y-107231572D01*
X140462886Y-107221304D01*
X140458245Y-107217821D01*
X140421189Y-107188608D01*
X140413213Y-107185807D01*
X140406331Y-107180889D01*
X140396517Y-107177954D01*
X140396515Y-107177953D01*
X140361156Y-107167379D01*
X140355597Y-107165573D01*
X140318454Y-107152529D01*
X140318449Y-107152528D01*
X140311094Y-107149945D01*
X140305956Y-107149500D01*
X140304386Y-107149500D01*
X140298399Y-107148211D01*
X140237004Y-107114857D01*
X140203389Y-107053605D01*
X140200499Y-107026989D01*
X140200499Y-106977624D01*
X140193851Y-106916420D01*
X140143526Y-106782176D01*
X140057546Y-106667454D01*
X140050481Y-106662159D01*
X139949891Y-106586770D01*
X139949889Y-106586769D01*
X139942824Y-106581474D01*
X139808580Y-106531149D01*
X139747377Y-106524500D01*
X139450045Y-106524500D01*
X139152624Y-106524501D01*
X139091420Y-106531149D01*
X138957176Y-106581474D01*
X138950111Y-106586769D01*
X138950109Y-106586770D01*
X138849519Y-106662159D01*
X138842454Y-106667454D01*
X138756474Y-106782176D01*
X138706149Y-106916420D01*
X138699500Y-106977623D01*
X138699501Y-108022376D01*
X138706149Y-108083580D01*
X138756474Y-108217824D01*
X138761769Y-108224889D01*
X138761770Y-108224891D01*
X138793887Y-108267744D01*
X138842454Y-108332546D01*
X138849519Y-108337841D01*
X138930605Y-108398612D01*
X138972445Y-108454569D01*
X138977390Y-108524264D01*
X138957690Y-108569137D01*
X138872501Y-108690348D01*
X138815309Y-108837039D01*
X138794758Y-108993138D01*
X138795578Y-109000566D01*
X138795578Y-109000568D01*
X138802309Y-109061533D01*
X138812035Y-109149633D01*
X138814601Y-109156645D01*
X138814602Y-109156649D01*
X138839625Y-109225026D01*
X138866143Y-109297490D01*
X138907652Y-109359262D01*
X138953958Y-109428172D01*
X138952811Y-109428943D01*
X138978382Y-109485218D01*
X138968307Y-109554358D01*
X138929977Y-109601857D01*
X138849523Y-109662155D01*
X138849519Y-109662159D01*
X138842454Y-109667454D01*
X138837159Y-109674519D01*
X138769906Y-109764254D01*
X138756474Y-109782176D01*
X138706149Y-109916420D01*
X138699500Y-109977623D01*
X138699501Y-111022376D01*
X138706149Y-111083580D01*
X138756474Y-111217824D01*
X138842454Y-111332546D01*
X138849519Y-111337841D01*
X138950109Y-111413230D01*
X138950111Y-111413231D01*
X138957176Y-111418526D01*
X138965444Y-111421626D01*
X138965445Y-111421626D01*
X138996768Y-111433368D01*
X139091420Y-111468851D01*
X139152623Y-111475500D01*
X139449955Y-111475500D01*
X139747376Y-111475499D01*
X139808580Y-111468851D01*
X139917093Y-111428172D01*
X139934555Y-111421626D01*
X139934556Y-111421626D01*
X139942824Y-111418526D01*
X139949889Y-111413231D01*
X139949891Y-111413230D01*
X140050481Y-111337841D01*
X140057546Y-111332546D01*
X140143526Y-111217824D01*
X140193851Y-111083580D01*
X140200500Y-111022377D01*
X140200499Y-109977624D01*
X140193851Y-109916420D01*
X140143526Y-109782176D01*
X140130095Y-109764254D01*
X140062841Y-109674519D01*
X140057546Y-109667454D01*
X140050481Y-109662159D01*
X140050478Y-109662156D01*
X139968848Y-109600978D01*
X139927007Y-109545021D01*
X139922061Y-109475327D01*
X139942515Y-109429393D01*
X139964200Y-109399215D01*
X140024224Y-109315683D01*
X140082950Y-109169598D01*
X140084793Y-109156649D01*
X140104562Y-109017744D01*
X140104562Y-109017740D01*
X140105134Y-109013723D01*
X140105278Y-109000000D01*
X140102650Y-108978280D01*
X140087262Y-108851119D01*
X140087261Y-108851115D01*
X140086363Y-108843694D01*
X140056145Y-108763723D01*
X140033354Y-108703408D01*
X140033352Y-108703405D01*
X140030710Y-108696412D01*
X139999972Y-108651688D01*
X139942187Y-108567611D01*
X139920437Y-108501212D01*
X139938038Y-108433596D01*
X139970012Y-108398151D01*
X140040966Y-108344973D01*
X140106416Y-108320519D01*
X140174697Y-108335332D01*
X140218252Y-108375036D01*
X140253958Y-108428172D01*
X140305421Y-108475000D01*
X140364878Y-108529102D01*
X140364882Y-108529105D01*
X140370410Y-108534135D01*
X140376980Y-108537702D01*
X140376981Y-108537703D01*
X140502208Y-108605696D01*
X140508776Y-108609262D01*
X140580362Y-108628042D01*
X140653841Y-108647319D01*
X140653843Y-108647319D01*
X140661069Y-108649215D01*
X140738127Y-108650425D01*
X140811025Y-108651571D01*
X140811028Y-108651571D01*
X140818495Y-108651688D01*
X140825776Y-108650020D01*
X140825780Y-108650020D01*
X140964681Y-108618207D01*
X140971968Y-108616538D01*
X141048302Y-108578146D01*
X141070285Y-108567090D01*
X141139021Y-108554554D01*
X141203622Y-108581169D01*
X141243580Y-108638485D01*
X141250000Y-108677868D01*
X141250000Y-112126000D01*
X141230315Y-112193039D01*
X141177511Y-112238794D01*
X141126000Y-112250000D01*
X134250000Y-112250000D01*
X134250000Y-123376000D01*
X134230315Y-123443039D01*
X134177511Y-123488794D01*
X134126000Y-123500000D01*
X126500000Y-123500000D01*
X126500000Y-129625500D01*
X126480315Y-129692539D01*
X126427511Y-129738294D01*
X126376000Y-129749500D01*
X119036885Y-129749500D01*
X119012694Y-129747117D01*
X119011980Y-129746975D01*
X119000000Y-129744592D01*
X118988020Y-129746975D01*
X118975815Y-129746975D01*
X118964942Y-129747778D01*
X118638563Y-129731744D01*
X118626460Y-129730551D01*
X118274525Y-129678346D01*
X118262606Y-129675975D01*
X117917479Y-129589526D01*
X117905846Y-129585997D01*
X117675963Y-129503743D01*
X117570872Y-129466141D01*
X117559630Y-129461485D01*
X117238000Y-129309366D01*
X117227268Y-129303629D01*
X116922118Y-129120729D01*
X116912000Y-129113969D01*
X116626230Y-128902028D01*
X116616824Y-128894308D01*
X116353217Y-128655388D01*
X116344612Y-128646783D01*
X116105692Y-128383176D01*
X116097972Y-128373770D01*
X115886031Y-128088000D01*
X115879271Y-128077882D01*
X115696371Y-127772732D01*
X115690634Y-127762000D01*
X115538515Y-127440370D01*
X115533859Y-127429128D01*
X115469587Y-127249500D01*
X115414003Y-127094154D01*
X115410473Y-127082518D01*
X115335163Y-126781862D01*
X115324025Y-126737394D01*
X115321652Y-126725467D01*
X115321194Y-126722376D01*
X115269449Y-126373540D01*
X115268256Y-126361433D01*
X115252222Y-126035058D01*
X115253025Y-126024185D01*
X115253025Y-126011980D01*
X115255408Y-126000000D01*
X115252883Y-125987306D01*
X115250500Y-125963115D01*
X115250500Y-122993138D01*
X121777258Y-122993138D01*
X121794535Y-123149633D01*
X121797101Y-123156645D01*
X121797102Y-123156649D01*
X121826706Y-123237544D01*
X121848643Y-123297490D01*
X121936458Y-123428172D01*
X121952797Y-123443039D01*
X122047378Y-123529102D01*
X122047382Y-123529105D01*
X122052910Y-123534135D01*
X122059480Y-123537702D01*
X122059481Y-123537703D01*
X122184708Y-123605696D01*
X122191276Y-123609262D01*
X122293531Y-123636088D01*
X122336341Y-123647319D01*
X122336343Y-123647319D01*
X122343569Y-123649215D01*
X122420627Y-123650425D01*
X122493525Y-123651571D01*
X122493528Y-123651571D01*
X122500995Y-123651688D01*
X122508276Y-123650020D01*
X122508280Y-123650020D01*
X122637649Y-123620390D01*
X122707391Y-123624611D01*
X122763780Y-123665867D01*
X122781441Y-123697731D01*
X122785873Y-123709553D01*
X122788974Y-123717824D01*
X122874954Y-123832546D01*
X122882019Y-123837841D01*
X122982609Y-123913230D01*
X122982611Y-123913231D01*
X122989676Y-123918526D01*
X123123920Y-123968851D01*
X123185123Y-123975500D01*
X123482455Y-123975500D01*
X123779876Y-123975499D01*
X123841080Y-123968851D01*
X123975324Y-123918526D01*
X123982389Y-123913231D01*
X123982391Y-123913230D01*
X124082981Y-123837841D01*
X124090046Y-123832546D01*
X124176026Y-123717824D01*
X124226351Y-123583580D01*
X124233000Y-123522377D01*
X124233000Y-123518972D01*
X124632500Y-123518972D01*
X124632863Y-123525669D01*
X124638303Y-123575744D01*
X124641871Y-123590753D01*
X124686317Y-123709311D01*
X124694712Y-123724646D01*
X124770016Y-123825124D01*
X124782376Y-123837484D01*
X124882854Y-123912788D01*
X124898189Y-123921183D01*
X125016747Y-123965629D01*
X125031756Y-123969197D01*
X125081831Y-123974637D01*
X125088528Y-123975000D01*
X125164670Y-123975000D01*
X125179669Y-123970596D01*
X125180856Y-123969226D01*
X125182500Y-123961668D01*
X125182500Y-123957170D01*
X125582500Y-123957170D01*
X125586904Y-123972169D01*
X125588274Y-123973356D01*
X125595832Y-123975000D01*
X125676472Y-123975000D01*
X125683169Y-123974637D01*
X125733244Y-123969197D01*
X125748253Y-123965629D01*
X125866811Y-123921183D01*
X125882146Y-123912788D01*
X125982624Y-123837484D01*
X125994984Y-123825124D01*
X126070288Y-123724646D01*
X126078683Y-123709311D01*
X126123129Y-123590753D01*
X126126697Y-123575744D01*
X126132137Y-123525669D01*
X126132500Y-123518972D01*
X126132500Y-123217830D01*
X126128096Y-123202831D01*
X126126726Y-123201644D01*
X126119168Y-123200000D01*
X125600330Y-123200000D01*
X125585331Y-123204404D01*
X125584144Y-123205774D01*
X125582500Y-123213332D01*
X125582500Y-123957170D01*
X125182500Y-123957170D01*
X125182500Y-123217830D01*
X125178096Y-123202831D01*
X125176726Y-123201644D01*
X125169168Y-123200000D01*
X124650330Y-123200000D01*
X124635331Y-123204404D01*
X124634144Y-123205774D01*
X124632500Y-123213332D01*
X124632500Y-123518972D01*
X124233000Y-123518972D01*
X124232999Y-122782170D01*
X124632500Y-122782170D01*
X124636904Y-122797169D01*
X124638274Y-122798356D01*
X124645832Y-122800000D01*
X125164670Y-122800000D01*
X125179669Y-122795596D01*
X125180856Y-122794226D01*
X125182500Y-122786668D01*
X125182500Y-122782170D01*
X125582500Y-122782170D01*
X125586904Y-122797169D01*
X125588274Y-122798356D01*
X125595832Y-122800000D01*
X126114670Y-122800000D01*
X126129669Y-122795596D01*
X126130856Y-122794226D01*
X126132500Y-122786668D01*
X126132500Y-122481028D01*
X126132137Y-122474331D01*
X126126697Y-122424256D01*
X126123129Y-122409247D01*
X126078683Y-122290689D01*
X126070288Y-122275354D01*
X125994984Y-122174876D01*
X125982624Y-122162516D01*
X125882146Y-122087212D01*
X125866811Y-122078817D01*
X125748253Y-122034371D01*
X125733244Y-122030803D01*
X125683169Y-122025363D01*
X125676472Y-122025000D01*
X125600330Y-122025000D01*
X125585331Y-122029404D01*
X125584144Y-122030774D01*
X125582500Y-122038332D01*
X125582500Y-122782170D01*
X125182500Y-122782170D01*
X125182500Y-122042830D01*
X125178096Y-122027831D01*
X125176726Y-122026644D01*
X125169168Y-122025000D01*
X125088528Y-122025000D01*
X125081831Y-122025363D01*
X125031756Y-122030803D01*
X125016747Y-122034371D01*
X124898189Y-122078817D01*
X124882854Y-122087212D01*
X124782376Y-122162516D01*
X124770016Y-122174876D01*
X124694712Y-122275354D01*
X124686317Y-122290689D01*
X124641871Y-122409247D01*
X124638303Y-122424256D01*
X124632863Y-122474331D01*
X124632500Y-122481028D01*
X124632500Y-122782170D01*
X124232999Y-122782170D01*
X124232999Y-122477624D01*
X124226351Y-122416420D01*
X124176026Y-122282176D01*
X124090046Y-122167454D01*
X123982633Y-122086952D01*
X123940794Y-122030996D01*
X123933000Y-121987727D01*
X123933000Y-113374674D01*
X128149500Y-113374674D01*
X128164034Y-113447740D01*
X128219399Y-113530601D01*
X128302260Y-113585966D01*
X128336313Y-113592740D01*
X128369347Y-113599311D01*
X128369350Y-113599311D01*
X128375326Y-113600500D01*
X130124674Y-113600500D01*
X130130650Y-113599311D01*
X130130653Y-113599311D01*
X130163687Y-113592740D01*
X130197740Y-113585966D01*
X130280601Y-113530601D01*
X130335966Y-113447740D01*
X130350500Y-113374674D01*
X130350500Y-111625326D01*
X130335966Y-111552260D01*
X130280601Y-111469399D01*
X130197740Y-111414034D01*
X130163687Y-111407260D01*
X130130653Y-111400689D01*
X130130650Y-111400689D01*
X130124674Y-111399500D01*
X128375326Y-111399500D01*
X128369350Y-111400689D01*
X128369347Y-111400689D01*
X128336313Y-111407260D01*
X128302260Y-111414034D01*
X128219399Y-111469399D01*
X128164034Y-111552260D01*
X128149500Y-111625326D01*
X128149500Y-113374674D01*
X123933000Y-113374674D01*
X123933000Y-111916602D01*
X123933859Y-111902028D01*
X123936775Y-111877394D01*
X123936775Y-111877391D01*
X123937864Y-111868189D01*
X123927321Y-111810461D01*
X123926681Y-111806619D01*
X123919327Y-111757702D01*
X123919326Y-111757700D01*
X123917949Y-111748538D01*
X123914822Y-111742025D01*
X123913525Y-111734926D01*
X123886467Y-111682836D01*
X123884727Y-111679353D01*
X123863320Y-111634774D01*
X123859309Y-111626421D01*
X123854481Y-111621198D01*
X123854340Y-111620988D01*
X123851079Y-111614711D01*
X123846775Y-111609672D01*
X123809506Y-111572403D01*
X123806131Y-111568893D01*
X123773647Y-111533751D01*
X123773644Y-111533749D01*
X123767354Y-111526944D01*
X123761016Y-111523263D01*
X123754775Y-111517672D01*
X123288057Y-111050954D01*
X123270593Y-111018972D01*
X136800000Y-111018972D01*
X136800363Y-111025669D01*
X136805803Y-111075744D01*
X136809371Y-111090753D01*
X136853817Y-111209311D01*
X136862212Y-111224646D01*
X136937516Y-111325124D01*
X136949876Y-111337484D01*
X137050354Y-111412788D01*
X137065689Y-111421183D01*
X137184247Y-111465629D01*
X137199256Y-111469197D01*
X137249331Y-111474637D01*
X137256028Y-111475000D01*
X137332170Y-111475000D01*
X137347169Y-111470596D01*
X137348356Y-111469226D01*
X137350000Y-111461668D01*
X137350000Y-111457170D01*
X137750000Y-111457170D01*
X137754404Y-111472169D01*
X137755774Y-111473356D01*
X137763332Y-111475000D01*
X137843972Y-111475000D01*
X137850669Y-111474637D01*
X137900744Y-111469197D01*
X137915753Y-111465629D01*
X138034311Y-111421183D01*
X138049646Y-111412788D01*
X138150124Y-111337484D01*
X138162484Y-111325124D01*
X138237788Y-111224646D01*
X138246183Y-111209311D01*
X138290629Y-111090753D01*
X138294197Y-111075744D01*
X138299637Y-111025669D01*
X138300000Y-111018972D01*
X138300000Y-110717830D01*
X138295596Y-110702831D01*
X138294226Y-110701644D01*
X138286668Y-110700000D01*
X137767830Y-110700000D01*
X137752831Y-110704404D01*
X137751644Y-110705774D01*
X137750000Y-110713332D01*
X137750000Y-111457170D01*
X137350000Y-111457170D01*
X137350000Y-110717830D01*
X137345596Y-110702831D01*
X137344226Y-110701644D01*
X137336668Y-110700000D01*
X136817830Y-110700000D01*
X136802831Y-110704404D01*
X136801644Y-110705774D01*
X136800000Y-110713332D01*
X136800000Y-111018972D01*
X123270593Y-111018972D01*
X123254572Y-110989631D01*
X123252636Y-110978170D01*
X123237262Y-110851119D01*
X123237261Y-110851115D01*
X123236363Y-110843694D01*
X123196099Y-110737138D01*
X123183354Y-110703408D01*
X123183352Y-110703405D01*
X123180710Y-110696412D01*
X123170629Y-110681744D01*
X123095768Y-110572821D01*
X123095765Y-110572818D01*
X123091531Y-110566657D01*
X122973976Y-110461919D01*
X122834831Y-110388245D01*
X122682128Y-110349889D01*
X122600329Y-110349461D01*
X122532158Y-110349104D01*
X122532157Y-110349104D01*
X122524684Y-110349065D01*
X122517421Y-110350809D01*
X122517418Y-110350809D01*
X122448136Y-110367443D01*
X122371588Y-110385820D01*
X122231679Y-110458032D01*
X122113034Y-110561533D01*
X122022501Y-110690348D01*
X121965309Y-110837039D01*
X121944758Y-110993138D01*
X121945578Y-111000566D01*
X121945578Y-111000568D01*
X121949142Y-111032852D01*
X121962035Y-111149633D01*
X121964601Y-111156645D01*
X121964602Y-111156649D01*
X121994206Y-111237544D01*
X122016143Y-111297490D01*
X122103958Y-111428172D01*
X122155421Y-111475000D01*
X122214878Y-111529102D01*
X122214882Y-111529105D01*
X122220410Y-111534135D01*
X122226980Y-111537702D01*
X122226981Y-111537703D01*
X122347902Y-111603358D01*
X122358776Y-111609262D01*
X122435786Y-111629465D01*
X122503841Y-111647319D01*
X122503843Y-111647319D01*
X122511069Y-111649215D01*
X122557381Y-111649943D01*
X122563507Y-111650039D01*
X122630229Y-111670775D01*
X122649240Y-111686343D01*
X122995681Y-112032784D01*
X123029166Y-112094107D01*
X123032000Y-112120465D01*
X123032000Y-121987727D01*
X123012315Y-122054766D01*
X122982367Y-122086952D01*
X122874954Y-122167454D01*
X122788974Y-122282176D01*
X122785874Y-122290444D01*
X122785874Y-122290445D01*
X122781048Y-122303319D01*
X122739083Y-122359183D01*
X122673578Y-122383491D01*
X122634730Y-122380056D01*
X122521878Y-122351710D01*
X122514628Y-122349889D01*
X122432829Y-122349461D01*
X122364658Y-122349104D01*
X122364657Y-122349104D01*
X122357184Y-122349065D01*
X122349921Y-122350809D01*
X122349918Y-122350809D01*
X122315039Y-122359183D01*
X122204088Y-122385820D01*
X122064179Y-122458032D01*
X122058548Y-122462945D01*
X122058547Y-122462945D01*
X122037818Y-122481028D01*
X121945534Y-122561533D01*
X121855001Y-122690348D01*
X121797809Y-122837039D01*
X121777258Y-122993138D01*
X115250500Y-122993138D01*
X115250500Y-117551069D01*
X116420164Y-117551069D01*
X116420535Y-117556731D01*
X116420535Y-117556735D01*
X116425851Y-117637842D01*
X116433392Y-117752894D01*
X116483178Y-117948928D01*
X116567856Y-118132607D01*
X116684588Y-118297780D01*
X116829466Y-118438913D01*
X116997637Y-118551282D01*
X117183470Y-118631122D01*
X117279502Y-118652852D01*
X117375193Y-118674505D01*
X117375195Y-118674505D01*
X117380740Y-118675760D01*
X117498135Y-118680372D01*
X117577161Y-118683477D01*
X117577163Y-118683477D01*
X117582842Y-118683700D01*
X117588462Y-118682885D01*
X117588465Y-118682885D01*
X117777387Y-118655493D01*
X117777389Y-118655493D01*
X117783007Y-118654678D01*
X117788384Y-118652853D01*
X117788387Y-118652852D01*
X117873090Y-118624099D01*
X117974531Y-118589664D01*
X118151001Y-118490837D01*
X118213433Y-118438913D01*
X118302138Y-118365137D01*
X118306505Y-118361505D01*
X118435837Y-118206001D01*
X118534664Y-118029531D01*
X118599678Y-117838007D01*
X118628700Y-117637842D01*
X118630215Y-117580000D01*
X118611708Y-117378591D01*
X118556807Y-117183926D01*
X118467351Y-117002527D01*
X118346335Y-116840467D01*
X118197812Y-116703174D01*
X118026757Y-116595246D01*
X117838898Y-116520298D01*
X117833317Y-116519188D01*
X117833314Y-116519187D01*
X117765373Y-116505673D01*
X117640526Y-116480839D01*
X117634839Y-116480765D01*
X117634834Y-116480764D01*
X117443975Y-116478266D01*
X117443970Y-116478266D01*
X117438286Y-116478192D01*
X117432682Y-116479155D01*
X117432681Y-116479155D01*
X117244546Y-116511482D01*
X117244543Y-116511483D01*
X117238949Y-116512444D01*
X117217660Y-116520298D01*
X117054521Y-116580483D01*
X117054517Y-116580485D01*
X117049193Y-116582449D01*
X117044310Y-116585354D01*
X117044308Y-116585355D01*
X117027683Y-116595246D01*
X116875371Y-116685862D01*
X116723305Y-116819220D01*
X116598089Y-116978057D01*
X116503914Y-117157053D01*
X116502229Y-117162479D01*
X116502228Y-117162482D01*
X116495570Y-117183926D01*
X116443937Y-117350213D01*
X116420164Y-117551069D01*
X115250500Y-117551069D01*
X115250500Y-115252759D01*
X116444032Y-115252759D01*
X116482255Y-115403260D01*
X116486028Y-115413916D01*
X116565910Y-115587193D01*
X116571574Y-115597002D01*
X116681689Y-115752812D01*
X116689039Y-115761417D01*
X116825709Y-115894555D01*
X116834512Y-115901683D01*
X116993147Y-116007680D01*
X117003105Y-116013087D01*
X117178400Y-116088399D01*
X117189172Y-116091899D01*
X117307609Y-116118699D01*
X117321462Y-116117824D01*
X117325000Y-116108575D01*
X117325000Y-116104754D01*
X117725000Y-116104754D01*
X117728903Y-116118048D01*
X117742680Y-116120020D01*
X117777263Y-116115006D01*
X117788278Y-116112361D01*
X117968937Y-116051036D01*
X117979293Y-116046425D01*
X118145753Y-115953202D01*
X118155090Y-115946785D01*
X118301777Y-115824787D01*
X118309787Y-115816777D01*
X118431785Y-115670090D01*
X118438202Y-115660753D01*
X118531425Y-115494293D01*
X118536036Y-115483937D01*
X118597361Y-115303278D01*
X118600006Y-115292263D01*
X118605026Y-115257643D01*
X118603071Y-115243929D01*
X118589718Y-115240000D01*
X117742830Y-115240000D01*
X117727831Y-115244404D01*
X117726644Y-115245774D01*
X117725000Y-115253332D01*
X117725000Y-116104754D01*
X117325000Y-116104754D01*
X117325000Y-115257830D01*
X117320596Y-115242831D01*
X117319226Y-115241644D01*
X117311668Y-115240000D01*
X116458622Y-115240000D01*
X116445305Y-115243910D01*
X116444032Y-115252759D01*
X115250500Y-115252759D01*
X115250500Y-114822298D01*
X116443010Y-114822298D01*
X116445414Y-114836488D01*
X116457953Y-114840000D01*
X117307170Y-114840000D01*
X117322169Y-114835596D01*
X117323356Y-114834226D01*
X117325000Y-114826668D01*
X117325000Y-114822170D01*
X117725000Y-114822170D01*
X117729404Y-114837169D01*
X117730774Y-114838356D01*
X117738332Y-114840000D01*
X118593505Y-114840000D01*
X118607823Y-114835796D01*
X118608793Y-114830096D01*
X118557884Y-114649587D01*
X118553819Y-114638998D01*
X118469441Y-114467894D01*
X118463517Y-114458228D01*
X118349366Y-114305362D01*
X118341785Y-114296942D01*
X118201683Y-114167432D01*
X118192701Y-114160540D01*
X118031331Y-114058724D01*
X118021253Y-114053589D01*
X117844035Y-113982886D01*
X117833178Y-113979670D01*
X117742488Y-113961631D01*
X117729816Y-113962764D01*
X117725000Y-113977677D01*
X117725000Y-114822170D01*
X117325000Y-114822170D01*
X117325000Y-113975995D01*
X117321254Y-113963237D01*
X117306574Y-113961331D01*
X117244676Y-113971967D01*
X117233753Y-113974894D01*
X117054737Y-114040936D01*
X117044524Y-114045808D01*
X116880557Y-114143358D01*
X116871390Y-114150018D01*
X116727942Y-114275819D01*
X116720152Y-114284028D01*
X116602027Y-114433868D01*
X116595864Y-114443360D01*
X116507025Y-114612214D01*
X116502694Y-114622669D01*
X116446111Y-114804898D01*
X116443761Y-114815952D01*
X116443010Y-114822298D01*
X115250500Y-114822298D01*
X115250500Y-112712759D01*
X116444032Y-112712759D01*
X116482255Y-112863260D01*
X116486028Y-112873916D01*
X116565910Y-113047193D01*
X116571574Y-113057002D01*
X116681689Y-113212812D01*
X116689039Y-113221417D01*
X116825709Y-113354555D01*
X116834512Y-113361683D01*
X116993147Y-113467680D01*
X117003105Y-113473087D01*
X117178400Y-113548399D01*
X117189172Y-113551899D01*
X117307609Y-113578699D01*
X117321462Y-113577824D01*
X117325000Y-113568575D01*
X117325000Y-113564754D01*
X117725000Y-113564754D01*
X117728903Y-113578048D01*
X117742680Y-113580020D01*
X117777263Y-113575006D01*
X117788278Y-113572361D01*
X117968937Y-113511036D01*
X117979293Y-113506425D01*
X118145753Y-113413202D01*
X118155090Y-113406785D01*
X118301777Y-113284787D01*
X118309787Y-113276777D01*
X118431785Y-113130090D01*
X118438202Y-113120753D01*
X118531425Y-112954293D01*
X118536036Y-112943937D01*
X118597361Y-112763278D01*
X118600006Y-112752263D01*
X118605026Y-112717643D01*
X118603071Y-112703929D01*
X118589718Y-112700000D01*
X117742830Y-112700000D01*
X117727831Y-112704404D01*
X117726644Y-112705774D01*
X117725000Y-112713332D01*
X117725000Y-113564754D01*
X117325000Y-113564754D01*
X117325000Y-112717830D01*
X117320596Y-112702831D01*
X117319226Y-112701644D01*
X117311668Y-112700000D01*
X116458622Y-112700000D01*
X116445305Y-112703910D01*
X116444032Y-112712759D01*
X115250500Y-112712759D01*
X115250500Y-112282298D01*
X116443010Y-112282298D01*
X116445414Y-112296488D01*
X116457953Y-112300000D01*
X117307170Y-112300000D01*
X117322169Y-112295596D01*
X117323356Y-112294226D01*
X117325000Y-112286668D01*
X117325000Y-112282170D01*
X117725000Y-112282170D01*
X117729404Y-112297169D01*
X117730774Y-112298356D01*
X117738332Y-112300000D01*
X118593505Y-112300000D01*
X118607823Y-112295796D01*
X118608793Y-112290096D01*
X118557884Y-112109587D01*
X118553819Y-112098998D01*
X118469441Y-111927894D01*
X118463517Y-111918228D01*
X118349366Y-111765362D01*
X118341785Y-111756942D01*
X118201683Y-111627432D01*
X118192701Y-111620540D01*
X118031331Y-111518724D01*
X118021253Y-111513589D01*
X117844035Y-111442886D01*
X117833178Y-111439670D01*
X117742488Y-111421631D01*
X117729816Y-111422764D01*
X117725000Y-111437677D01*
X117725000Y-112282170D01*
X117325000Y-112282170D01*
X117325000Y-111435995D01*
X117321254Y-111423237D01*
X117306574Y-111421331D01*
X117244676Y-111431967D01*
X117233753Y-111434894D01*
X117054737Y-111500936D01*
X117044524Y-111505808D01*
X116880557Y-111603358D01*
X116871390Y-111610018D01*
X116727942Y-111735819D01*
X116720152Y-111744028D01*
X116602027Y-111893868D01*
X116595864Y-111903360D01*
X116507025Y-112072214D01*
X116502694Y-112082669D01*
X116446111Y-112264898D01*
X116443761Y-112275952D01*
X116443010Y-112282298D01*
X115250500Y-112282298D01*
X115250500Y-109931069D01*
X116420164Y-109931069D01*
X116420535Y-109936731D01*
X116420535Y-109936735D01*
X116425851Y-110017842D01*
X116433392Y-110132894D01*
X116483178Y-110328928D01*
X116567856Y-110512607D01*
X116684588Y-110677780D01*
X116829466Y-110818913D01*
X116997637Y-110931282D01*
X117183470Y-111011122D01*
X117233210Y-111022377D01*
X117375193Y-111054505D01*
X117375195Y-111054505D01*
X117380740Y-111055760D01*
X117498135Y-111060372D01*
X117577161Y-111063477D01*
X117577163Y-111063477D01*
X117582842Y-111063700D01*
X117588462Y-111062885D01*
X117588465Y-111062885D01*
X117777387Y-111035493D01*
X117777389Y-111035493D01*
X117783007Y-111034678D01*
X117788384Y-111032853D01*
X117788387Y-111032852D01*
X117883491Y-111000568D01*
X117974531Y-110969664D01*
X118151001Y-110870837D01*
X118191639Y-110837039D01*
X118302138Y-110745137D01*
X118306505Y-110741505D01*
X118341025Y-110700000D01*
X118432206Y-110590367D01*
X118432207Y-110590366D01*
X118435837Y-110586001D01*
X118534664Y-110409531D01*
X118576371Y-110286668D01*
X118577898Y-110282170D01*
X136800000Y-110282170D01*
X136804404Y-110297169D01*
X136805774Y-110298356D01*
X136813332Y-110300000D01*
X137332170Y-110300000D01*
X137347169Y-110295596D01*
X137348356Y-110294226D01*
X137350000Y-110286668D01*
X137350000Y-110282170D01*
X137750000Y-110282170D01*
X137754404Y-110297169D01*
X137755774Y-110298356D01*
X137763332Y-110300000D01*
X138282170Y-110300000D01*
X138297169Y-110295596D01*
X138298356Y-110294226D01*
X138300000Y-110286668D01*
X138300000Y-109981028D01*
X138299637Y-109974331D01*
X138294197Y-109924256D01*
X138290629Y-109909247D01*
X138246183Y-109790689D01*
X138237788Y-109775354D01*
X138162484Y-109674876D01*
X138150124Y-109662516D01*
X138049646Y-109587212D01*
X138034311Y-109578817D01*
X137915753Y-109534371D01*
X137900744Y-109530803D01*
X137850669Y-109525363D01*
X137843972Y-109525000D01*
X137767830Y-109525000D01*
X137752831Y-109529404D01*
X137751644Y-109530774D01*
X137750000Y-109538332D01*
X137750000Y-110282170D01*
X137350000Y-110282170D01*
X137350000Y-109542830D01*
X137345596Y-109527831D01*
X137344226Y-109526644D01*
X137336668Y-109525000D01*
X137256028Y-109525000D01*
X137249331Y-109525363D01*
X137199256Y-109530803D01*
X137184247Y-109534371D01*
X137065689Y-109578817D01*
X137050354Y-109587212D01*
X136949876Y-109662516D01*
X136937516Y-109674876D01*
X136862212Y-109775354D01*
X136853817Y-109790689D01*
X136809371Y-109909247D01*
X136805803Y-109924256D01*
X136800363Y-109974331D01*
X136800000Y-109981028D01*
X136800000Y-110282170D01*
X118577898Y-110282170D01*
X118597852Y-110223387D01*
X118597853Y-110223384D01*
X118599678Y-110218007D01*
X118609311Y-110151571D01*
X118628176Y-110021458D01*
X118628176Y-110021453D01*
X118628700Y-110017842D01*
X118630215Y-109960000D01*
X118611708Y-109758591D01*
X118584257Y-109661258D01*
X118558352Y-109569403D01*
X118558351Y-109569400D01*
X118556807Y-109563926D01*
X118467351Y-109382527D01*
X118346335Y-109220467D01*
X118269707Y-109149633D01*
X118201988Y-109087034D01*
X118201986Y-109087033D01*
X118197812Y-109083174D01*
X118193002Y-109080139D01*
X118031566Y-108978280D01*
X118031564Y-108978279D01*
X118026757Y-108975246D01*
X117838898Y-108900298D01*
X117833317Y-108899188D01*
X117833314Y-108899187D01*
X117763996Y-108885399D01*
X117640526Y-108860839D01*
X117634839Y-108860765D01*
X117634834Y-108860764D01*
X117443975Y-108858266D01*
X117443970Y-108858266D01*
X117438286Y-108858192D01*
X117432682Y-108859155D01*
X117432681Y-108859155D01*
X117244546Y-108891482D01*
X117244543Y-108891483D01*
X117238949Y-108892444D01*
X117217660Y-108900298D01*
X117054521Y-108960483D01*
X117054517Y-108960485D01*
X117049193Y-108962449D01*
X117044310Y-108965354D01*
X117044308Y-108965355D01*
X116887325Y-109058750D01*
X116875371Y-109065862D01*
X116723305Y-109199220D01*
X116598089Y-109358057D01*
X116503914Y-109537053D01*
X116502229Y-109542479D01*
X116502228Y-109542482D01*
X116493869Y-109569403D01*
X116443937Y-109730213D01*
X116420164Y-109931069D01*
X115250500Y-109931069D01*
X115250500Y-108294674D01*
X116424500Y-108294674D01*
X116439034Y-108367740D01*
X116445820Y-108377896D01*
X116478316Y-108426530D01*
X116494399Y-108450601D01*
X116577260Y-108505966D01*
X116593795Y-108509255D01*
X116644347Y-108519311D01*
X116644350Y-108519311D01*
X116650326Y-108520500D01*
X118399674Y-108520500D01*
X118405650Y-108519311D01*
X118405653Y-108519311D01*
X118456205Y-108509255D01*
X118472740Y-108505966D01*
X118555601Y-108450601D01*
X118571685Y-108426530D01*
X118604180Y-108377896D01*
X118610966Y-108367740D01*
X118625500Y-108294674D01*
X118625500Y-106545326D01*
X118623223Y-106533876D01*
X118613349Y-106484241D01*
X118610966Y-106472260D01*
X118555601Y-106389399D01*
X118472740Y-106334034D01*
X118438687Y-106327260D01*
X118405653Y-106320689D01*
X118405650Y-106320689D01*
X118399674Y-106319500D01*
X116650326Y-106319500D01*
X116644350Y-106320689D01*
X116644347Y-106320689D01*
X116611313Y-106327260D01*
X116577260Y-106334034D01*
X116494399Y-106389399D01*
X116439034Y-106472260D01*
X116436651Y-106484241D01*
X116426778Y-106533876D01*
X116424500Y-106545326D01*
X116424500Y-108294674D01*
X115250500Y-108294674D01*
X115250500Y-104493138D01*
X123844758Y-104493138D01*
X123845578Y-104500566D01*
X123845578Y-104500568D01*
X123847465Y-104517657D01*
X123862035Y-104649633D01*
X123864601Y-104656645D01*
X123864602Y-104656649D01*
X123869341Y-104669598D01*
X123916143Y-104797490D01*
X124003958Y-104928172D01*
X124026183Y-104948395D01*
X124114878Y-105029102D01*
X124114882Y-105029105D01*
X124120410Y-105034135D01*
X124258776Y-105109262D01*
X124359892Y-105135789D01*
X124403841Y-105147319D01*
X124403843Y-105147319D01*
X124411069Y-105149215D01*
X124488127Y-105150425D01*
X124561025Y-105151571D01*
X124561028Y-105151571D01*
X124568495Y-105151688D01*
X124575776Y-105150020D01*
X124575780Y-105150020D01*
X124714681Y-105118207D01*
X124721968Y-105116538D01*
X124862625Y-105045795D01*
X124868306Y-105040943D01*
X124868309Y-105040941D01*
X124976666Y-104948395D01*
X124976667Y-104948394D01*
X124982348Y-104943542D01*
X124993393Y-104928172D01*
X125013798Y-104899775D01*
X125074224Y-104815683D01*
X125132950Y-104669598D01*
X125135792Y-104649633D01*
X125154574Y-104517657D01*
X125183508Y-104454060D01*
X125189656Y-104447447D01*
X125400284Y-104236819D01*
X125461607Y-104203334D01*
X125487965Y-104200500D01*
X126266124Y-104200499D01*
X126522376Y-104200499D01*
X126583580Y-104193851D01*
X126717824Y-104143526D01*
X126724889Y-104138231D01*
X126724891Y-104138230D01*
X126825481Y-104062841D01*
X126832546Y-104057546D01*
X126900774Y-103966510D01*
X126956731Y-103924670D01*
X127026426Y-103919725D01*
X127087730Y-103953244D01*
X127099225Y-103966508D01*
X127167454Y-104057546D01*
X127174519Y-104062841D01*
X127275109Y-104138230D01*
X127275111Y-104138231D01*
X127282176Y-104143526D01*
X127416420Y-104193851D01*
X127477623Y-104200500D01*
X127999922Y-104200500D01*
X128522376Y-104200499D01*
X128583580Y-104193851D01*
X128717824Y-104143526D01*
X128724889Y-104138231D01*
X128724891Y-104138230D01*
X128825481Y-104062841D01*
X128832546Y-104057546D01*
X128892641Y-103977362D01*
X128913230Y-103949891D01*
X128913231Y-103949889D01*
X128918526Y-103942824D01*
X128968851Y-103808580D01*
X128975500Y-103747377D01*
X128975499Y-103152624D01*
X128968851Y-103091420D01*
X128918526Y-102957176D01*
X128900775Y-102933490D01*
X128837841Y-102849519D01*
X128832546Y-102842454D01*
X128787575Y-102808750D01*
X128724891Y-102761770D01*
X128724889Y-102761769D01*
X128717824Y-102756474D01*
X128583580Y-102706149D01*
X128522377Y-102699500D01*
X128000078Y-102699500D01*
X127477624Y-102699501D01*
X127416420Y-102706149D01*
X127282176Y-102756474D01*
X127275111Y-102761769D01*
X127275109Y-102761770D01*
X127212425Y-102808750D01*
X127167454Y-102842454D01*
X127162159Y-102849519D01*
X127099226Y-102933490D01*
X127043269Y-102975330D01*
X126973574Y-102980275D01*
X126912270Y-102946756D01*
X126900774Y-102933490D01*
X126837841Y-102849519D01*
X126832546Y-102842454D01*
X126787575Y-102808750D01*
X126724891Y-102761770D01*
X126724889Y-102761769D01*
X126717824Y-102756474D01*
X126583580Y-102706149D01*
X126522377Y-102699500D01*
X126000078Y-102699500D01*
X125477624Y-102699501D01*
X125416420Y-102706149D01*
X125282176Y-102756474D01*
X125275111Y-102761769D01*
X125275109Y-102761770D01*
X125212425Y-102808750D01*
X125167454Y-102842454D01*
X125162159Y-102849519D01*
X125099226Y-102933490D01*
X125081474Y-102957176D01*
X125031149Y-103091420D01*
X125024500Y-103152623D01*
X125024500Y-103287035D01*
X125004815Y-103354074D01*
X124988181Y-103374716D01*
X124549956Y-103812941D01*
X124488633Y-103846426D01*
X124461627Y-103849258D01*
X124432159Y-103849104D01*
X124432158Y-103849104D01*
X124424684Y-103849065D01*
X124417421Y-103850809D01*
X124417418Y-103850809D01*
X124348136Y-103867443D01*
X124271588Y-103885820D01*
X124131679Y-103958032D01*
X124126048Y-103962945D01*
X124126047Y-103962945D01*
X124113863Y-103973574D01*
X124013034Y-104061533D01*
X123922501Y-104190348D01*
X123865309Y-104337039D01*
X123844758Y-104493138D01*
X115250500Y-104493138D01*
X115250500Y-103152623D01*
X119024500Y-103152623D01*
X119024501Y-103747376D01*
X119031149Y-103808580D01*
X119081474Y-103942824D01*
X119086769Y-103949889D01*
X119086770Y-103949891D01*
X119107359Y-103977362D01*
X119167454Y-104057546D01*
X119174519Y-104062841D01*
X119275109Y-104138230D01*
X119275111Y-104138231D01*
X119282176Y-104143526D01*
X119416420Y-104193851D01*
X119477623Y-104200500D01*
X119999922Y-104200500D01*
X120522376Y-104200499D01*
X120583580Y-104193851D01*
X120717824Y-104143526D01*
X120724889Y-104138231D01*
X120724891Y-104138230D01*
X120825481Y-104062841D01*
X120832546Y-104057546D01*
X120900774Y-103966510D01*
X120956731Y-103924670D01*
X121026426Y-103919725D01*
X121087730Y-103953244D01*
X121099225Y-103966508D01*
X121167454Y-104057546D01*
X121174519Y-104062841D01*
X121275109Y-104138230D01*
X121275111Y-104138231D01*
X121282176Y-104143526D01*
X121416420Y-104193851D01*
X121477623Y-104200500D01*
X121999922Y-104200500D01*
X122522376Y-104200499D01*
X122583580Y-104193851D01*
X122717824Y-104143526D01*
X122724889Y-104138231D01*
X122724891Y-104138230D01*
X122825481Y-104062841D01*
X122832546Y-104057546D01*
X122892641Y-103977362D01*
X122913230Y-103949891D01*
X122913231Y-103949889D01*
X122918526Y-103942824D01*
X122968851Y-103808580D01*
X122975500Y-103747377D01*
X122975500Y-103712965D01*
X122995185Y-103645926D01*
X123011819Y-103625284D01*
X123449571Y-103187532D01*
X123510894Y-103154047D01*
X123539199Y-103151228D01*
X123561024Y-103151571D01*
X123561027Y-103151571D01*
X123568495Y-103151688D01*
X123575776Y-103150020D01*
X123575780Y-103150020D01*
X123714681Y-103118207D01*
X123721968Y-103116538D01*
X123862625Y-103045795D01*
X123868306Y-103040943D01*
X123868309Y-103040941D01*
X123976666Y-102948395D01*
X123976667Y-102948394D01*
X123982348Y-102943542D01*
X124074224Y-102815683D01*
X124132950Y-102669598D01*
X124155134Y-102513723D01*
X124155278Y-102500000D01*
X124146099Y-102424146D01*
X124137262Y-102351119D01*
X124137261Y-102351115D01*
X124136363Y-102343694D01*
X124127276Y-102319646D01*
X124083354Y-102203408D01*
X124083352Y-102203405D01*
X124080710Y-102196412D01*
X124057392Y-102162484D01*
X123995768Y-102072821D01*
X123995765Y-102072818D01*
X123991531Y-102066657D01*
X123873976Y-101961919D01*
X123734831Y-101888245D01*
X123582128Y-101849889D01*
X123500329Y-101849461D01*
X123432158Y-101849104D01*
X123432157Y-101849104D01*
X123424684Y-101849065D01*
X123417421Y-101850809D01*
X123417418Y-101850809D01*
X123348136Y-101867442D01*
X123271588Y-101885820D01*
X123213594Y-101915753D01*
X123155872Y-101945545D01*
X123087271Y-101958800D01*
X123022394Y-101932863D01*
X122981839Y-101875968D01*
X122976451Y-101843972D01*
X125025000Y-101843972D01*
X125025363Y-101850669D01*
X125030803Y-101900744D01*
X125034371Y-101915753D01*
X125078817Y-102034311D01*
X125087212Y-102049646D01*
X125162516Y-102150124D01*
X125174876Y-102162484D01*
X125275354Y-102237788D01*
X125290689Y-102246183D01*
X125409247Y-102290629D01*
X125424256Y-102294197D01*
X125474331Y-102299637D01*
X125481028Y-102300000D01*
X125782170Y-102300000D01*
X125797169Y-102295596D01*
X125798356Y-102294226D01*
X125800000Y-102286668D01*
X125800000Y-102282170D01*
X126200000Y-102282170D01*
X126204404Y-102297169D01*
X126205774Y-102298356D01*
X126213332Y-102300000D01*
X126518972Y-102300000D01*
X126525669Y-102299637D01*
X126575744Y-102294197D01*
X126590753Y-102290629D01*
X126709311Y-102246183D01*
X126724646Y-102237788D01*
X126825124Y-102162484D01*
X126837487Y-102150121D01*
X126900774Y-102065677D01*
X126956731Y-102023836D01*
X127026425Y-102018890D01*
X127087730Y-102052409D01*
X127099226Y-102065677D01*
X127162513Y-102150121D01*
X127174876Y-102162484D01*
X127275354Y-102237788D01*
X127290689Y-102246183D01*
X127409247Y-102290629D01*
X127424256Y-102294197D01*
X127474331Y-102299637D01*
X127481028Y-102300000D01*
X127782170Y-102300000D01*
X127797169Y-102295596D01*
X127798356Y-102294226D01*
X127800000Y-102286668D01*
X127800000Y-102282170D01*
X128200000Y-102282170D01*
X128204404Y-102297169D01*
X128205774Y-102298356D01*
X128213332Y-102300000D01*
X128518972Y-102300000D01*
X128525669Y-102299637D01*
X128575744Y-102294197D01*
X128590753Y-102290629D01*
X128709311Y-102246183D01*
X128724646Y-102237788D01*
X128825124Y-102162484D01*
X128837484Y-102150124D01*
X128912788Y-102049646D01*
X128921183Y-102034311D01*
X128965629Y-101915753D01*
X128969197Y-101900744D01*
X128974637Y-101850669D01*
X128975000Y-101843972D01*
X128975000Y-101767830D01*
X128970596Y-101752831D01*
X128969226Y-101751644D01*
X128961668Y-101750000D01*
X128217830Y-101750000D01*
X128202831Y-101754404D01*
X128201644Y-101755774D01*
X128200000Y-101763332D01*
X128200000Y-102282170D01*
X127800000Y-102282170D01*
X127800000Y-101767830D01*
X127795596Y-101752831D01*
X127794226Y-101751644D01*
X127786668Y-101750000D01*
X127042827Y-101750000D01*
X127038655Y-101751225D01*
X126977362Y-101753414D01*
X126961668Y-101750000D01*
X126217830Y-101750000D01*
X126202831Y-101754404D01*
X126201644Y-101755774D01*
X126200000Y-101763332D01*
X126200000Y-102282170D01*
X125800000Y-102282170D01*
X125800000Y-101767830D01*
X125795596Y-101752831D01*
X125794226Y-101751644D01*
X125786668Y-101750000D01*
X125042830Y-101750000D01*
X125027831Y-101754404D01*
X125026644Y-101755774D01*
X125025000Y-101763332D01*
X125025000Y-101843972D01*
X122976451Y-101843972D01*
X122975000Y-101835356D01*
X122975000Y-101767830D01*
X122970596Y-101752831D01*
X122969226Y-101751644D01*
X122961668Y-101750000D01*
X122217830Y-101750000D01*
X122202831Y-101754404D01*
X122201644Y-101755774D01*
X122200000Y-101763332D01*
X122200000Y-102282170D01*
X122204404Y-102297169D01*
X122205774Y-102298356D01*
X122213332Y-102300000D01*
X122518972Y-102300000D01*
X122525669Y-102299637D01*
X122575744Y-102294197D01*
X122590753Y-102290628D01*
X122692561Y-102252463D01*
X122762244Y-102247362D01*
X122823623Y-102280745D01*
X122857210Y-102342012D01*
X122859027Y-102384756D01*
X122846801Y-102477624D01*
X122846462Y-102480197D01*
X122818196Y-102544094D01*
X122811204Y-102551693D01*
X122690865Y-102672032D01*
X122629542Y-102705517D01*
X122583697Y-102705076D01*
X122583580Y-102706149D01*
X122522377Y-102699500D01*
X122000078Y-102699500D01*
X121477624Y-102699501D01*
X121416420Y-102706149D01*
X121282176Y-102756474D01*
X121275111Y-102761769D01*
X121275109Y-102761770D01*
X121212425Y-102808750D01*
X121167454Y-102842454D01*
X121162159Y-102849519D01*
X121099226Y-102933490D01*
X121043269Y-102975330D01*
X120973574Y-102980275D01*
X120912270Y-102946756D01*
X120900774Y-102933490D01*
X120837841Y-102849519D01*
X120832546Y-102842454D01*
X120787575Y-102808750D01*
X120724891Y-102761770D01*
X120724889Y-102761769D01*
X120717824Y-102756474D01*
X120583580Y-102706149D01*
X120522377Y-102699500D01*
X120000078Y-102699500D01*
X119477624Y-102699501D01*
X119416420Y-102706149D01*
X119282176Y-102756474D01*
X119275111Y-102761769D01*
X119275109Y-102761770D01*
X119212425Y-102808750D01*
X119167454Y-102842454D01*
X119162159Y-102849519D01*
X119099226Y-102933490D01*
X119081474Y-102957176D01*
X119031149Y-103091420D01*
X119024500Y-103152623D01*
X115250500Y-103152623D01*
X115250500Y-101843972D01*
X119025000Y-101843972D01*
X119025363Y-101850669D01*
X119030803Y-101900744D01*
X119034371Y-101915753D01*
X119078817Y-102034311D01*
X119087212Y-102049646D01*
X119162516Y-102150124D01*
X119174876Y-102162484D01*
X119275354Y-102237788D01*
X119290689Y-102246183D01*
X119409247Y-102290629D01*
X119424256Y-102294197D01*
X119474331Y-102299637D01*
X119481028Y-102300000D01*
X119782170Y-102300000D01*
X119797169Y-102295596D01*
X119798356Y-102294226D01*
X119800000Y-102286668D01*
X119800000Y-102282170D01*
X120200000Y-102282170D01*
X120204404Y-102297169D01*
X120205774Y-102298356D01*
X120213332Y-102300000D01*
X120518972Y-102300000D01*
X120525669Y-102299637D01*
X120575744Y-102294197D01*
X120590753Y-102290629D01*
X120709311Y-102246183D01*
X120724646Y-102237788D01*
X120825124Y-102162484D01*
X120837487Y-102150121D01*
X120900774Y-102065677D01*
X120956731Y-102023836D01*
X121026425Y-102018890D01*
X121087730Y-102052409D01*
X121099226Y-102065677D01*
X121162513Y-102150121D01*
X121174876Y-102162484D01*
X121275354Y-102237788D01*
X121290689Y-102246183D01*
X121409247Y-102290629D01*
X121424256Y-102294197D01*
X121474331Y-102299637D01*
X121481028Y-102300000D01*
X121782170Y-102300000D01*
X121797169Y-102295596D01*
X121798356Y-102294226D01*
X121800000Y-102286668D01*
X121800000Y-101767830D01*
X121795596Y-101752831D01*
X121794226Y-101751644D01*
X121786668Y-101750000D01*
X121042827Y-101750000D01*
X121038655Y-101751225D01*
X120977362Y-101753414D01*
X120961668Y-101750000D01*
X120217830Y-101750000D01*
X120202831Y-101754404D01*
X120201644Y-101755774D01*
X120200000Y-101763332D01*
X120200000Y-102282170D01*
X119800000Y-102282170D01*
X119800000Y-101767830D01*
X119795596Y-101752831D01*
X119794226Y-101751644D01*
X119786668Y-101750000D01*
X119042830Y-101750000D01*
X119027831Y-101754404D01*
X119026644Y-101755774D01*
X119025000Y-101763332D01*
X119025000Y-101843972D01*
X115250500Y-101843972D01*
X115250500Y-101332170D01*
X119025000Y-101332170D01*
X119029404Y-101347169D01*
X119030774Y-101348356D01*
X119038332Y-101350000D01*
X119782170Y-101350000D01*
X119797169Y-101345596D01*
X119798356Y-101344226D01*
X119800000Y-101336668D01*
X119800000Y-101332170D01*
X120200000Y-101332170D01*
X120204404Y-101347169D01*
X120205774Y-101348356D01*
X120213332Y-101350000D01*
X120957173Y-101350000D01*
X120961345Y-101348775D01*
X121022638Y-101346586D01*
X121038332Y-101350000D01*
X121782170Y-101350000D01*
X121797169Y-101345596D01*
X121798356Y-101344226D01*
X121800000Y-101336668D01*
X121800000Y-101332170D01*
X122200000Y-101332170D01*
X122204404Y-101347169D01*
X122205774Y-101348356D01*
X122213332Y-101350000D01*
X122957170Y-101350000D01*
X122972169Y-101345596D01*
X122973356Y-101344226D01*
X122975000Y-101336668D01*
X122975000Y-101332170D01*
X125025000Y-101332170D01*
X125029404Y-101347169D01*
X125030774Y-101348356D01*
X125038332Y-101350000D01*
X126957173Y-101350000D01*
X126961345Y-101348775D01*
X127022638Y-101346586D01*
X127038332Y-101350000D01*
X127782170Y-101350000D01*
X127797169Y-101345596D01*
X127798356Y-101344226D01*
X127800000Y-101336668D01*
X127800000Y-101332170D01*
X128200000Y-101332170D01*
X128204404Y-101347169D01*
X128205774Y-101348356D01*
X128213332Y-101350000D01*
X128957170Y-101350000D01*
X128972169Y-101345596D01*
X128973356Y-101344226D01*
X128975000Y-101336668D01*
X128975000Y-101256028D01*
X128974637Y-101249331D01*
X128969197Y-101199256D01*
X128965629Y-101184247D01*
X128921183Y-101065689D01*
X128912788Y-101050354D01*
X128837484Y-100949876D01*
X128825124Y-100937516D01*
X128724646Y-100862212D01*
X128709311Y-100853817D01*
X128590753Y-100809371D01*
X128575744Y-100805803D01*
X128525669Y-100800363D01*
X128518972Y-100800000D01*
X128217830Y-100800000D01*
X128202831Y-100804404D01*
X128201644Y-100805774D01*
X128200000Y-100813332D01*
X128200000Y-101332170D01*
X127800000Y-101332170D01*
X127800000Y-100817830D01*
X127795596Y-100802831D01*
X127794226Y-100801644D01*
X127786668Y-100800000D01*
X127481028Y-100800000D01*
X127474331Y-100800363D01*
X127424256Y-100805803D01*
X127409247Y-100809371D01*
X127290689Y-100853817D01*
X127275354Y-100862212D01*
X127174876Y-100937516D01*
X127162513Y-100949879D01*
X127099226Y-101034323D01*
X127043269Y-101076164D01*
X126973575Y-101081110D01*
X126912270Y-101047591D01*
X126900774Y-101034323D01*
X126837487Y-100949879D01*
X126825124Y-100937516D01*
X126724649Y-100862214D01*
X126718354Y-100858768D01*
X126669002Y-100809310D01*
X126654224Y-100741021D01*
X126678711Y-100675583D01*
X126718354Y-100641232D01*
X126724649Y-100637786D01*
X126825124Y-100562484D01*
X126837484Y-100550124D01*
X126912788Y-100449646D01*
X126921183Y-100434311D01*
X126965629Y-100315753D01*
X126969197Y-100300744D01*
X126974637Y-100250669D01*
X126975000Y-100243972D01*
X126975000Y-100167830D01*
X126970596Y-100152831D01*
X126969226Y-100151644D01*
X126961668Y-100150000D01*
X125042830Y-100150000D01*
X125027831Y-100154404D01*
X125026644Y-100155774D01*
X125025000Y-100163332D01*
X125025000Y-100243972D01*
X125025363Y-100250669D01*
X125030803Y-100300744D01*
X125034371Y-100315753D01*
X125078817Y-100434311D01*
X125087212Y-100449646D01*
X125162516Y-100550124D01*
X125174876Y-100562484D01*
X125275351Y-100637786D01*
X125281646Y-100641232D01*
X125330998Y-100690690D01*
X125345776Y-100758979D01*
X125321289Y-100824417D01*
X125281646Y-100858768D01*
X125275351Y-100862214D01*
X125174876Y-100937516D01*
X125162516Y-100949876D01*
X125087212Y-101050354D01*
X125078817Y-101065689D01*
X125034371Y-101184247D01*
X125030803Y-101199256D01*
X125025363Y-101249331D01*
X125025000Y-101256028D01*
X125025000Y-101332170D01*
X122975000Y-101332170D01*
X122975000Y-101256028D01*
X122974637Y-101249331D01*
X122969197Y-101199256D01*
X122965629Y-101184247D01*
X122921183Y-101065689D01*
X122912788Y-101050354D01*
X122837484Y-100949876D01*
X122825124Y-100937516D01*
X122724646Y-100862212D01*
X122709311Y-100853817D01*
X122590753Y-100809371D01*
X122575744Y-100805803D01*
X122525669Y-100800363D01*
X122518972Y-100800000D01*
X122217830Y-100800000D01*
X122202831Y-100804404D01*
X122201644Y-100805774D01*
X122200000Y-100813332D01*
X122200000Y-101332170D01*
X121800000Y-101332170D01*
X121800000Y-100817830D01*
X121795596Y-100802831D01*
X121794226Y-100801644D01*
X121786668Y-100800000D01*
X121481028Y-100800000D01*
X121474331Y-100800363D01*
X121424256Y-100805803D01*
X121409247Y-100809371D01*
X121290689Y-100853817D01*
X121275354Y-100862212D01*
X121174876Y-100937516D01*
X121162513Y-100949879D01*
X121099226Y-101034323D01*
X121043269Y-101076164D01*
X120973575Y-101081110D01*
X120912270Y-101047591D01*
X120900774Y-101034323D01*
X120837487Y-100949879D01*
X120825124Y-100937516D01*
X120724646Y-100862212D01*
X120709311Y-100853817D01*
X120590753Y-100809371D01*
X120575744Y-100805803D01*
X120525669Y-100800363D01*
X120518972Y-100800000D01*
X120217830Y-100800000D01*
X120202831Y-100804404D01*
X120201644Y-100805774D01*
X120200000Y-100813332D01*
X120200000Y-101332170D01*
X119800000Y-101332170D01*
X119800000Y-100817830D01*
X119795596Y-100802831D01*
X119794226Y-100801644D01*
X119786668Y-100800000D01*
X119481028Y-100800000D01*
X119474331Y-100800363D01*
X119424256Y-100805803D01*
X119409247Y-100809371D01*
X119290689Y-100853817D01*
X119275354Y-100862212D01*
X119174876Y-100937516D01*
X119162516Y-100949876D01*
X119087212Y-101050354D01*
X119078817Y-101065689D01*
X119034371Y-101184247D01*
X119030803Y-101199256D01*
X119025363Y-101249331D01*
X119025000Y-101256028D01*
X119025000Y-101332170D01*
X115250500Y-101332170D01*
X115250500Y-99732170D01*
X125025000Y-99732170D01*
X125029404Y-99747169D01*
X125030774Y-99748356D01*
X125038332Y-99750000D01*
X125782170Y-99750000D01*
X125797169Y-99745596D01*
X125798356Y-99744226D01*
X125800000Y-99736668D01*
X125800000Y-99732170D01*
X126200000Y-99732170D01*
X126204404Y-99747169D01*
X126205774Y-99748356D01*
X126213332Y-99750000D01*
X126957170Y-99750000D01*
X126972169Y-99745596D01*
X126973356Y-99744226D01*
X126975000Y-99736668D01*
X126975000Y-99656028D01*
X126974637Y-99649331D01*
X126969197Y-99599256D01*
X126965629Y-99584247D01*
X126921183Y-99465689D01*
X126912788Y-99450354D01*
X126837484Y-99349876D01*
X126825124Y-99337516D01*
X126724646Y-99262212D01*
X126709311Y-99253817D01*
X126590753Y-99209371D01*
X126575744Y-99205803D01*
X126525669Y-99200363D01*
X126518972Y-99200000D01*
X126217830Y-99200000D01*
X126202831Y-99204404D01*
X126201644Y-99205774D01*
X126200000Y-99213332D01*
X126200000Y-99732170D01*
X125800000Y-99732170D01*
X125800000Y-99217830D01*
X125795596Y-99202831D01*
X125794226Y-99201644D01*
X125786668Y-99200000D01*
X125481028Y-99200000D01*
X125474331Y-99200363D01*
X125424256Y-99205803D01*
X125409247Y-99209371D01*
X125290689Y-99253817D01*
X125275354Y-99262212D01*
X125174876Y-99337516D01*
X125162516Y-99349876D01*
X125087212Y-99450354D01*
X125078817Y-99465689D01*
X125034371Y-99584247D01*
X125030803Y-99599256D01*
X125025363Y-99649331D01*
X125025000Y-99656028D01*
X125025000Y-99732170D01*
X115250500Y-99732170D01*
X115250500Y-99036885D01*
X115252883Y-99012694D01*
X115253025Y-99011980D01*
X115255408Y-99000000D01*
X115253025Y-98988020D01*
X115253025Y-98975815D01*
X115252222Y-98964939D01*
X115255411Y-98900039D01*
X115268256Y-98638563D01*
X115269449Y-98626457D01*
X115273550Y-98598810D01*
X115321654Y-98274525D01*
X115324026Y-98262599D01*
X115329780Y-98239631D01*
X115410474Y-97917479D01*
X115414003Y-97905846D01*
X115468827Y-97752623D01*
X125024500Y-97752623D01*
X125024501Y-98347376D01*
X125031149Y-98408580D01*
X125068002Y-98506886D01*
X125072212Y-98518116D01*
X125081474Y-98542824D01*
X125086769Y-98549889D01*
X125086770Y-98549891D01*
X125126931Y-98603477D01*
X125167454Y-98657546D01*
X125174519Y-98662841D01*
X125275109Y-98738230D01*
X125275111Y-98738231D01*
X125282176Y-98743526D01*
X125416420Y-98793851D01*
X125477623Y-98800500D01*
X125999922Y-98800500D01*
X126522376Y-98800499D01*
X126583580Y-98793851D01*
X126717824Y-98743526D01*
X126724889Y-98738231D01*
X126724891Y-98738230D01*
X126832546Y-98657546D01*
X126834525Y-98660186D01*
X126881774Y-98634386D01*
X126951466Y-98639370D01*
X127001078Y-98673886D01*
X127003958Y-98678172D01*
X127054707Y-98724350D01*
X127114878Y-98779102D01*
X127114882Y-98779105D01*
X127120410Y-98784135D01*
X127126980Y-98787702D01*
X127126981Y-98787703D01*
X127150550Y-98800500D01*
X127258776Y-98859262D01*
X127361031Y-98886088D01*
X127403841Y-98897319D01*
X127403843Y-98897319D01*
X127411069Y-98899215D01*
X127457381Y-98899943D01*
X127463507Y-98900039D01*
X127530229Y-98920775D01*
X127549240Y-98936343D01*
X129763181Y-101150284D01*
X129796666Y-101211607D01*
X129799500Y-101237965D01*
X129799500Y-101465897D01*
X129798641Y-101480471D01*
X129796381Y-101499569D01*
X129794636Y-101514310D01*
X129796302Y-101523431D01*
X129805176Y-101572022D01*
X129805816Y-101575864D01*
X129814551Y-101633962D01*
X129817095Y-101639259D01*
X129818528Y-101645126D01*
X129818974Y-101647568D01*
X129818086Y-101647730D01*
X129822500Y-101674251D01*
X129822500Y-105613897D01*
X129821641Y-105628471D01*
X129817636Y-105662310D01*
X129819302Y-105671431D01*
X129828176Y-105720022D01*
X129828816Y-105723864D01*
X129833801Y-105757017D01*
X129837551Y-105781962D01*
X129840679Y-105788475D01*
X129841975Y-105795573D01*
X129846248Y-105803799D01*
X129869033Y-105847663D01*
X129870769Y-105851137D01*
X129896191Y-105904079D01*
X129901016Y-105909299D01*
X129901165Y-105909520D01*
X129904421Y-105915788D01*
X129908725Y-105920828D01*
X129945994Y-105958097D01*
X129949369Y-105961607D01*
X129981853Y-105996749D01*
X129981856Y-105996751D01*
X129988146Y-106003556D01*
X129994483Y-106007236D01*
X130000721Y-106012824D01*
X131338181Y-107350285D01*
X131371666Y-107411608D01*
X131374500Y-107437966D01*
X131374501Y-107811682D01*
X131374501Y-108022376D01*
X131381149Y-108083580D01*
X131431474Y-108217824D01*
X131436769Y-108224889D01*
X131436770Y-108224891D01*
X131468887Y-108267744D01*
X131517454Y-108332546D01*
X131626193Y-108414042D01*
X131632176Y-108418526D01*
X131631529Y-108419389D01*
X131675063Y-108463018D01*
X131684530Y-108491215D01*
X131685446Y-108490933D01*
X131688173Y-108499796D01*
X131689551Y-108508962D01*
X131692679Y-108515475D01*
X131693975Y-108522573D01*
X131698248Y-108530799D01*
X131721033Y-108574663D01*
X131722769Y-108578137D01*
X131748191Y-108631079D01*
X131753016Y-108636299D01*
X131753165Y-108636520D01*
X131756421Y-108642788D01*
X131760725Y-108647828D01*
X131797994Y-108685097D01*
X131801371Y-108688609D01*
X131816093Y-108704536D01*
X131847143Y-108767127D01*
X131848286Y-108775098D01*
X131855859Y-108843694D01*
X131862035Y-108899633D01*
X131916143Y-109047490D01*
X131920314Y-109053697D01*
X131984781Y-109149633D01*
X132003958Y-109178172D01*
X132050440Y-109220467D01*
X132114878Y-109279102D01*
X132114882Y-109279105D01*
X132120410Y-109284135D01*
X132126980Y-109287702D01*
X132126981Y-109287703D01*
X132248337Y-109353594D01*
X132258776Y-109359262D01*
X132347458Y-109382527D01*
X132403841Y-109397319D01*
X132403843Y-109397319D01*
X132411069Y-109399215D01*
X132488127Y-109400425D01*
X132561025Y-109401571D01*
X132561028Y-109401571D01*
X132568495Y-109401688D01*
X132575776Y-109400020D01*
X132575780Y-109400020D01*
X132714681Y-109368207D01*
X132721968Y-109366538D01*
X132862625Y-109295795D01*
X132868306Y-109290943D01*
X132868309Y-109290941D01*
X132976666Y-109198395D01*
X132976667Y-109198394D01*
X132982348Y-109193542D01*
X132993393Y-109178172D01*
X133019237Y-109142205D01*
X133074224Y-109065683D01*
X133132950Y-108919598D01*
X133134793Y-108906649D01*
X133154562Y-108767744D01*
X133154562Y-108767740D01*
X133155134Y-108763723D01*
X133155278Y-108750000D01*
X133149033Y-108698395D01*
X133137262Y-108601119D01*
X133137261Y-108601115D01*
X133136363Y-108593694D01*
X133109489Y-108522573D01*
X133083354Y-108453408D01*
X133083352Y-108453405D01*
X133080710Y-108446412D01*
X133068174Y-108428172D01*
X132995768Y-108322821D01*
X132995765Y-108322818D01*
X132991531Y-108316657D01*
X132897520Y-108232896D01*
X132860561Y-108173602D01*
X132861525Y-108103739D01*
X132863901Y-108096783D01*
X132866122Y-108090859D01*
X132868851Y-108083580D01*
X132869703Y-108075744D01*
X132875137Y-108025714D01*
X132875500Y-108022377D01*
X132875500Y-108018972D01*
X133275000Y-108018972D01*
X133275363Y-108025669D01*
X133280803Y-108075744D01*
X133284371Y-108090753D01*
X133328817Y-108209311D01*
X133337212Y-108224646D01*
X133412516Y-108325124D01*
X133424876Y-108337484D01*
X133525354Y-108412788D01*
X133540689Y-108421183D01*
X133659247Y-108465629D01*
X133674256Y-108469197D01*
X133724331Y-108474637D01*
X133731028Y-108475000D01*
X133807170Y-108475000D01*
X133822169Y-108470596D01*
X133823356Y-108469226D01*
X133825000Y-108461668D01*
X133825000Y-107717830D01*
X133820596Y-107702831D01*
X133819226Y-107701644D01*
X133811668Y-107700000D01*
X133292830Y-107700000D01*
X133277831Y-107704404D01*
X133276644Y-107705774D01*
X133275000Y-107713332D01*
X133275000Y-108018972D01*
X132875500Y-108018972D01*
X132875499Y-107282170D01*
X133275000Y-107282170D01*
X133279404Y-107297169D01*
X133280774Y-107298356D01*
X133288332Y-107300000D01*
X133807170Y-107300000D01*
X133822169Y-107295596D01*
X133823356Y-107294226D01*
X133825000Y-107286668D01*
X133825000Y-106542830D01*
X133820596Y-106527831D01*
X133819226Y-106526644D01*
X133811668Y-106525000D01*
X133731028Y-106525000D01*
X133724331Y-106525363D01*
X133674256Y-106530803D01*
X133659247Y-106534371D01*
X133540689Y-106578817D01*
X133525354Y-106587212D01*
X133424876Y-106662516D01*
X133412516Y-106674876D01*
X133337212Y-106775354D01*
X133328817Y-106790689D01*
X133284371Y-106909247D01*
X133280803Y-106924256D01*
X133275363Y-106974331D01*
X133275000Y-106981028D01*
X133275000Y-107282170D01*
X132875499Y-107282170D01*
X132875499Y-106977624D01*
X132868851Y-106916420D01*
X132818526Y-106782176D01*
X132732546Y-106667454D01*
X132725481Y-106662159D01*
X132624891Y-106586770D01*
X132624889Y-106586769D01*
X132617824Y-106581474D01*
X132483580Y-106531149D01*
X132422377Y-106524500D01*
X132276543Y-106524500D01*
X131837967Y-106524501D01*
X131770928Y-106504817D01*
X131750286Y-106488182D01*
X130781075Y-105518972D01*
X131325000Y-105518972D01*
X131325363Y-105525669D01*
X131330803Y-105575744D01*
X131334371Y-105590753D01*
X131378817Y-105709311D01*
X131387212Y-105724646D01*
X131462516Y-105825124D01*
X131474876Y-105837484D01*
X131575354Y-105912788D01*
X131590689Y-105921183D01*
X131709247Y-105965629D01*
X131724256Y-105969197D01*
X131774331Y-105974637D01*
X131781028Y-105975000D01*
X131857170Y-105975000D01*
X131872169Y-105970596D01*
X131873356Y-105969226D01*
X131875000Y-105961668D01*
X131875000Y-105957170D01*
X132275000Y-105957170D01*
X132279404Y-105972169D01*
X132280774Y-105973356D01*
X132288332Y-105975000D01*
X132368972Y-105975000D01*
X132375669Y-105974637D01*
X132425744Y-105969197D01*
X132440753Y-105965629D01*
X132559311Y-105921183D01*
X132574646Y-105912788D01*
X132675124Y-105837484D01*
X132687484Y-105825124D01*
X132762788Y-105724646D01*
X132771183Y-105709311D01*
X132815629Y-105590753D01*
X132819197Y-105575744D01*
X132824637Y-105525669D01*
X132825000Y-105518972D01*
X132825000Y-105217830D01*
X132820596Y-105202831D01*
X132819226Y-105201644D01*
X132811668Y-105200000D01*
X132292830Y-105200000D01*
X132277831Y-105204404D01*
X132276644Y-105205774D01*
X132275000Y-105213332D01*
X132275000Y-105957170D01*
X131875000Y-105957170D01*
X131875000Y-105217830D01*
X131870596Y-105202831D01*
X131869226Y-105201644D01*
X131861668Y-105200000D01*
X131342830Y-105200000D01*
X131327831Y-105204404D01*
X131326644Y-105205774D01*
X131325000Y-105213332D01*
X131325000Y-105518972D01*
X130781075Y-105518972D01*
X130759819Y-105497716D01*
X130726334Y-105436393D01*
X130723500Y-105410035D01*
X130723500Y-104782170D01*
X131325000Y-104782170D01*
X131329404Y-104797169D01*
X131330774Y-104798356D01*
X131338332Y-104800000D01*
X131857170Y-104800000D01*
X131872169Y-104795596D01*
X131873356Y-104794226D01*
X131875000Y-104786668D01*
X131875000Y-104782170D01*
X132275000Y-104782170D01*
X132279404Y-104797169D01*
X132280774Y-104798356D01*
X132288332Y-104800000D01*
X132807170Y-104800000D01*
X132822169Y-104795596D01*
X132823356Y-104794226D01*
X132825000Y-104786668D01*
X132825000Y-104481028D01*
X132824637Y-104474331D01*
X132819197Y-104424256D01*
X132815629Y-104409247D01*
X132771183Y-104290689D01*
X132762788Y-104275354D01*
X132687484Y-104174876D01*
X132675121Y-104162513D01*
X132590677Y-104099226D01*
X132548836Y-104043269D01*
X132543890Y-103973575D01*
X132577409Y-103912270D01*
X132590677Y-103900774D01*
X132675121Y-103837487D01*
X132687484Y-103825124D01*
X132762788Y-103724646D01*
X132771183Y-103709311D01*
X132815629Y-103590753D01*
X132819197Y-103575744D01*
X132824637Y-103525669D01*
X132825000Y-103518972D01*
X132825000Y-103217830D01*
X132820596Y-103202831D01*
X132819226Y-103201644D01*
X132811668Y-103200000D01*
X132292830Y-103200000D01*
X132277831Y-103204404D01*
X132276644Y-103205774D01*
X132275000Y-103213332D01*
X132275000Y-103957173D01*
X132276225Y-103961345D01*
X132278414Y-104022638D01*
X132275000Y-104038332D01*
X132275000Y-104782170D01*
X131875000Y-104782170D01*
X131875000Y-104042827D01*
X131873775Y-104038655D01*
X131871586Y-103977362D01*
X131875000Y-103961668D01*
X131875000Y-103217830D01*
X131870596Y-103202831D01*
X131869226Y-103201644D01*
X131861668Y-103200000D01*
X131342830Y-103200000D01*
X131327831Y-103204404D01*
X131326644Y-103205774D01*
X131325000Y-103213332D01*
X131325000Y-103518972D01*
X131325363Y-103525669D01*
X131330803Y-103575744D01*
X131334371Y-103590753D01*
X131378817Y-103709311D01*
X131387212Y-103724646D01*
X131462516Y-103825124D01*
X131474879Y-103837487D01*
X131559323Y-103900774D01*
X131601164Y-103956731D01*
X131606110Y-104026425D01*
X131572591Y-104087730D01*
X131559323Y-104099226D01*
X131474879Y-104162513D01*
X131462516Y-104174876D01*
X131387212Y-104275354D01*
X131378817Y-104290689D01*
X131334371Y-104409247D01*
X131330803Y-104424256D01*
X131325363Y-104474331D01*
X131325000Y-104481028D01*
X131325000Y-104782170D01*
X130723500Y-104782170D01*
X130723500Y-102782170D01*
X131325000Y-102782170D01*
X131329404Y-102797169D01*
X131330774Y-102798356D01*
X131338332Y-102800000D01*
X131857170Y-102800000D01*
X131872169Y-102795596D01*
X131873356Y-102794226D01*
X131875000Y-102786668D01*
X131875000Y-102782170D01*
X132275000Y-102782170D01*
X132279404Y-102797169D01*
X132280774Y-102798356D01*
X132288332Y-102800000D01*
X132807170Y-102800000D01*
X132822169Y-102795596D01*
X132823356Y-102794226D01*
X132825000Y-102786668D01*
X132825000Y-102481028D01*
X132824637Y-102474331D01*
X132819197Y-102424256D01*
X132815629Y-102409247D01*
X132771183Y-102290689D01*
X132762788Y-102275354D01*
X132687484Y-102174876D01*
X132675124Y-102162516D01*
X132574646Y-102087212D01*
X132559311Y-102078817D01*
X132440753Y-102034371D01*
X132425744Y-102030803D01*
X132375669Y-102025363D01*
X132368972Y-102025000D01*
X132292830Y-102025000D01*
X132277831Y-102029404D01*
X132276644Y-102030774D01*
X132275000Y-102038332D01*
X132275000Y-102782170D01*
X131875000Y-102782170D01*
X131875000Y-102042830D01*
X131870596Y-102027831D01*
X131869226Y-102026644D01*
X131861668Y-102025000D01*
X131781028Y-102025000D01*
X131774331Y-102025363D01*
X131724256Y-102030803D01*
X131709247Y-102034371D01*
X131590689Y-102078817D01*
X131575354Y-102087212D01*
X131474876Y-102162516D01*
X131462516Y-102174876D01*
X131387212Y-102275354D01*
X131378817Y-102290689D01*
X131334371Y-102409247D01*
X131330803Y-102424256D01*
X131325363Y-102474331D01*
X131325000Y-102481028D01*
X131325000Y-102782170D01*
X130723500Y-102782170D01*
X130723500Y-101557103D01*
X130724359Y-101542529D01*
X130727275Y-101517895D01*
X130727275Y-101517892D01*
X130728364Y-101508690D01*
X130717824Y-101450978D01*
X130717184Y-101447136D01*
X130709827Y-101398204D01*
X130708449Y-101389038D01*
X130705905Y-101383741D01*
X130704472Y-101377874D01*
X130704026Y-101375432D01*
X130704914Y-101375270D01*
X130700500Y-101348749D01*
X130700500Y-101034102D01*
X130701359Y-101019528D01*
X130704275Y-100994894D01*
X130704275Y-100994891D01*
X130705364Y-100985689D01*
X130694821Y-100927962D01*
X130694181Y-100924121D01*
X130686827Y-100875205D01*
X130685449Y-100866038D01*
X130682321Y-100859525D01*
X130681025Y-100852427D01*
X130656791Y-100805774D01*
X130653964Y-100800331D01*
X130652224Y-100796848D01*
X130626809Y-100743921D01*
X130621982Y-100738699D01*
X130621839Y-100738486D01*
X130618579Y-100732211D01*
X130614275Y-100727172D01*
X130577006Y-100689903D01*
X130573631Y-100686393D01*
X130541147Y-100651251D01*
X130541144Y-100651249D01*
X130534854Y-100644444D01*
X130528516Y-100640763D01*
X130522275Y-100635172D01*
X128255631Y-98368528D01*
X130100000Y-98368528D01*
X130101190Y-98380604D01*
X130112122Y-98435567D01*
X130121290Y-98457699D01*
X130162976Y-98520087D01*
X130179913Y-98537024D01*
X130242301Y-98578710D01*
X130264433Y-98587878D01*
X130319396Y-98598810D01*
X130331472Y-98600000D01*
X130982170Y-98600000D01*
X130997169Y-98595596D01*
X130998356Y-98594226D01*
X131000000Y-98586668D01*
X131000000Y-98582170D01*
X131400000Y-98582170D01*
X131404404Y-98597169D01*
X131405774Y-98598356D01*
X131413332Y-98600000D01*
X132068528Y-98600000D01*
X132080604Y-98598810D01*
X132135567Y-98587878D01*
X132157699Y-98578710D01*
X132220087Y-98537024D01*
X132237024Y-98520087D01*
X132278710Y-98457699D01*
X132287878Y-98435567D01*
X132298810Y-98380604D01*
X132300000Y-98368528D01*
X132300000Y-97717830D01*
X132295596Y-97702831D01*
X132294226Y-97701644D01*
X132286668Y-97700000D01*
X131417830Y-97700000D01*
X131402831Y-97704404D01*
X131401644Y-97705774D01*
X131400000Y-97713332D01*
X131400000Y-98582170D01*
X131000000Y-98582170D01*
X131000000Y-97717830D01*
X130995596Y-97702831D01*
X130994226Y-97701644D01*
X130986668Y-97700000D01*
X130117830Y-97700000D01*
X130102831Y-97704404D01*
X130101644Y-97705774D01*
X130100000Y-97713332D01*
X130100000Y-98368528D01*
X128255631Y-98368528D01*
X128188057Y-98300954D01*
X128154572Y-98239631D01*
X128152636Y-98228170D01*
X128151859Y-98221744D01*
X128140273Y-98126001D01*
X128137262Y-98101119D01*
X128137261Y-98101115D01*
X128136363Y-98093694D01*
X128106428Y-98014472D01*
X128083354Y-97953408D01*
X128083352Y-97953405D01*
X128080710Y-97946412D01*
X128049020Y-97900303D01*
X127995768Y-97822821D01*
X127995765Y-97822818D01*
X127991531Y-97816657D01*
X127915916Y-97749286D01*
X127879559Y-97716893D01*
X127879558Y-97716892D01*
X127873976Y-97711919D01*
X127734831Y-97638245D01*
X127582128Y-97599889D01*
X127500329Y-97599461D01*
X127432158Y-97599104D01*
X127432157Y-97599104D01*
X127424684Y-97599065D01*
X127417417Y-97600810D01*
X127409989Y-97601669D01*
X127409771Y-97599784D01*
X127373021Y-97600574D01*
X127371270Y-97600020D01*
X127364663Y-97599500D01*
X127311932Y-97599500D01*
X127307063Y-97599404D01*
X127259273Y-97597526D01*
X127259272Y-97597526D01*
X127250006Y-97597162D01*
X127242922Y-97599040D01*
X127234562Y-97599500D01*
X127012273Y-97599500D01*
X126945234Y-97579815D01*
X126913047Y-97549866D01*
X126875675Y-97500000D01*
X126853992Y-97471069D01*
X132635164Y-97471069D01*
X132635535Y-97476731D01*
X132635535Y-97476735D01*
X132640808Y-97557176D01*
X132648392Y-97672894D01*
X132698178Y-97868928D01*
X132700554Y-97874082D01*
X132771440Y-98027843D01*
X132782856Y-98052607D01*
X132899588Y-98217780D01*
X133044466Y-98358913D01*
X133212637Y-98471282D01*
X133398470Y-98551122D01*
X133494502Y-98572852D01*
X133590193Y-98594505D01*
X133590195Y-98594505D01*
X133595740Y-98595760D01*
X133713135Y-98600372D01*
X133792161Y-98603477D01*
X133792163Y-98603477D01*
X133797842Y-98603700D01*
X133803462Y-98602885D01*
X133803465Y-98602885D01*
X133992387Y-98575493D01*
X133992389Y-98575493D01*
X133998007Y-98574678D01*
X134003384Y-98572853D01*
X134003387Y-98572852D01*
X134164632Y-98518116D01*
X134234441Y-98515206D01*
X134292172Y-98547854D01*
X135459181Y-99714863D01*
X135492666Y-99776186D01*
X135495500Y-99802544D01*
X135495500Y-104280588D01*
X135475815Y-104347627D01*
X135423011Y-104393382D01*
X135353853Y-104403326D01*
X135323764Y-104393525D01*
X135323419Y-104394423D01*
X135316439Y-104391744D01*
X135309831Y-104388245D01*
X135157128Y-104349889D01*
X135075329Y-104349461D01*
X135007158Y-104349104D01*
X135007157Y-104349104D01*
X134999684Y-104349065D01*
X134992421Y-104350809D01*
X134992418Y-104350809D01*
X134923136Y-104367442D01*
X134846588Y-104385820D01*
X134840421Y-104389003D01*
X134770950Y-104393905D01*
X134709659Y-104360361D01*
X134681316Y-104316291D01*
X134671629Y-104290451D01*
X134671626Y-104290445D01*
X134668526Y-104282176D01*
X134619089Y-104216212D01*
X134587841Y-104174519D01*
X134582546Y-104167454D01*
X134491510Y-104099226D01*
X134449670Y-104043269D01*
X134444725Y-103973574D01*
X134478244Y-103912270D01*
X134491510Y-103900774D01*
X134503558Y-103891745D01*
X134582546Y-103832546D01*
X134588109Y-103825124D01*
X134663230Y-103724891D01*
X134663231Y-103724889D01*
X134668526Y-103717824D01*
X134718851Y-103583580D01*
X134725500Y-103522377D01*
X134725499Y-102477624D01*
X134718851Y-102416420D01*
X134673043Y-102294226D01*
X134671626Y-102290445D01*
X134671626Y-102290444D01*
X134668526Y-102282176D01*
X134646258Y-102252463D01*
X134587841Y-102174519D01*
X134582546Y-102167454D01*
X134559419Y-102150121D01*
X134474891Y-102086770D01*
X134474889Y-102086769D01*
X134467824Y-102081474D01*
X134333580Y-102031149D01*
X134272377Y-102024500D01*
X133975045Y-102024500D01*
X133677624Y-102024501D01*
X133616420Y-102031149D01*
X133482176Y-102081474D01*
X133475111Y-102086769D01*
X133475109Y-102086770D01*
X133390581Y-102150121D01*
X133367454Y-102167454D01*
X133362159Y-102174519D01*
X133303743Y-102252463D01*
X133281474Y-102282176D01*
X133278374Y-102290444D01*
X133278374Y-102290445D01*
X133276957Y-102294226D01*
X133231149Y-102416420D01*
X133224500Y-102477623D01*
X133224501Y-103522376D01*
X133231149Y-103583580D01*
X133281474Y-103717824D01*
X133286769Y-103724889D01*
X133286770Y-103724891D01*
X133361891Y-103825124D01*
X133367454Y-103832546D01*
X133446443Y-103891745D01*
X133458490Y-103900774D01*
X133500330Y-103956731D01*
X133505275Y-104026426D01*
X133471756Y-104087730D01*
X133458492Y-104099225D01*
X133367454Y-104167454D01*
X133362159Y-104174519D01*
X133330912Y-104216212D01*
X133281474Y-104282176D01*
X133231149Y-104416420D01*
X133224500Y-104477623D01*
X133224501Y-105522376D01*
X133231149Y-105583580D01*
X133281474Y-105717824D01*
X133286769Y-105724889D01*
X133286770Y-105724891D01*
X133333451Y-105787176D01*
X133367454Y-105832546D01*
X133374519Y-105837841D01*
X133475109Y-105913230D01*
X133475111Y-105913231D01*
X133482176Y-105918526D01*
X133616420Y-105968851D01*
X133677623Y-105975500D01*
X133974955Y-105975500D01*
X134272376Y-105975499D01*
X134333580Y-105968851D01*
X134342175Y-105965629D01*
X134354305Y-105961082D01*
X134423988Y-105955981D01*
X134485367Y-105989363D01*
X134518955Y-106050630D01*
X134520392Y-106082467D01*
X134520456Y-106082464D01*
X134522404Y-106132045D01*
X134522500Y-106136913D01*
X134522500Y-106408756D01*
X134502815Y-106475795D01*
X134450011Y-106521550D01*
X134383530Y-106531109D01*
X134383472Y-106531642D01*
X134381394Y-106531416D01*
X134380853Y-106531494D01*
X134379183Y-106531176D01*
X134325669Y-106525363D01*
X134318972Y-106525000D01*
X134242830Y-106525000D01*
X134227831Y-106529404D01*
X134226644Y-106530774D01*
X134225000Y-106538332D01*
X134225000Y-108457170D01*
X134229404Y-108472169D01*
X134230774Y-108473356D01*
X134238332Y-108475000D01*
X134318972Y-108475000D01*
X134325669Y-108474637D01*
X134383472Y-108468358D01*
X134383796Y-108471337D01*
X134439590Y-108474250D01*
X134496319Y-108515037D01*
X134521991Y-108580020D01*
X134522500Y-108591244D01*
X134522500Y-109008849D01*
X134499950Y-109080149D01*
X134422501Y-109190348D01*
X134419785Y-109197313D01*
X134419785Y-109197314D01*
X134410758Y-109220467D01*
X134365309Y-109337039D01*
X134344758Y-109493138D01*
X134345578Y-109500566D01*
X134345578Y-109500568D01*
X134356761Y-109601857D01*
X134362035Y-109649633D01*
X134364601Y-109656645D01*
X134364602Y-109656649D01*
X134391523Y-109730213D01*
X134416143Y-109797490D01*
X134503958Y-109928172D01*
X134526183Y-109948395D01*
X134614878Y-110029102D01*
X134614882Y-110029105D01*
X134620410Y-110034135D01*
X134758776Y-110109262D01*
X134848857Y-110132894D01*
X134903841Y-110147319D01*
X134903843Y-110147319D01*
X134911069Y-110149215D01*
X134988127Y-110150425D01*
X135061025Y-110151571D01*
X135061028Y-110151571D01*
X135068495Y-110151688D01*
X135075776Y-110150020D01*
X135075780Y-110150020D01*
X135214681Y-110118207D01*
X135221968Y-110116538D01*
X135362625Y-110045795D01*
X135368306Y-110040943D01*
X135368309Y-110040941D01*
X135476666Y-109948395D01*
X135476667Y-109948394D01*
X135482348Y-109943542D01*
X135487240Y-109936735D01*
X135513798Y-109899775D01*
X135574224Y-109815683D01*
X135632950Y-109669598D01*
X135634009Y-109662156D01*
X135654562Y-109517744D01*
X135654562Y-109517740D01*
X135655134Y-109513723D01*
X135655278Y-109500000D01*
X135643082Y-109399215D01*
X135637262Y-109351119D01*
X135637261Y-109351115D01*
X135636363Y-109343694D01*
X135623159Y-109308750D01*
X135583354Y-109203408D01*
X135583352Y-109203405D01*
X135580710Y-109196412D01*
X135568174Y-109178172D01*
X135507385Y-109089724D01*
X135485635Y-109023325D01*
X135503236Y-108955709D01*
X135554600Y-108908342D01*
X135581889Y-108898620D01*
X135663281Y-108879979D01*
X135714682Y-108868207D01*
X135714684Y-108868206D01*
X135721968Y-108866538D01*
X135862625Y-108795795D01*
X135868306Y-108790943D01*
X135868309Y-108790941D01*
X135976666Y-108698395D01*
X135976667Y-108698394D01*
X135982348Y-108693542D01*
X135988417Y-108685097D01*
X136023421Y-108636383D01*
X136074224Y-108565683D01*
X136132950Y-108419598D01*
X136135937Y-108398612D01*
X136154562Y-108267744D01*
X136154562Y-108267740D01*
X136155134Y-108263723D01*
X136155278Y-108250000D01*
X136153208Y-108232896D01*
X136137262Y-108101119D01*
X136137261Y-108101115D01*
X136136363Y-108093694D01*
X136108128Y-108018972D01*
X136800000Y-108018972D01*
X136800363Y-108025669D01*
X136805803Y-108075744D01*
X136809371Y-108090753D01*
X136853817Y-108209311D01*
X136862212Y-108224646D01*
X136937516Y-108325124D01*
X136949876Y-108337484D01*
X137050354Y-108412788D01*
X137065689Y-108421183D01*
X137184247Y-108465629D01*
X137199256Y-108469197D01*
X137249331Y-108474637D01*
X137256028Y-108475000D01*
X137332170Y-108475000D01*
X137347169Y-108470596D01*
X137348356Y-108469226D01*
X137350000Y-108461668D01*
X137350000Y-108457170D01*
X137750000Y-108457170D01*
X137754404Y-108472169D01*
X137755774Y-108473356D01*
X137763332Y-108475000D01*
X137843972Y-108475000D01*
X137850669Y-108474637D01*
X137900744Y-108469197D01*
X137915753Y-108465629D01*
X138034311Y-108421183D01*
X138049646Y-108412788D01*
X138150124Y-108337484D01*
X138162484Y-108325124D01*
X138237788Y-108224646D01*
X138246183Y-108209311D01*
X138290629Y-108090753D01*
X138294197Y-108075744D01*
X138299637Y-108025669D01*
X138300000Y-108018972D01*
X138300000Y-107717830D01*
X138295596Y-107702831D01*
X138294226Y-107701644D01*
X138286668Y-107700000D01*
X137767830Y-107700000D01*
X137752831Y-107704404D01*
X137751644Y-107705774D01*
X137750000Y-107713332D01*
X137750000Y-108457170D01*
X137350000Y-108457170D01*
X137350000Y-107717830D01*
X137345596Y-107702831D01*
X137344226Y-107701644D01*
X137336668Y-107700000D01*
X136817830Y-107700000D01*
X136802831Y-107704404D01*
X136801644Y-107705774D01*
X136800000Y-107713332D01*
X136800000Y-108018972D01*
X136108128Y-108018972D01*
X136080710Y-107946412D01*
X136076473Y-107940247D01*
X135995768Y-107822821D01*
X135995765Y-107822818D01*
X135991531Y-107816657D01*
X135945251Y-107775423D01*
X135879559Y-107716893D01*
X135879558Y-107716892D01*
X135873976Y-107711919D01*
X135867374Y-107708423D01*
X135867369Y-107708420D01*
X135789476Y-107667178D01*
X135739440Y-107618411D01*
X135723500Y-107557591D01*
X135723500Y-107282170D01*
X136800000Y-107282170D01*
X136804404Y-107297169D01*
X136805774Y-107298356D01*
X136813332Y-107300000D01*
X137332170Y-107300000D01*
X137347169Y-107295596D01*
X137348356Y-107294226D01*
X137350000Y-107286668D01*
X137350000Y-107282170D01*
X137750000Y-107282170D01*
X137754404Y-107297169D01*
X137755774Y-107298356D01*
X137763332Y-107300000D01*
X138282170Y-107300000D01*
X138297169Y-107295596D01*
X138298356Y-107294226D01*
X138300000Y-107286668D01*
X138300000Y-106981028D01*
X138299637Y-106974331D01*
X138294197Y-106924256D01*
X138290629Y-106909247D01*
X138246183Y-106790689D01*
X138237788Y-106775354D01*
X138162484Y-106674876D01*
X138150124Y-106662516D01*
X138049646Y-106587212D01*
X138034311Y-106578817D01*
X137915753Y-106534371D01*
X137900744Y-106530803D01*
X137850669Y-106525363D01*
X137843972Y-106525000D01*
X137767830Y-106525000D01*
X137752831Y-106529404D01*
X137751644Y-106530774D01*
X137750000Y-106538332D01*
X137750000Y-107282170D01*
X137350000Y-107282170D01*
X137350000Y-106542830D01*
X137345596Y-106527831D01*
X137344226Y-106526644D01*
X137336668Y-106525000D01*
X137256028Y-106525000D01*
X137249331Y-106525363D01*
X137199256Y-106530803D01*
X137184247Y-106534371D01*
X137065689Y-106578817D01*
X137050354Y-106587212D01*
X136949876Y-106662516D01*
X136937516Y-106674876D01*
X136862212Y-106775354D01*
X136853817Y-106790689D01*
X136809371Y-106909247D01*
X136805803Y-106924256D01*
X136800363Y-106974331D01*
X136800000Y-106981028D01*
X136800000Y-107282170D01*
X135723500Y-107282170D01*
X135723500Y-107260734D01*
X135743185Y-107193695D01*
X135795989Y-107147940D01*
X135865147Y-107137996D01*
X135878966Y-107140793D01*
X135903841Y-107147319D01*
X135903843Y-107147319D01*
X135911069Y-107149215D01*
X135988127Y-107150425D01*
X136061025Y-107151571D01*
X136061028Y-107151571D01*
X136068495Y-107151688D01*
X136075776Y-107150020D01*
X136075780Y-107150020D01*
X136214681Y-107118207D01*
X136221968Y-107116538D01*
X136362625Y-107045795D01*
X136368306Y-107040943D01*
X136368309Y-107040941D01*
X136476666Y-106948395D01*
X136476667Y-106948394D01*
X136482348Y-106943542D01*
X136496207Y-106924256D01*
X136513798Y-106899775D01*
X136574224Y-106815683D01*
X136632950Y-106669598D01*
X136649769Y-106551421D01*
X136654562Y-106517744D01*
X136654562Y-106517740D01*
X136655134Y-106513723D01*
X136655278Y-106500000D01*
X136645299Y-106417538D01*
X136656787Y-106348622D01*
X136680720Y-106314962D01*
X136712050Y-106283632D01*
X136727504Y-106271150D01*
X136730545Y-106268383D01*
X136739152Y-106262825D01*
X136758076Y-106238820D01*
X136761601Y-106234853D01*
X136761505Y-106234772D01*
X136764814Y-106230867D01*
X136768428Y-106227253D01*
X136771397Y-106223099D01*
X136771400Y-106223095D01*
X136778686Y-106212899D01*
X136782192Y-106208229D01*
X136805044Y-106179241D01*
X136811392Y-106171189D01*
X136814193Y-106163213D01*
X136819111Y-106156331D01*
X136825644Y-106134488D01*
X136832621Y-106111156D01*
X136834427Y-106105597D01*
X136847471Y-106068453D01*
X136847471Y-106068451D01*
X136850055Y-106061094D01*
X136850500Y-106055956D01*
X136850500Y-106053274D01*
X136850596Y-106051050D01*
X136850727Y-106050612D01*
X136850781Y-106050614D01*
X136850796Y-106050383D01*
X136852544Y-106044536D01*
X136850667Y-105996749D01*
X136850596Y-105994955D01*
X136850500Y-105990087D01*
X136850500Y-105899970D01*
X136870185Y-105832931D01*
X136922989Y-105787176D01*
X136992147Y-105777232D01*
X137055703Y-105806257D01*
X137062181Y-105812289D01*
X137062376Y-105812484D01*
X137162854Y-105887788D01*
X137178189Y-105896183D01*
X137296747Y-105940629D01*
X137311756Y-105944197D01*
X137361831Y-105949637D01*
X137368528Y-105950000D01*
X137457170Y-105950000D01*
X137472169Y-105945596D01*
X137473356Y-105944226D01*
X137475000Y-105936668D01*
X137475000Y-105932170D01*
X137875000Y-105932170D01*
X137879404Y-105947169D01*
X137880774Y-105948356D01*
X137888332Y-105950000D01*
X137981472Y-105950000D01*
X137988169Y-105949637D01*
X138038244Y-105944197D01*
X138053253Y-105940629D01*
X138171811Y-105896183D01*
X138187146Y-105887788D01*
X138287624Y-105812484D01*
X138299984Y-105800124D01*
X138375288Y-105699646D01*
X138383683Y-105684311D01*
X138428129Y-105565753D01*
X138431697Y-105550744D01*
X138437137Y-105500669D01*
X138437500Y-105493972D01*
X138437500Y-105217830D01*
X138433096Y-105202831D01*
X138431726Y-105201644D01*
X138424168Y-105200000D01*
X137892830Y-105200000D01*
X137877831Y-105204404D01*
X137876644Y-105205774D01*
X137875000Y-105213332D01*
X137875000Y-105932170D01*
X137475000Y-105932170D01*
X137475000Y-104782170D01*
X137875000Y-104782170D01*
X137879404Y-104797169D01*
X137880774Y-104798356D01*
X137888332Y-104800000D01*
X138419670Y-104800000D01*
X138434669Y-104795596D01*
X138435856Y-104794226D01*
X138437500Y-104786668D01*
X138437500Y-104506028D01*
X138437137Y-104499331D01*
X138431697Y-104449256D01*
X138428129Y-104434247D01*
X138383683Y-104315689D01*
X138375288Y-104300354D01*
X138299984Y-104199876D01*
X138287624Y-104187516D01*
X138187146Y-104112212D01*
X138171811Y-104103817D01*
X138053253Y-104059371D01*
X138038244Y-104055803D01*
X137988169Y-104050363D01*
X137981472Y-104050000D01*
X137892830Y-104050000D01*
X137877831Y-104054404D01*
X137876644Y-104055774D01*
X137875000Y-104063332D01*
X137875000Y-104782170D01*
X137475000Y-104782170D01*
X137475000Y-104067830D01*
X137470596Y-104052831D01*
X137469226Y-104051644D01*
X137461668Y-104050000D01*
X137368528Y-104050000D01*
X137361831Y-104050363D01*
X137311756Y-104055803D01*
X137296747Y-104059371D01*
X137178189Y-104103817D01*
X137162854Y-104112212D01*
X137062376Y-104187516D01*
X137062181Y-104187711D01*
X137061941Y-104187842D01*
X137055311Y-104192811D01*
X137054594Y-104191854D01*
X137000858Y-104221196D01*
X136931166Y-104216212D01*
X136875233Y-104174340D01*
X136850816Y-104108876D01*
X136850500Y-104100030D01*
X136850500Y-99731544D01*
X136870185Y-99664505D01*
X136886819Y-99643863D01*
X138080864Y-98449818D01*
X138142187Y-98416333D01*
X138211879Y-98421317D01*
X138237435Y-98434397D01*
X138292637Y-98471282D01*
X138478470Y-98551122D01*
X138574502Y-98572852D01*
X138670193Y-98594505D01*
X138670195Y-98594505D01*
X138675740Y-98595760D01*
X138793135Y-98600372D01*
X138872161Y-98603477D01*
X138872163Y-98603477D01*
X138877842Y-98603700D01*
X138883462Y-98602885D01*
X138883465Y-98602885D01*
X139072387Y-98575493D01*
X139072389Y-98575493D01*
X139078007Y-98574678D01*
X139083384Y-98572853D01*
X139083387Y-98572852D01*
X139196205Y-98534555D01*
X139269531Y-98509664D01*
X139401842Y-98435567D01*
X139441048Y-98413611D01*
X139441050Y-98413610D01*
X139446001Y-98410837D01*
X139508433Y-98358913D01*
X139597138Y-98285137D01*
X139601505Y-98281505D01*
X139636331Y-98239631D01*
X139727206Y-98130367D01*
X139727207Y-98130366D01*
X139730837Y-98126001D01*
X139744772Y-98101119D01*
X139826886Y-97954491D01*
X139829664Y-97949531D01*
X139869279Y-97832831D01*
X139892852Y-97763387D01*
X139892853Y-97763384D01*
X139894678Y-97758007D01*
X139895493Y-97752387D01*
X139923176Y-97561458D01*
X139923176Y-97561453D01*
X139923700Y-97557842D01*
X139925215Y-97500000D01*
X139906708Y-97298591D01*
X139851807Y-97103926D01*
X139762351Y-96922527D01*
X139641335Y-96760467D01*
X139492812Y-96623174D01*
X139460762Y-96602952D01*
X139326566Y-96518280D01*
X139326564Y-96518279D01*
X139321757Y-96515246D01*
X139133898Y-96440298D01*
X139128317Y-96439188D01*
X139128314Y-96439187D01*
X139038339Y-96421290D01*
X138935526Y-96400839D01*
X138929839Y-96400765D01*
X138929834Y-96400764D01*
X138738975Y-96398266D01*
X138738970Y-96398266D01*
X138733286Y-96398192D01*
X138727682Y-96399155D01*
X138727681Y-96399155D01*
X138539546Y-96431482D01*
X138539543Y-96431483D01*
X138533949Y-96432444D01*
X138512660Y-96440298D01*
X138349521Y-96500483D01*
X138349517Y-96500485D01*
X138344193Y-96502449D01*
X138339310Y-96505354D01*
X138339308Y-96505355D01*
X138240007Y-96564433D01*
X138170371Y-96605862D01*
X138018305Y-96739220D01*
X137893089Y-96898057D01*
X137798914Y-97077053D01*
X137797229Y-97082479D01*
X137797228Y-97082482D01*
X137790744Y-97103365D01*
X137738937Y-97270213D01*
X137715164Y-97471069D01*
X137715535Y-97476731D01*
X137715535Y-97476735D01*
X137720808Y-97557176D01*
X137728392Y-97672894D01*
X137729790Y-97678398D01*
X137738991Y-97714627D01*
X137736414Y-97784449D01*
X137706487Y-97832831D01*
X137511475Y-98027843D01*
X137450152Y-98061328D01*
X137380460Y-98056344D01*
X137324527Y-98014472D01*
X137300110Y-97949008D01*
X137306375Y-97900303D01*
X137352852Y-97763387D01*
X137352853Y-97763384D01*
X137354678Y-97758007D01*
X137355493Y-97752387D01*
X137383176Y-97561458D01*
X137383176Y-97561453D01*
X137383700Y-97557842D01*
X137385215Y-97500000D01*
X137366708Y-97298591D01*
X137311807Y-97103926D01*
X137222351Y-96922527D01*
X137101335Y-96760467D01*
X136952812Y-96623174D01*
X136920762Y-96602952D01*
X136786566Y-96518280D01*
X136786564Y-96518279D01*
X136781757Y-96515246D01*
X136593898Y-96440298D01*
X136588317Y-96439188D01*
X136588314Y-96439187D01*
X136498339Y-96421290D01*
X136395526Y-96400839D01*
X136389839Y-96400765D01*
X136389834Y-96400764D01*
X136198975Y-96398266D01*
X136198970Y-96398266D01*
X136193286Y-96398192D01*
X136187682Y-96399155D01*
X136187681Y-96399155D01*
X135999546Y-96431482D01*
X135999543Y-96431483D01*
X135993949Y-96432444D01*
X135972660Y-96440298D01*
X135809521Y-96500483D01*
X135809517Y-96500485D01*
X135804193Y-96502449D01*
X135799310Y-96505354D01*
X135799308Y-96505355D01*
X135700007Y-96564433D01*
X135630371Y-96605862D01*
X135478305Y-96739220D01*
X135353089Y-96898057D01*
X135258914Y-97077053D01*
X135257229Y-97082479D01*
X135257228Y-97082482D01*
X135250744Y-97103365D01*
X135198937Y-97270213D01*
X135175164Y-97471069D01*
X135175535Y-97476731D01*
X135175535Y-97476735D01*
X135180808Y-97557176D01*
X135188392Y-97672894D01*
X135238178Y-97868928D01*
X135240554Y-97874082D01*
X135311440Y-98027843D01*
X135322856Y-98052607D01*
X135439588Y-98217780D01*
X135584466Y-98358913D01*
X135662175Y-98410837D01*
X135747907Y-98468122D01*
X135747911Y-98468124D01*
X135752637Y-98471282D01*
X135757708Y-98473460D01*
X135807191Y-98522711D01*
X135822500Y-98582395D01*
X135822500Y-98787456D01*
X135802815Y-98854495D01*
X135750011Y-98900250D01*
X135680853Y-98910194D01*
X135617297Y-98881169D01*
X135610819Y-98875137D01*
X134787854Y-98052172D01*
X134754369Y-97990849D01*
X134758116Y-97924632D01*
X134764497Y-97905836D01*
X134789279Y-97832831D01*
X134812852Y-97763387D01*
X134812853Y-97763384D01*
X134814678Y-97758007D01*
X134815493Y-97752387D01*
X134843176Y-97561458D01*
X134843176Y-97561453D01*
X134843700Y-97557842D01*
X134845215Y-97500000D01*
X134826708Y-97298591D01*
X134771807Y-97103926D01*
X134682351Y-96922527D01*
X134561335Y-96760467D01*
X134412812Y-96623174D01*
X134380762Y-96602952D01*
X134246566Y-96518280D01*
X134246564Y-96518279D01*
X134241757Y-96515246D01*
X134053898Y-96440298D01*
X134048317Y-96439188D01*
X134048314Y-96439187D01*
X133958339Y-96421290D01*
X133855526Y-96400839D01*
X133849839Y-96400765D01*
X133849834Y-96400764D01*
X133658975Y-96398266D01*
X133658970Y-96398266D01*
X133653286Y-96398192D01*
X133647682Y-96399155D01*
X133647681Y-96399155D01*
X133459546Y-96431482D01*
X133459543Y-96431483D01*
X133453949Y-96432444D01*
X133432660Y-96440298D01*
X133269521Y-96500483D01*
X133269517Y-96500485D01*
X133264193Y-96502449D01*
X133259310Y-96505354D01*
X133259308Y-96505355D01*
X133160007Y-96564433D01*
X133090371Y-96605862D01*
X132938305Y-96739220D01*
X132813089Y-96898057D01*
X132718914Y-97077053D01*
X132717229Y-97082479D01*
X132717228Y-97082482D01*
X132710744Y-97103365D01*
X132658937Y-97270213D01*
X132635164Y-97471069D01*
X126853992Y-97471069D01*
X126832546Y-97442454D01*
X126825481Y-97437159D01*
X126724891Y-97361770D01*
X126724889Y-97361769D01*
X126717824Y-97356474D01*
X126583580Y-97306149D01*
X126522377Y-97299500D01*
X126000078Y-97299500D01*
X125477624Y-97299501D01*
X125416420Y-97306149D01*
X125282176Y-97356474D01*
X125275111Y-97361769D01*
X125275109Y-97361770D01*
X125174519Y-97437159D01*
X125167454Y-97442454D01*
X125162159Y-97449519D01*
X125086953Y-97549866D01*
X125081474Y-97557176D01*
X125031149Y-97691420D01*
X125024500Y-97752623D01*
X115468827Y-97752623D01*
X115522825Y-97601710D01*
X115533859Y-97570872D01*
X115538515Y-97559630D01*
X115669743Y-97282170D01*
X130100000Y-97282170D01*
X130104404Y-97297169D01*
X130105774Y-97298356D01*
X130113332Y-97300000D01*
X130982170Y-97300000D01*
X130997169Y-97295596D01*
X130998356Y-97294226D01*
X131000000Y-97286668D01*
X131000000Y-97282170D01*
X131400000Y-97282170D01*
X131404404Y-97297169D01*
X131405774Y-97298356D01*
X131413332Y-97300000D01*
X132282170Y-97300000D01*
X132297169Y-97295596D01*
X132298356Y-97294226D01*
X132300000Y-97286668D01*
X132300000Y-96631472D01*
X132298810Y-96619396D01*
X132287878Y-96564433D01*
X132278710Y-96542301D01*
X132237024Y-96479913D01*
X132220087Y-96462976D01*
X132157699Y-96421290D01*
X132135567Y-96412122D01*
X132080604Y-96401190D01*
X132068528Y-96400000D01*
X131417830Y-96400000D01*
X131402831Y-96404404D01*
X131401644Y-96405774D01*
X131400000Y-96413332D01*
X131400000Y-97282170D01*
X131000000Y-97282170D01*
X131000000Y-96417830D01*
X130995596Y-96402831D01*
X130994226Y-96401644D01*
X130986668Y-96400000D01*
X130331472Y-96400000D01*
X130319396Y-96401190D01*
X130264433Y-96412122D01*
X130242301Y-96421290D01*
X130179913Y-96462976D01*
X130162976Y-96479913D01*
X130121290Y-96542301D01*
X130112122Y-96564433D01*
X130101190Y-96619396D01*
X130100000Y-96631472D01*
X130100000Y-97282170D01*
X115669743Y-97282170D01*
X115690634Y-97238000D01*
X115696371Y-97227268D01*
X115879271Y-96922118D01*
X115886031Y-96912000D01*
X116097972Y-96626230D01*
X116105692Y-96616824D01*
X116344612Y-96353217D01*
X116353217Y-96344612D01*
X116616824Y-96105692D01*
X116626230Y-96097972D01*
X116912000Y-95886031D01*
X116922118Y-95879271D01*
X117227268Y-95696371D01*
X117238000Y-95690634D01*
X117559630Y-95538515D01*
X117570872Y-95533859D01*
X117675963Y-95496257D01*
X117905846Y-95414003D01*
X117917479Y-95410474D01*
X118262606Y-95324025D01*
X118274525Y-95321654D01*
X118626460Y-95269449D01*
X118638563Y-95268256D01*
X118964942Y-95252222D01*
X118975815Y-95253025D01*
X118988020Y-95253025D01*
X119000000Y-95255408D01*
X119011980Y-95253025D01*
X119012694Y-95252883D01*
X119036885Y-95250500D01*
X141126000Y-95250500D01*
X141193039Y-95270185D01*
G37*
G04 #@! TD.AperFunction*
M02*
