G04 #@! TF.GenerationSoftware,KiCad,Pcbnew,(6.0.7)*
G04 #@! TF.CreationDate,2022-11-19T14:13:10-06:00*
G04 #@! TF.ProjectId,BPS-Amperes,4250532d-416d-4706-9572-65732e6b6963,rev?*
G04 #@! TF.SameCoordinates,Original*
G04 #@! TF.FileFunction,Legend,Top*
G04 #@! TF.FilePolarity,Positive*
%FSLAX46Y46*%
G04 Gerber Fmt 4.6, Leading zero omitted, Abs format (unit mm)*
G04 Created by KiCad (PCBNEW (6.0.7)) date 2022-11-19 14:13:10*
%MOMM*%
%LPD*%
G01*
G04 APERTURE LIST*
%ADD10C,0.200000*%
%ADD11C,0.150000*%
%ADD12C,0.120000*%
%ADD13C,0.127000*%
G04 APERTURE END LIST*
D10*
X148490476Y-112385714D02*
X148871428Y-112385714D01*
X148633333Y-112052380D02*
X148633333Y-112909523D01*
X148680952Y-113004761D01*
X148776190Y-113052380D01*
X148871428Y-113052380D01*
X149585714Y-113004761D02*
X149490476Y-113052380D01*
X149300000Y-113052380D01*
X149204761Y-113004761D01*
X149157142Y-112909523D01*
X149157142Y-112528571D01*
X149204761Y-112433333D01*
X149300000Y-112385714D01*
X149490476Y-112385714D01*
X149585714Y-112433333D01*
X149633333Y-112528571D01*
X149633333Y-112623809D01*
X149157142Y-112719047D01*
X150014285Y-113004761D02*
X150109523Y-113052380D01*
X150300000Y-113052380D01*
X150395238Y-113004761D01*
X150442857Y-112909523D01*
X150442857Y-112861904D01*
X150395238Y-112766666D01*
X150300000Y-112719047D01*
X150157142Y-112719047D01*
X150061904Y-112671428D01*
X150014285Y-112576190D01*
X150014285Y-112528571D01*
X150061904Y-112433333D01*
X150157142Y-112385714D01*
X150300000Y-112385714D01*
X150395238Y-112433333D01*
X150728571Y-112385714D02*
X151109523Y-112385714D01*
X150871428Y-112052380D02*
X150871428Y-112909523D01*
X150919047Y-113004761D01*
X151014285Y-113052380D01*
X151109523Y-113052380D01*
X134252380Y-102571428D02*
X133252380Y-102571428D01*
X133966666Y-102238095D01*
X133252380Y-101904761D01*
X134252380Y-101904761D01*
X134252380Y-101428571D02*
X133252380Y-101428571D01*
X134204761Y-101000000D02*
X134252380Y-100857142D01*
X134252380Y-100619047D01*
X134204761Y-100523809D01*
X134157142Y-100476190D01*
X134061904Y-100428571D01*
X133966666Y-100428571D01*
X133871428Y-100476190D01*
X133823809Y-100523809D01*
X133776190Y-100619047D01*
X133728571Y-100809523D01*
X133680952Y-100904761D01*
X133633333Y-100952380D01*
X133538095Y-101000000D01*
X133442857Y-101000000D01*
X133347619Y-100952380D01*
X133300000Y-100904761D01*
X133252380Y-100809523D01*
X133252380Y-100571428D01*
X133300000Y-100428571D01*
X133252380Y-99809523D02*
X133252380Y-99619047D01*
X133300000Y-99523809D01*
X133395238Y-99428571D01*
X133585714Y-99380952D01*
X133919047Y-99380952D01*
X134109523Y-99428571D01*
X134204761Y-99523809D01*
X134252380Y-99619047D01*
X134252380Y-99809523D01*
X134204761Y-99904761D01*
X134109523Y-100000000D01*
X133919047Y-100047619D01*
X133585714Y-100047619D01*
X133395238Y-100000000D01*
X133300000Y-99904761D01*
X133252380Y-99809523D01*
D11*
X117547619Y-124311904D02*
X118042857Y-124311904D01*
X117776190Y-124616666D01*
X117890476Y-124616666D01*
X117966666Y-124654761D01*
X118004761Y-124692857D01*
X118042857Y-124769047D01*
X118042857Y-124959523D01*
X118004761Y-125035714D01*
X117966666Y-125073809D01*
X117890476Y-125111904D01*
X117661904Y-125111904D01*
X117585714Y-125073809D01*
X117547619Y-125035714D01*
X118309523Y-124578571D02*
X118500000Y-125111904D01*
X118690476Y-124578571D01*
X118919047Y-124311904D02*
X119414285Y-124311904D01*
X119147619Y-124616666D01*
X119261904Y-124616666D01*
X119338095Y-124654761D01*
X119376190Y-124692857D01*
X119414285Y-124769047D01*
X119414285Y-124959523D01*
X119376190Y-125035714D01*
X119338095Y-125073809D01*
X119261904Y-125111904D01*
X119033333Y-125111904D01*
X118957142Y-125073809D01*
X118919047Y-125035714D01*
D10*
X139357142Y-100566666D02*
X139404761Y-100614285D01*
X139452380Y-100757142D01*
X139452380Y-100852380D01*
X139404761Y-100995238D01*
X139309523Y-101090476D01*
X139214285Y-101138095D01*
X139023809Y-101185714D01*
X138880952Y-101185714D01*
X138690476Y-101138095D01*
X138595238Y-101090476D01*
X138500000Y-100995238D01*
X138452380Y-100852380D01*
X138452380Y-100757142D01*
X138500000Y-100614285D01*
X138547619Y-100566666D01*
X139404761Y-100185714D02*
X139452380Y-100042857D01*
X139452380Y-99804761D01*
X139404761Y-99709523D01*
X139357142Y-99661904D01*
X139261904Y-99614285D01*
X139166666Y-99614285D01*
X139071428Y-99661904D01*
X139023809Y-99709523D01*
X138976190Y-99804761D01*
X138928571Y-99995238D01*
X138880952Y-100090476D01*
X138833333Y-100138095D01*
X138738095Y-100185714D01*
X138642857Y-100185714D01*
X138547619Y-100138095D01*
X138500000Y-100090476D01*
X138452380Y-99995238D01*
X138452380Y-99757142D01*
X138500000Y-99614285D01*
D11*
X144738095Y-126071428D02*
X145500000Y-126071428D01*
X145119047Y-126452380D02*
X145119047Y-125690476D01*
X146500000Y-126452380D02*
X145928571Y-126452380D01*
X146214285Y-126452380D02*
X146214285Y-125452380D01*
X146119047Y-125595238D01*
X146023809Y-125690476D01*
X145928571Y-125738095D01*
X146880952Y-125547619D02*
X146928571Y-125500000D01*
X147023809Y-125452380D01*
X147261904Y-125452380D01*
X147357142Y-125500000D01*
X147404761Y-125547619D01*
X147452380Y-125642857D01*
X147452380Y-125738095D01*
X147404761Y-125880952D01*
X146833333Y-126452380D01*
X147452380Y-126452380D01*
X147738095Y-125452380D02*
X148071428Y-126452380D01*
X148404761Y-125452380D01*
X132600000Y-123361904D02*
X132600000Y-122561904D01*
X132980952Y-123361904D02*
X132980952Y-122561904D01*
X133285714Y-122561904D01*
X133361904Y-122600000D01*
X133400000Y-122638095D01*
X133438095Y-122714285D01*
X133438095Y-122828571D01*
X133400000Y-122904761D01*
X133361904Y-122942857D01*
X133285714Y-122980952D01*
X132980952Y-122980952D01*
D10*
X147542857Y-110804761D02*
X147638095Y-110852380D01*
X147828571Y-110852380D01*
X147923809Y-110804761D01*
X147971428Y-110709523D01*
X147971428Y-110661904D01*
X147923809Y-110566666D01*
X147828571Y-110519047D01*
X147685714Y-110519047D01*
X147590476Y-110471428D01*
X147542857Y-110376190D01*
X147542857Y-110328571D01*
X147590476Y-110233333D01*
X147685714Y-110185714D01*
X147828571Y-110185714D01*
X147923809Y-110233333D01*
X148400000Y-110852380D02*
X148400000Y-109852380D01*
X148828571Y-110852380D02*
X148828571Y-110328571D01*
X148780952Y-110233333D01*
X148685714Y-110185714D01*
X148542857Y-110185714D01*
X148447619Y-110233333D01*
X148400000Y-110280952D01*
X149733333Y-110185714D02*
X149733333Y-110852380D01*
X149304761Y-110185714D02*
X149304761Y-110709523D01*
X149352380Y-110804761D01*
X149447619Y-110852380D01*
X149590476Y-110852380D01*
X149685714Y-110804761D01*
X149733333Y-110757142D01*
X150209523Y-110185714D02*
X150209523Y-110852380D01*
X150209523Y-110280952D02*
X150257142Y-110233333D01*
X150352380Y-110185714D01*
X150495238Y-110185714D01*
X150590476Y-110233333D01*
X150638095Y-110328571D01*
X150638095Y-110852380D01*
X150971428Y-110185714D02*
X151352380Y-110185714D01*
X151114285Y-109852380D02*
X151114285Y-110709523D01*
X151161904Y-110804761D01*
X151257142Y-110852380D01*
X151352380Y-110852380D01*
X149890476Y-117852380D02*
X149557142Y-117376190D01*
X149319047Y-117852380D02*
X149319047Y-116852380D01*
X149700000Y-116852380D01*
X149795238Y-116900000D01*
X149842857Y-116947619D01*
X149890476Y-117042857D01*
X149890476Y-117185714D01*
X149842857Y-117280952D01*
X149795238Y-117328571D01*
X149700000Y-117376190D01*
X149319047Y-117376190D01*
X150319047Y-117471428D02*
X151080952Y-117471428D01*
D11*
X119853502Y-108065685D02*
X120042064Y-107877123D01*
X120419187Y-108092622D02*
X120149813Y-108361996D01*
X119584128Y-107796311D01*
X119853502Y-107526937D01*
X120015126Y-107365312D02*
X120338375Y-107042064D01*
X120742436Y-107769374D02*
X120176751Y-107203688D01*
X121038748Y-107419187D02*
X121146497Y-107365312D01*
X121281184Y-107230625D01*
X121308122Y-107149813D01*
X121308122Y-107095938D01*
X121281184Y-107015126D01*
X121227309Y-106961251D01*
X121146497Y-106934314D01*
X121092622Y-106934314D01*
X121011810Y-106961251D01*
X120877123Y-107042064D01*
X120796311Y-107069001D01*
X120742436Y-107069001D01*
X120661624Y-107042064D01*
X120607749Y-106988189D01*
X120580812Y-106907377D01*
X120580812Y-106853502D01*
X120607749Y-106772690D01*
X120742436Y-106638003D01*
X120850186Y-106584128D01*
X136185714Y-116429904D02*
X136185714Y-115629904D01*
X136452380Y-116201333D01*
X136719047Y-115629904D01*
X136719047Y-116429904D01*
X137442857Y-116429904D02*
X137442857Y-116010857D01*
X137404761Y-115934666D01*
X137328571Y-115896571D01*
X137176190Y-115896571D01*
X137100000Y-115934666D01*
X137442857Y-116391809D02*
X137366666Y-116429904D01*
X137176190Y-116429904D01*
X137100000Y-116391809D01*
X137061904Y-116315619D01*
X137061904Y-116239428D01*
X137100000Y-116163238D01*
X137176190Y-116125142D01*
X137366666Y-116125142D01*
X137442857Y-116087047D01*
X137823809Y-115896571D02*
X137823809Y-116429904D01*
X137823809Y-115972761D02*
X137861904Y-115934666D01*
X137938095Y-115896571D01*
X138052380Y-115896571D01*
X138128571Y-115934666D01*
X138166666Y-116010857D01*
X138166666Y-116429904D01*
X138433333Y-115896571D02*
X138738095Y-115896571D01*
X138547619Y-115629904D02*
X138547619Y-116315619D01*
X138585714Y-116391809D01*
X138661904Y-116429904D01*
X138738095Y-116429904D01*
X139004761Y-116429904D02*
X139004761Y-115629904D01*
X139347619Y-116429904D02*
X139347619Y-116010857D01*
X139309523Y-115934666D01*
X139233333Y-115896571D01*
X139119047Y-115896571D01*
X139042857Y-115934666D01*
X139004761Y-115972761D01*
X140071428Y-116429904D02*
X140071428Y-116010857D01*
X140033333Y-115934666D01*
X139957142Y-115896571D01*
X139804761Y-115896571D01*
X139728571Y-115934666D01*
X140071428Y-116391809D02*
X139995238Y-116429904D01*
X139804761Y-116429904D01*
X139728571Y-116391809D01*
X139690476Y-116315619D01*
X139690476Y-116239428D01*
X139728571Y-116163238D01*
X139804761Y-116125142D01*
X139995238Y-116125142D01*
X140071428Y-116087047D01*
X140452380Y-115896571D02*
X140452380Y-116429904D01*
X140452380Y-115972761D02*
X140490476Y-115934666D01*
X140566666Y-115896571D01*
X140680952Y-115896571D01*
X140757142Y-115934666D01*
X140795238Y-116010857D01*
X140795238Y-116429904D01*
X142128571Y-116429904D02*
X142128571Y-116010857D01*
X142090476Y-115934666D01*
X142014285Y-115896571D01*
X141861904Y-115896571D01*
X141785714Y-115934666D01*
X142128571Y-116391809D02*
X142052380Y-116429904D01*
X141861904Y-116429904D01*
X141785714Y-116391809D01*
X141747619Y-116315619D01*
X141747619Y-116239428D01*
X141785714Y-116163238D01*
X141861904Y-116125142D01*
X142052380Y-116125142D01*
X142128571Y-116087047D01*
X142509523Y-115896571D02*
X142509523Y-116696571D01*
X142509523Y-115934666D02*
X142585714Y-115896571D01*
X142738095Y-115896571D01*
X142814285Y-115934666D01*
X142852380Y-115972761D01*
X142890476Y-116048952D01*
X142890476Y-116277523D01*
X142852380Y-116353714D01*
X142814285Y-116391809D01*
X142738095Y-116429904D01*
X142585714Y-116429904D01*
X142509523Y-116391809D01*
X143233333Y-115896571D02*
X143233333Y-116696571D01*
X143233333Y-115934666D02*
X143309523Y-115896571D01*
X143461904Y-115896571D01*
X143538095Y-115934666D01*
X143576190Y-115972761D01*
X143614285Y-116048952D01*
X143614285Y-116277523D01*
X143576190Y-116353714D01*
X143538095Y-116391809D01*
X143461904Y-116429904D01*
X143309523Y-116429904D01*
X143233333Y-116391809D01*
X143957142Y-116429904D02*
X143957142Y-115896571D01*
X143957142Y-116048952D02*
X143995238Y-115972761D01*
X144033333Y-115934666D01*
X144109523Y-115896571D01*
X144185714Y-115896571D01*
X144566666Y-116429904D02*
X144490476Y-116391809D01*
X144452380Y-116353714D01*
X144414285Y-116277523D01*
X144414285Y-116048952D01*
X144452380Y-115972761D01*
X144490476Y-115934666D01*
X144566666Y-115896571D01*
X144680952Y-115896571D01*
X144757142Y-115934666D01*
X144795238Y-115972761D01*
X144833333Y-116048952D01*
X144833333Y-116277523D01*
X144795238Y-116353714D01*
X144757142Y-116391809D01*
X144680952Y-116429904D01*
X144566666Y-116429904D01*
X145100000Y-115896571D02*
X145290476Y-116429904D01*
X145480952Y-115896571D01*
X146090476Y-116391809D02*
X146014285Y-116429904D01*
X145861904Y-116429904D01*
X145785714Y-116391809D01*
X145747619Y-116315619D01*
X145747619Y-116010857D01*
X145785714Y-115934666D01*
X145861904Y-115896571D01*
X146014285Y-115896571D01*
X146090476Y-115934666D01*
X146128571Y-116010857D01*
X146128571Y-116087047D01*
X145747619Y-116163238D01*
X146814285Y-116429904D02*
X146814285Y-115629904D01*
X146814285Y-116391809D02*
X146738095Y-116429904D01*
X146585714Y-116429904D01*
X146509523Y-116391809D01*
X146471428Y-116353714D01*
X146433333Y-116277523D01*
X146433333Y-116048952D01*
X146471428Y-115972761D01*
X146509523Y-115934666D01*
X146585714Y-115896571D01*
X146738095Y-115896571D01*
X146814285Y-115934666D01*
X136319047Y-117184571D02*
X136623809Y-117184571D01*
X136433333Y-116917904D02*
X136433333Y-117603619D01*
X136471428Y-117679809D01*
X136547619Y-117717904D01*
X136623809Y-117717904D01*
X136890476Y-117717904D02*
X136890476Y-116917904D01*
X137233333Y-117717904D02*
X137233333Y-117298857D01*
X137195238Y-117222666D01*
X137119047Y-117184571D01*
X137004761Y-117184571D01*
X136928571Y-117222666D01*
X136890476Y-117260761D01*
X137614285Y-117717904D02*
X137614285Y-117184571D01*
X137614285Y-116917904D02*
X137576190Y-116956000D01*
X137614285Y-116994095D01*
X137652380Y-116956000D01*
X137614285Y-116917904D01*
X137614285Y-116994095D01*
X137957142Y-117679809D02*
X138033333Y-117717904D01*
X138185714Y-117717904D01*
X138261904Y-117679809D01*
X138300000Y-117603619D01*
X138300000Y-117565523D01*
X138261904Y-117489333D01*
X138185714Y-117451238D01*
X138071428Y-117451238D01*
X137995238Y-117413142D01*
X137957142Y-117336952D01*
X137957142Y-117298857D01*
X137995238Y-117222666D01*
X138071428Y-117184571D01*
X138185714Y-117184571D01*
X138261904Y-117222666D01*
X139252380Y-117184571D02*
X139252380Y-117984571D01*
X139252380Y-117222666D02*
X139328571Y-117184571D01*
X139480952Y-117184571D01*
X139557142Y-117222666D01*
X139595238Y-117260761D01*
X139633333Y-117336952D01*
X139633333Y-117565523D01*
X139595238Y-117641714D01*
X139557142Y-117679809D01*
X139480952Y-117717904D01*
X139328571Y-117717904D01*
X139252380Y-117679809D01*
X140319047Y-117184571D02*
X140319047Y-117717904D01*
X139976190Y-117184571D02*
X139976190Y-117603619D01*
X140014285Y-117679809D01*
X140090476Y-117717904D01*
X140204761Y-117717904D01*
X140280952Y-117679809D01*
X140319047Y-117641714D01*
X140814285Y-117717904D02*
X140738095Y-117679809D01*
X140700000Y-117603619D01*
X140700000Y-116917904D01*
X141233333Y-117717904D02*
X141157142Y-117679809D01*
X141119047Y-117603619D01*
X141119047Y-116917904D01*
X142147619Y-117717904D02*
X142147619Y-117184571D01*
X142147619Y-117336952D02*
X142185714Y-117260761D01*
X142223809Y-117222666D01*
X142300000Y-117184571D01*
X142376190Y-117184571D01*
X142947619Y-117679809D02*
X142871428Y-117717904D01*
X142719047Y-117717904D01*
X142642857Y-117679809D01*
X142604761Y-117603619D01*
X142604761Y-117298857D01*
X142642857Y-117222666D01*
X142719047Y-117184571D01*
X142871428Y-117184571D01*
X142947619Y-117222666D01*
X142985714Y-117298857D01*
X142985714Y-117375047D01*
X142604761Y-117451238D01*
X143671428Y-117184571D02*
X143671428Y-117984571D01*
X143671428Y-117679809D02*
X143595238Y-117717904D01*
X143442857Y-117717904D01*
X143366666Y-117679809D01*
X143328571Y-117641714D01*
X143290476Y-117565523D01*
X143290476Y-117336952D01*
X143328571Y-117260761D01*
X143366666Y-117222666D01*
X143442857Y-117184571D01*
X143595238Y-117184571D01*
X143671428Y-117222666D01*
X144395238Y-117184571D02*
X144395238Y-117717904D01*
X144052380Y-117184571D02*
X144052380Y-117603619D01*
X144090476Y-117679809D01*
X144166666Y-117717904D01*
X144280952Y-117717904D01*
X144357142Y-117679809D01*
X144395238Y-117641714D01*
X145080952Y-117679809D02*
X145004761Y-117717904D01*
X144852380Y-117717904D01*
X144776190Y-117679809D01*
X144738095Y-117603619D01*
X144738095Y-117298857D01*
X144776190Y-117222666D01*
X144852380Y-117184571D01*
X145004761Y-117184571D01*
X145080952Y-117222666D01*
X145119047Y-117298857D01*
X145119047Y-117375047D01*
X144738095Y-117451238D01*
X145423809Y-117679809D02*
X145500000Y-117717904D01*
X145652380Y-117717904D01*
X145728571Y-117679809D01*
X145766666Y-117603619D01*
X145766666Y-117565523D01*
X145728571Y-117489333D01*
X145652380Y-117451238D01*
X145538095Y-117451238D01*
X145461904Y-117413142D01*
X145423809Y-117336952D01*
X145423809Y-117298857D01*
X145461904Y-117222666D01*
X145538095Y-117184571D01*
X145652380Y-117184571D01*
X145728571Y-117222666D01*
X145995238Y-117184571D02*
X146300000Y-117184571D01*
X146109523Y-116917904D02*
X146109523Y-117603619D01*
X146147619Y-117679809D01*
X146223809Y-117717904D01*
X146300000Y-117717904D01*
X146566666Y-117641714D02*
X146604761Y-117679809D01*
X146566666Y-117717904D01*
X146528571Y-117679809D01*
X146566666Y-117641714D01*
X146566666Y-117717904D01*
X138319047Y-118472571D02*
X138319047Y-119120190D01*
X138280952Y-119196380D01*
X138242857Y-119234476D01*
X138166666Y-119272571D01*
X138052380Y-119272571D01*
X137976190Y-119234476D01*
X138319047Y-118967809D02*
X138242857Y-119005904D01*
X138090476Y-119005904D01*
X138014285Y-118967809D01*
X137976190Y-118929714D01*
X137938095Y-118853523D01*
X137938095Y-118624952D01*
X137976190Y-118548761D01*
X138014285Y-118510666D01*
X138090476Y-118472571D01*
X138242857Y-118472571D01*
X138319047Y-118510666D01*
X138700000Y-119005904D02*
X138700000Y-118472571D01*
X138700000Y-118205904D02*
X138661904Y-118244000D01*
X138700000Y-118282095D01*
X138738095Y-118244000D01*
X138700000Y-118205904D01*
X138700000Y-118282095D01*
X138966666Y-118472571D02*
X139271428Y-118472571D01*
X139080952Y-118205904D02*
X139080952Y-118891619D01*
X139119047Y-118967809D01*
X139195238Y-119005904D01*
X139271428Y-119005904D01*
X139538095Y-119005904D02*
X139538095Y-118205904D01*
X139880952Y-119005904D02*
X139880952Y-118586857D01*
X139842857Y-118510666D01*
X139766666Y-118472571D01*
X139652380Y-118472571D01*
X139576190Y-118510666D01*
X139538095Y-118548761D01*
X140604761Y-118472571D02*
X140604761Y-119005904D01*
X140261904Y-118472571D02*
X140261904Y-118891619D01*
X140300000Y-118967809D01*
X140376190Y-119005904D01*
X140490476Y-119005904D01*
X140566666Y-118967809D01*
X140604761Y-118929714D01*
X140985714Y-119005904D02*
X140985714Y-118205904D01*
X140985714Y-118510666D02*
X141061904Y-118472571D01*
X141214285Y-118472571D01*
X141290476Y-118510666D01*
X141328571Y-118548761D01*
X141366666Y-118624952D01*
X141366666Y-118853523D01*
X141328571Y-118929714D01*
X141290476Y-118967809D01*
X141214285Y-119005904D01*
X141061904Y-119005904D01*
X140985714Y-118967809D01*
X141709523Y-118929714D02*
X141747619Y-118967809D01*
X141709523Y-119005904D01*
X141671428Y-118967809D01*
X141709523Y-118929714D01*
X141709523Y-119005904D01*
X142433333Y-118967809D02*
X142357142Y-119005904D01*
X142204761Y-119005904D01*
X142128571Y-118967809D01*
X142090476Y-118929714D01*
X142052380Y-118853523D01*
X142052380Y-118624952D01*
X142090476Y-118548761D01*
X142128571Y-118510666D01*
X142204761Y-118472571D01*
X142357142Y-118472571D01*
X142433333Y-118510666D01*
X142890476Y-119005904D02*
X142814285Y-118967809D01*
X142776190Y-118929714D01*
X142738095Y-118853523D01*
X142738095Y-118624952D01*
X142776190Y-118548761D01*
X142814285Y-118510666D01*
X142890476Y-118472571D01*
X143004761Y-118472571D01*
X143080952Y-118510666D01*
X143119047Y-118548761D01*
X143157142Y-118624952D01*
X143157142Y-118853523D01*
X143119047Y-118929714D01*
X143080952Y-118967809D01*
X143004761Y-119005904D01*
X142890476Y-119005904D01*
X143500000Y-119005904D02*
X143500000Y-118472571D01*
X143500000Y-118548761D02*
X143538095Y-118510666D01*
X143614285Y-118472571D01*
X143728571Y-118472571D01*
X143804761Y-118510666D01*
X143842857Y-118586857D01*
X143842857Y-119005904D01*
X143842857Y-118586857D02*
X143880952Y-118510666D01*
X143957142Y-118472571D01*
X144071428Y-118472571D01*
X144147619Y-118510666D01*
X144185714Y-118586857D01*
X144185714Y-119005904D01*
X145138095Y-118167809D02*
X144452380Y-119196380D01*
X139823809Y-120293904D02*
X139823809Y-119760571D01*
X139823809Y-119836761D02*
X139861904Y-119798666D01*
X139938095Y-119760571D01*
X140052380Y-119760571D01*
X140128571Y-119798666D01*
X140166666Y-119874857D01*
X140166666Y-120293904D01*
X140166666Y-119874857D02*
X140204761Y-119798666D01*
X140280952Y-119760571D01*
X140395238Y-119760571D01*
X140471428Y-119798666D01*
X140509523Y-119874857D01*
X140509523Y-120293904D01*
X141233333Y-120293904D02*
X141233333Y-119874857D01*
X141195238Y-119798666D01*
X141119047Y-119760571D01*
X140966666Y-119760571D01*
X140890476Y-119798666D01*
X141233333Y-120255809D02*
X141157142Y-120293904D01*
X140966666Y-120293904D01*
X140890476Y-120255809D01*
X140852380Y-120179619D01*
X140852380Y-120103428D01*
X140890476Y-120027238D01*
X140966666Y-119989142D01*
X141157142Y-119989142D01*
X141233333Y-119951047D01*
X141614285Y-119760571D02*
X141614285Y-120293904D01*
X141614285Y-119836761D02*
X141652380Y-119798666D01*
X141728571Y-119760571D01*
X141842857Y-119760571D01*
X141919047Y-119798666D01*
X141957142Y-119874857D01*
X141957142Y-120293904D01*
X142223809Y-119760571D02*
X142528571Y-119760571D01*
X142338095Y-119493904D02*
X142338095Y-120179619D01*
X142376190Y-120255809D01*
X142452380Y-120293904D01*
X142528571Y-120293904D01*
X142795238Y-120293904D02*
X142795238Y-119493904D01*
X143138095Y-120293904D02*
X143138095Y-119874857D01*
X143100000Y-119798666D01*
X143023809Y-119760571D01*
X142909523Y-119760571D01*
X142833333Y-119798666D01*
X142795238Y-119836761D01*
X143861904Y-120293904D02*
X143861904Y-119874857D01*
X143823809Y-119798666D01*
X143747619Y-119760571D01*
X143595238Y-119760571D01*
X143519047Y-119798666D01*
X143861904Y-120255809D02*
X143785714Y-120293904D01*
X143595238Y-120293904D01*
X143519047Y-120255809D01*
X143480952Y-120179619D01*
X143480952Y-120103428D01*
X143519047Y-120027238D01*
X143595238Y-119989142D01*
X143785714Y-119989142D01*
X143861904Y-119951047D01*
X144242857Y-119760571D02*
X144242857Y-120293904D01*
X144242857Y-119836761D02*
X144280952Y-119798666D01*
X144357142Y-119760571D01*
X144471428Y-119760571D01*
X144547619Y-119798666D01*
X144585714Y-119874857D01*
X144585714Y-120293904D01*
X145309523Y-120293904D02*
X145309523Y-119874857D01*
X145271428Y-119798666D01*
X145195238Y-119760571D01*
X145042857Y-119760571D01*
X144966666Y-119798666D01*
X145309523Y-120255809D02*
X145233333Y-120293904D01*
X145042857Y-120293904D01*
X144966666Y-120255809D01*
X144928571Y-120179619D01*
X144928571Y-120103428D01*
X144966666Y-120027238D01*
X145042857Y-119989142D01*
X145233333Y-119989142D01*
X145309523Y-119951047D01*
X145690476Y-119760571D02*
X145690476Y-120293904D01*
X145690476Y-119836761D02*
X145728571Y-119798666D01*
X145804761Y-119760571D01*
X145919047Y-119760571D01*
X145995238Y-119798666D01*
X146033333Y-119874857D01*
X146033333Y-120293904D01*
X146757142Y-120293904D02*
X146757142Y-119493904D01*
X146757142Y-120255809D02*
X146680952Y-120293904D01*
X146528571Y-120293904D01*
X146452380Y-120255809D01*
X146414285Y-120217714D01*
X146376190Y-120141523D01*
X146376190Y-119912952D01*
X146414285Y-119836761D01*
X146452380Y-119798666D01*
X146528571Y-119760571D01*
X146680952Y-119760571D01*
X146757142Y-119798666D01*
X123890476Y-127850000D02*
X123814285Y-127811904D01*
X123700000Y-127811904D01*
X123585714Y-127850000D01*
X123509523Y-127926190D01*
X123471428Y-128002380D01*
X123433333Y-128154761D01*
X123433333Y-128269047D01*
X123471428Y-128421428D01*
X123509523Y-128497619D01*
X123585714Y-128573809D01*
X123700000Y-128611904D01*
X123776190Y-128611904D01*
X123890476Y-128573809D01*
X123928571Y-128535714D01*
X123928571Y-128269047D01*
X123776190Y-128269047D01*
X124271428Y-128611904D02*
X124271428Y-127811904D01*
X124728571Y-128611904D01*
X124728571Y-127811904D01*
X125109523Y-128611904D02*
X125109523Y-127811904D01*
X125300000Y-127811904D01*
X125414285Y-127850000D01*
X125490476Y-127926190D01*
X125528571Y-128002380D01*
X125566666Y-128154761D01*
X125566666Y-128269047D01*
X125528571Y-128421428D01*
X125490476Y-128497619D01*
X125414285Y-128573809D01*
X125300000Y-128611904D01*
X125109523Y-128611904D01*
D10*
X130700000Y-101561904D02*
X130652380Y-101657142D01*
X130652380Y-101800000D01*
X130700000Y-101942857D01*
X130795238Y-102038095D01*
X130890476Y-102085714D01*
X131080952Y-102133333D01*
X131223809Y-102133333D01*
X131414285Y-102085714D01*
X131509523Y-102038095D01*
X131604761Y-101942857D01*
X131652380Y-101800000D01*
X131652380Y-101704761D01*
X131604761Y-101561904D01*
X131557142Y-101514285D01*
X131223809Y-101514285D01*
X131223809Y-101704761D01*
X131652380Y-101085714D02*
X130652380Y-101085714D01*
X131652380Y-100514285D01*
X130652380Y-100514285D01*
X131652380Y-100038095D02*
X130652380Y-100038095D01*
X130652380Y-99800000D01*
X130700000Y-99657142D01*
X130795238Y-99561904D01*
X130890476Y-99514285D01*
X131080952Y-99466666D01*
X131223809Y-99466666D01*
X131414285Y-99514285D01*
X131509523Y-99561904D01*
X131604761Y-99657142D01*
X131652380Y-99800000D01*
X131652380Y-100038095D01*
D11*
X135042857Y-123361904D02*
X135042857Y-122561904D01*
X135423809Y-123361904D02*
X135423809Y-122561904D01*
X135690476Y-123133333D01*
X135957142Y-122561904D01*
X135957142Y-123361904D01*
X120136345Y-113375465D02*
X119678409Y-113294653D01*
X119813096Y-113698714D02*
X119247410Y-113133028D01*
X119462910Y-112917529D01*
X119543722Y-112890592D01*
X119597597Y-112890592D01*
X119678409Y-112917529D01*
X119759221Y-112998341D01*
X119786158Y-113079154D01*
X119786158Y-113133028D01*
X119759221Y-113213841D01*
X119543722Y-113429340D01*
X120324906Y-113133028D02*
X120432656Y-113079154D01*
X120567343Y-112944467D01*
X120594280Y-112863654D01*
X120594280Y-112809780D01*
X120567343Y-112728967D01*
X120513468Y-112675093D01*
X120432656Y-112648155D01*
X120378781Y-112648155D01*
X120297969Y-112675093D01*
X120163282Y-112755905D01*
X120082470Y-112782842D01*
X120028595Y-112782842D01*
X119947783Y-112755905D01*
X119893908Y-112702030D01*
X119866971Y-112621218D01*
X119866971Y-112567343D01*
X119893908Y-112486531D01*
X120028595Y-112351844D01*
X120136345Y-112297969D01*
X120917529Y-112594280D02*
X120351844Y-112028595D01*
X120621218Y-112297969D02*
X120944467Y-111974720D01*
X121240778Y-112271032D02*
X120675093Y-111705346D01*
X121779526Y-111732284D02*
X121510152Y-112001658D01*
X120944467Y-111435972D01*
X151890476Y-122206000D02*
X151814285Y-122167904D01*
X151700000Y-122167904D01*
X151585714Y-122206000D01*
X151509523Y-122282190D01*
X151471428Y-122358380D01*
X151433333Y-122510761D01*
X151433333Y-122625047D01*
X151471428Y-122777428D01*
X151509523Y-122853619D01*
X151585714Y-122929809D01*
X151700000Y-122967904D01*
X151776190Y-122967904D01*
X151890476Y-122929809D01*
X151928571Y-122891714D01*
X151928571Y-122625047D01*
X151776190Y-122625047D01*
X152271428Y-122967904D02*
X152271428Y-122167904D01*
X152728571Y-122967904D01*
X152728571Y-122167904D01*
X153109523Y-122967904D02*
X153109523Y-122167904D01*
X153300000Y-122167904D01*
X153414285Y-122206000D01*
X153490476Y-122282190D01*
X153528571Y-122358380D01*
X153566666Y-122510761D01*
X153566666Y-122625047D01*
X153528571Y-122777428D01*
X153490476Y-122853619D01*
X153414285Y-122929809D01*
X153300000Y-122967904D01*
X153109523Y-122967904D01*
X151433333Y-124255904D02*
X151433333Y-123455904D01*
X151738095Y-123455904D01*
X151814285Y-123494000D01*
X151852380Y-123532095D01*
X151890476Y-123608285D01*
X151890476Y-123722571D01*
X151852380Y-123798761D01*
X151814285Y-123836857D01*
X151738095Y-123874952D01*
X151433333Y-123874952D01*
X152157142Y-123455904D02*
X152347619Y-124255904D01*
X152500000Y-123684476D01*
X152652380Y-124255904D01*
X152842857Y-123455904D01*
X153604761Y-124255904D02*
X153338095Y-123874952D01*
X153147619Y-124255904D02*
X153147619Y-123455904D01*
X153452380Y-123455904D01*
X153528571Y-123494000D01*
X153566666Y-123532095D01*
X153604761Y-123608285D01*
X153604761Y-123722571D01*
X153566666Y-123798761D01*
X153528571Y-123836857D01*
X153452380Y-123874952D01*
X153147619Y-123874952D01*
X119547619Y-127811904D02*
X120042857Y-127811904D01*
X119776190Y-128116666D01*
X119890476Y-128116666D01*
X119966666Y-128154761D01*
X120004761Y-128192857D01*
X120042857Y-128269047D01*
X120042857Y-128459523D01*
X120004761Y-128535714D01*
X119966666Y-128573809D01*
X119890476Y-128611904D01*
X119661904Y-128611904D01*
X119585714Y-128573809D01*
X119547619Y-128535714D01*
X120309523Y-128078571D02*
X120500000Y-128611904D01*
X120690476Y-128078571D01*
X121147619Y-127811904D02*
X121223809Y-127811904D01*
X121300000Y-127850000D01*
X121338095Y-127888095D01*
X121376190Y-127964285D01*
X121414285Y-128116666D01*
X121414285Y-128307142D01*
X121376190Y-128459523D01*
X121338095Y-128535714D01*
X121300000Y-128573809D01*
X121223809Y-128611904D01*
X121147619Y-128611904D01*
X121071428Y-128573809D01*
X121033333Y-128535714D01*
X120995238Y-128459523D01*
X120957142Y-128307142D01*
X120957142Y-128116666D01*
X120995238Y-127964285D01*
X121033333Y-127888095D01*
X121071428Y-127850000D01*
X121147619Y-127811904D01*
X122042857Y-125111904D02*
X121585714Y-125111904D01*
X121814285Y-125111904D02*
X121814285Y-124311904D01*
X121738095Y-124426190D01*
X121661904Y-124502380D01*
X121585714Y-124540476D01*
X122309523Y-124578571D02*
X122500000Y-125111904D01*
X122690476Y-124578571D01*
X123376190Y-124311904D02*
X122995238Y-124311904D01*
X122957142Y-124692857D01*
X122995238Y-124654761D01*
X123071428Y-124616666D01*
X123261904Y-124616666D01*
X123338095Y-124654761D01*
X123376190Y-124692857D01*
X123414285Y-124769047D01*
X123414285Y-124959523D01*
X123376190Y-125035714D01*
X123338095Y-125073809D01*
X123261904Y-125111904D01*
X123071428Y-125111904D01*
X122995238Y-125073809D01*
X122957142Y-125035714D01*
X120069001Y-110942809D02*
X119611065Y-110861996D01*
X119745752Y-111266057D02*
X119180067Y-110700372D01*
X119395566Y-110484873D01*
X119476378Y-110457935D01*
X119530253Y-110457935D01*
X119611065Y-110484873D01*
X119691877Y-110565685D01*
X119718815Y-110646497D01*
X119718815Y-110700372D01*
X119691877Y-110781184D01*
X119476378Y-110996683D01*
X120257563Y-110700372D02*
X120365312Y-110646497D01*
X120500000Y-110511810D01*
X120526937Y-110430998D01*
X120526937Y-110377123D01*
X120500000Y-110296311D01*
X120446125Y-110242436D01*
X120365312Y-110215499D01*
X120311438Y-110215499D01*
X120230625Y-110242436D01*
X120095938Y-110323248D01*
X120015126Y-110350186D01*
X119961251Y-110350186D01*
X119880439Y-110323248D01*
X119826564Y-110269374D01*
X119799627Y-110188561D01*
X119799627Y-110134687D01*
X119826564Y-110053874D01*
X119961251Y-109919187D01*
X120069001Y-109865312D01*
X120850186Y-110161624D02*
X120284500Y-109595938D01*
X120553874Y-109865312D02*
X120877123Y-109542064D01*
X121173435Y-109838375D02*
X120607749Y-109272690D01*
X121442809Y-109569001D02*
X120877123Y-109003316D01*
X121146497Y-109272690D02*
X121469746Y-108949441D01*
X121766057Y-109245752D02*
X121200372Y-108680067D01*
D10*
X136604761Y-102285714D02*
X136652380Y-102142857D01*
X136652380Y-101904761D01*
X136604761Y-101809523D01*
X136557142Y-101761904D01*
X136461904Y-101714285D01*
X136366666Y-101714285D01*
X136271428Y-101761904D01*
X136223809Y-101809523D01*
X136176190Y-101904761D01*
X136128571Y-102095238D01*
X136080952Y-102190476D01*
X136033333Y-102238095D01*
X135938095Y-102285714D01*
X135842857Y-102285714D01*
X135747619Y-102238095D01*
X135700000Y-102190476D01*
X135652380Y-102095238D01*
X135652380Y-101857142D01*
X135700000Y-101714285D01*
X136557142Y-100714285D02*
X136604761Y-100761904D01*
X136652380Y-100904761D01*
X136652380Y-101000000D01*
X136604761Y-101142857D01*
X136509523Y-101238095D01*
X136414285Y-101285714D01*
X136223809Y-101333333D01*
X136080952Y-101333333D01*
X135890476Y-101285714D01*
X135795238Y-101238095D01*
X135700000Y-101142857D01*
X135652380Y-101000000D01*
X135652380Y-100904761D01*
X135700000Y-100761904D01*
X135747619Y-100714285D01*
X136652380Y-100285714D02*
X135652380Y-100285714D01*
X136652380Y-99714285D02*
X136080952Y-100142857D01*
X135652380Y-99714285D02*
X136223809Y-100285714D01*
X149890476Y-115452380D02*
X149557142Y-114976190D01*
X149319047Y-115452380D02*
X149319047Y-114452380D01*
X149700000Y-114452380D01*
X149795238Y-114500000D01*
X149842857Y-114547619D01*
X149890476Y-114642857D01*
X149890476Y-114785714D01*
X149842857Y-114880952D01*
X149795238Y-114928571D01*
X149700000Y-114976190D01*
X149319047Y-114976190D01*
X150319047Y-115071428D02*
X151080952Y-115071428D01*
X150700000Y-115452380D02*
X150700000Y-114690476D01*
D11*
X128090476Y-123057142D02*
X128700000Y-123057142D01*
X128395238Y-123361904D02*
X128395238Y-122752380D01*
X129500000Y-123361904D02*
X129042857Y-123361904D01*
X129271428Y-123361904D02*
X129271428Y-122561904D01*
X129195238Y-122676190D01*
X129119047Y-122752380D01*
X129042857Y-122790476D01*
X129804761Y-122638095D02*
X129842857Y-122600000D01*
X129919047Y-122561904D01*
X130109523Y-122561904D01*
X130185714Y-122600000D01*
X130223809Y-122638095D01*
X130261904Y-122714285D01*
X130261904Y-122790476D01*
X130223809Y-122904761D01*
X129766666Y-123361904D01*
X130261904Y-123361904D01*
X130490476Y-122561904D02*
X130757142Y-123361904D01*
X131023809Y-122561904D01*
X126978571Y-103333333D02*
X126978571Y-103666666D01*
X127502380Y-103666666D02*
X126502380Y-103666666D01*
X126502380Y-103190476D01*
X126978571Y-102476190D02*
X127026190Y-102333333D01*
X127073809Y-102285714D01*
X127169047Y-102238095D01*
X127311904Y-102238095D01*
X127407142Y-102285714D01*
X127454761Y-102333333D01*
X127502380Y-102428571D01*
X127502380Y-102809523D01*
X126502380Y-102809523D01*
X126502380Y-102476190D01*
X126550000Y-102380952D01*
X126597619Y-102333333D01*
X126692857Y-102285714D01*
X126788095Y-102285714D01*
X126883333Y-102333333D01*
X126930952Y-102380952D01*
X126978571Y-102476190D01*
X126978571Y-102809523D01*
X127502380Y-101285714D02*
X127502380Y-101857142D01*
X127502380Y-101571428D02*
X126502380Y-101571428D01*
X126645238Y-101666666D01*
X126740476Y-101761904D01*
X126788095Y-101857142D01*
X141833333Y-107157142D02*
X141785714Y-107204761D01*
X141642857Y-107252380D01*
X141547619Y-107252380D01*
X141404761Y-107204761D01*
X141309523Y-107109523D01*
X141261904Y-107014285D01*
X141214285Y-106823809D01*
X141214285Y-106680952D01*
X141261904Y-106490476D01*
X141309523Y-106395238D01*
X141404761Y-106300000D01*
X141547619Y-106252380D01*
X141642857Y-106252380D01*
X141785714Y-106300000D01*
X141833333Y-106347619D01*
X142166666Y-106252380D02*
X142785714Y-106252380D01*
X142452380Y-106633333D01*
X142595238Y-106633333D01*
X142690476Y-106680952D01*
X142738095Y-106728571D01*
X142785714Y-106823809D01*
X142785714Y-107061904D01*
X142738095Y-107157142D01*
X142690476Y-107204761D01*
X142595238Y-107252380D01*
X142309523Y-107252380D01*
X142214285Y-107204761D01*
X142166666Y-107157142D01*
X120928571Y-103333333D02*
X120928571Y-103666666D01*
X121452380Y-103666666D02*
X120452380Y-103666666D01*
X120452380Y-103190476D01*
X120928571Y-102476190D02*
X120976190Y-102333333D01*
X121023809Y-102285714D01*
X121119047Y-102238095D01*
X121261904Y-102238095D01*
X121357142Y-102285714D01*
X121404761Y-102333333D01*
X121452380Y-102428571D01*
X121452380Y-102809523D01*
X120452380Y-102809523D01*
X120452380Y-102476190D01*
X120500000Y-102380952D01*
X120547619Y-102333333D01*
X120642857Y-102285714D01*
X120738095Y-102285714D01*
X120833333Y-102333333D01*
X120880952Y-102380952D01*
X120928571Y-102476190D01*
X120928571Y-102809523D01*
X120547619Y-101857142D02*
X120500000Y-101809523D01*
X120452380Y-101714285D01*
X120452380Y-101476190D01*
X120500000Y-101380952D01*
X120547619Y-101333333D01*
X120642857Y-101285714D01*
X120738095Y-101285714D01*
X120880952Y-101333333D01*
X121452380Y-101904761D01*
X121452380Y-101285714D01*
X127916666Y-124452380D02*
X127916666Y-125166666D01*
X127869047Y-125309523D01*
X127773809Y-125404761D01*
X127630952Y-125452380D01*
X127535714Y-125452380D01*
X128345238Y-124547619D02*
X128392857Y-124500000D01*
X128488095Y-124452380D01*
X128726190Y-124452380D01*
X128821428Y-124500000D01*
X128869047Y-124547619D01*
X128916666Y-124642857D01*
X128916666Y-124738095D01*
X128869047Y-124880952D01*
X128297619Y-125452380D01*
X128916666Y-125452380D01*
X135833333Y-104452380D02*
X135500000Y-103976190D01*
X135261904Y-104452380D02*
X135261904Y-103452380D01*
X135642857Y-103452380D01*
X135738095Y-103500000D01*
X135785714Y-103547619D01*
X135833333Y-103642857D01*
X135833333Y-103785714D01*
X135785714Y-103880952D01*
X135738095Y-103928571D01*
X135642857Y-103976190D01*
X135261904Y-103976190D01*
X136738095Y-103452380D02*
X136261904Y-103452380D01*
X136214285Y-103928571D01*
X136261904Y-103880952D01*
X136357142Y-103833333D01*
X136595238Y-103833333D01*
X136690476Y-103880952D01*
X136738095Y-103928571D01*
X136785714Y-104023809D01*
X136785714Y-104261904D01*
X136738095Y-104357142D01*
X136690476Y-104404761D01*
X136595238Y-104452380D01*
X136357142Y-104452380D01*
X136261904Y-104404761D01*
X136214285Y-104357142D01*
X121484880Y-122761904D02*
X122294404Y-122761904D01*
X122389642Y-122714285D01*
X122437261Y-122666666D01*
X122484880Y-122571428D01*
X122484880Y-122380952D01*
X122437261Y-122285714D01*
X122389642Y-122238095D01*
X122294404Y-122190476D01*
X121484880Y-122190476D01*
X122484880Y-121190476D02*
X122484880Y-121761904D01*
X122484880Y-121476190D02*
X121484880Y-121476190D01*
X121627738Y-121571428D01*
X121722976Y-121666666D01*
X121770595Y-121761904D01*
X132988095Y-108452380D02*
X132988095Y-109261904D01*
X133035714Y-109357142D01*
X133083333Y-109404761D01*
X133178571Y-109452380D01*
X133369047Y-109452380D01*
X133464285Y-109404761D01*
X133511904Y-109357142D01*
X133559523Y-109261904D01*
X133559523Y-108452380D01*
X134464285Y-108452380D02*
X134273809Y-108452380D01*
X134178571Y-108500000D01*
X134130952Y-108547619D01*
X134035714Y-108690476D01*
X133988095Y-108880952D01*
X133988095Y-109261904D01*
X134035714Y-109357142D01*
X134083333Y-109404761D01*
X134178571Y-109452380D01*
X134369047Y-109452380D01*
X134464285Y-109404761D01*
X134511904Y-109357142D01*
X134559523Y-109261904D01*
X134559523Y-109023809D01*
X134511904Y-108928571D01*
X134464285Y-108880952D01*
X134369047Y-108833333D01*
X134178571Y-108833333D01*
X134083333Y-108880952D01*
X134035714Y-108928571D01*
X133988095Y-109023809D01*
X141783333Y-109157142D02*
X141735714Y-109204761D01*
X141592857Y-109252380D01*
X141497619Y-109252380D01*
X141354761Y-109204761D01*
X141259523Y-109109523D01*
X141211904Y-109014285D01*
X141164285Y-108823809D01*
X141164285Y-108680952D01*
X141211904Y-108490476D01*
X141259523Y-108395238D01*
X141354761Y-108300000D01*
X141497619Y-108252380D01*
X141592857Y-108252380D01*
X141735714Y-108300000D01*
X141783333Y-108347619D01*
X142688095Y-108252380D02*
X142211904Y-108252380D01*
X142164285Y-108728571D01*
X142211904Y-108680952D01*
X142307142Y-108633333D01*
X142545238Y-108633333D01*
X142640476Y-108680952D01*
X142688095Y-108728571D01*
X142735714Y-108823809D01*
X142735714Y-109061904D01*
X142688095Y-109157142D01*
X142640476Y-109204761D01*
X142545238Y-109252380D01*
X142307142Y-109252380D01*
X142211904Y-109204761D01*
X142164285Y-109157142D01*
X128322380Y-97833333D02*
X129036666Y-97833333D01*
X129179523Y-97880952D01*
X129274761Y-97976190D01*
X129322380Y-98119047D01*
X129322380Y-98214285D01*
X128322380Y-97452380D02*
X128322380Y-96833333D01*
X128703333Y-97166666D01*
X128703333Y-97023809D01*
X128750952Y-96928571D01*
X128798571Y-96880952D01*
X128893809Y-96833333D01*
X129131904Y-96833333D01*
X129227142Y-96880952D01*
X129274761Y-96928571D01*
X129322380Y-97023809D01*
X129322380Y-97309523D01*
X129274761Y-97404761D01*
X129227142Y-97452380D01*
X120952380Y-99761904D02*
X121761904Y-99761904D01*
X121857142Y-99714285D01*
X121904761Y-99666666D01*
X121952380Y-99571428D01*
X121952380Y-99380952D01*
X121904761Y-99285714D01*
X121857142Y-99238095D01*
X121761904Y-99190476D01*
X120952380Y-99190476D01*
X120952380Y-98238095D02*
X120952380Y-98714285D01*
X121428571Y-98761904D01*
X121380952Y-98714285D01*
X121333333Y-98619047D01*
X121333333Y-98380952D01*
X121380952Y-98285714D01*
X121428571Y-98238095D01*
X121523809Y-98190476D01*
X121761904Y-98190476D01*
X121857142Y-98238095D01*
X121904761Y-98285714D01*
X121952380Y-98380952D01*
X121952380Y-98619047D01*
X121904761Y-98714285D01*
X121857142Y-98761904D01*
X130988095Y-111952380D02*
X131559523Y-111952380D01*
X131273809Y-112952380D02*
X131273809Y-111952380D01*
X131892857Y-112952380D02*
X131892857Y-111952380D01*
X132273809Y-111952380D01*
X132369047Y-112000000D01*
X132416666Y-112047619D01*
X132464285Y-112142857D01*
X132464285Y-112285714D01*
X132416666Y-112380952D01*
X132369047Y-112428571D01*
X132273809Y-112476190D01*
X131892857Y-112476190D01*
X133369047Y-111952380D02*
X132892857Y-111952380D01*
X132845238Y-112428571D01*
X132892857Y-112380952D01*
X132988095Y-112333333D01*
X133226190Y-112333333D01*
X133321428Y-112380952D01*
X133369047Y-112428571D01*
X133416666Y-112523809D01*
X133416666Y-112761904D01*
X133369047Y-112857142D01*
X133321428Y-112904761D01*
X133226190Y-112952380D01*
X132988095Y-112952380D01*
X132892857Y-112904761D01*
X132845238Y-112857142D01*
X124983333Y-106452380D02*
X124650000Y-105976190D01*
X124411904Y-106452380D02*
X124411904Y-105452380D01*
X124792857Y-105452380D01*
X124888095Y-105500000D01*
X124935714Y-105547619D01*
X124983333Y-105642857D01*
X124983333Y-105785714D01*
X124935714Y-105880952D01*
X124888095Y-105928571D01*
X124792857Y-105976190D01*
X124411904Y-105976190D01*
X125459523Y-106452380D02*
X125650000Y-106452380D01*
X125745238Y-106404761D01*
X125792857Y-106357142D01*
X125888095Y-106214285D01*
X125935714Y-106023809D01*
X125935714Y-105642857D01*
X125888095Y-105547619D01*
X125840476Y-105500000D01*
X125745238Y-105452380D01*
X125554761Y-105452380D01*
X125459523Y-105500000D01*
X125411904Y-105547619D01*
X125364285Y-105642857D01*
X125364285Y-105880952D01*
X125411904Y-105976190D01*
X125459523Y-106023809D01*
X125554761Y-106071428D01*
X125745238Y-106071428D01*
X125840476Y-106023809D01*
X125888095Y-105976190D01*
X125935714Y-105880952D01*
X130857142Y-106142857D02*
X130904761Y-106190476D01*
X130952380Y-106333333D01*
X130952380Y-106428571D01*
X130904761Y-106571428D01*
X130809523Y-106666666D01*
X130714285Y-106714285D01*
X130523809Y-106761904D01*
X130380952Y-106761904D01*
X130190476Y-106714285D01*
X130095238Y-106666666D01*
X130000000Y-106571428D01*
X129952380Y-106428571D01*
X129952380Y-106333333D01*
X130000000Y-106190476D01*
X130047619Y-106142857D01*
X130952380Y-105190476D02*
X130952380Y-105761904D01*
X130952380Y-105476190D02*
X129952380Y-105476190D01*
X130095238Y-105571428D01*
X130190476Y-105666666D01*
X130238095Y-105761904D01*
X129952380Y-104333333D02*
X129952380Y-104523809D01*
X130000000Y-104619047D01*
X130047619Y-104666666D01*
X130190476Y-104761904D01*
X130380952Y-104809523D01*
X130761904Y-104809523D01*
X130857142Y-104761904D01*
X130904761Y-104714285D01*
X130952380Y-104619047D01*
X130952380Y-104428571D01*
X130904761Y-104333333D01*
X130857142Y-104285714D01*
X130761904Y-104238095D01*
X130523809Y-104238095D01*
X130428571Y-104285714D01*
X130380952Y-104333333D01*
X130333333Y-104428571D01*
X130333333Y-104619047D01*
X130380952Y-104714285D01*
X130428571Y-104761904D01*
X130523809Y-104809523D01*
X131261904Y-110452380D02*
X131261904Y-109452380D01*
X131500000Y-109452380D01*
X131642857Y-109500000D01*
X131738095Y-109595238D01*
X131785714Y-109690476D01*
X131833333Y-109880952D01*
X131833333Y-110023809D01*
X131785714Y-110214285D01*
X131738095Y-110309523D01*
X131642857Y-110404761D01*
X131500000Y-110452380D01*
X131261904Y-110452380D01*
X132166666Y-109452380D02*
X132785714Y-109452380D01*
X132452380Y-109833333D01*
X132595238Y-109833333D01*
X132690476Y-109880952D01*
X132738095Y-109928571D01*
X132785714Y-110023809D01*
X132785714Y-110261904D01*
X132738095Y-110357142D01*
X132690476Y-110404761D01*
X132595238Y-110452380D01*
X132309523Y-110452380D01*
X132214285Y-110404761D01*
X132166666Y-110357142D01*
D12*
X125697500Y-117227064D02*
X125697500Y-116772936D01*
X127167500Y-117227064D02*
X127167500Y-116772936D01*
X126697500Y-120272936D02*
X126697500Y-120727064D01*
X128167500Y-120272936D02*
X128167500Y-120727064D01*
X126060000Y-102100378D02*
X126060000Y-102899622D01*
X124940000Y-102100378D02*
X124940000Y-102899622D01*
X127060000Y-111000000D02*
X127060000Y-112950000D01*
X127060000Y-111000000D02*
X127060000Y-109050000D01*
X121940000Y-111000000D02*
X121940000Y-114450000D01*
X121940000Y-111000000D02*
X121940000Y-109050000D01*
X123450000Y-127450000D02*
X121550000Y-127450000D01*
X123450000Y-125550000D02*
X123450000Y-127450000D01*
X121550000Y-127450000D02*
X121550000Y-125550000D01*
X121550000Y-125550000D02*
X123450000Y-125550000D01*
X143727064Y-110265000D02*
X143272936Y-110265000D01*
X143727064Y-111735000D02*
X143272936Y-111735000D01*
X150950000Y-126950000D02*
X148550000Y-126950000D01*
X148550000Y-124550000D02*
X150950000Y-124550000D01*
X148550000Y-126950000D02*
X148550000Y-124550000D01*
X150950000Y-124550000D02*
X150950000Y-126950000D01*
X145261252Y-107535000D02*
X144738748Y-107535000D01*
X145261252Y-106065000D02*
X144738748Y-106065000D01*
X121940000Y-102100378D02*
X121940000Y-102899622D01*
X123060000Y-102100378D02*
X123060000Y-102899622D01*
X123235000Y-116564564D02*
X123235000Y-116110436D01*
X121765000Y-116564564D02*
X121765000Y-116110436D01*
X128485000Y-128495000D02*
X128505000Y-128495000D01*
X128485000Y-127995000D02*
X128485000Y-128495000D01*
X141515000Y-128495000D02*
X141515000Y-127995000D01*
X141515000Y-127995000D02*
X128485000Y-127995000D01*
X127065000Y-123905000D02*
X127065000Y-126980000D01*
X142935000Y-126980000D02*
X142935000Y-123905000D01*
X141495000Y-128495000D02*
X141515000Y-128495000D01*
X142935000Y-123905000D02*
X127065000Y-123905000D01*
X138814564Y-104735000D02*
X138360436Y-104735000D01*
X138814564Y-103265000D02*
X138360436Y-103265000D01*
X150950000Y-124450000D02*
X148550000Y-124450000D01*
X148550000Y-124450000D02*
X148550000Y-122050000D01*
X148550000Y-122050000D02*
X150950000Y-122050000D01*
X150950000Y-122050000D02*
X150950000Y-124450000D01*
X125450000Y-127450000D02*
X123550000Y-127450000D01*
X123550000Y-127450000D02*
X123550000Y-125550000D01*
X125450000Y-125550000D02*
X125450000Y-127450000D01*
X123550000Y-125550000D02*
X125450000Y-125550000D01*
X125992500Y-122000000D02*
X125992500Y-121200000D01*
X125992500Y-122000000D02*
X125992500Y-122800000D01*
X122872500Y-122000000D02*
X122872500Y-121200000D01*
X122872500Y-122000000D02*
X122872500Y-123800000D01*
D11*
X153250000Y-97040000D02*
X153250000Y-104900000D01*
X153250000Y-104900000D02*
X141750000Y-104900000D01*
X141750000Y-97040000D02*
X153250000Y-97040000D01*
X141750000Y-104900000D02*
X141750000Y-97040000D01*
D12*
X134635000Y-106000000D02*
X134635000Y-106800000D01*
X131515000Y-106000000D02*
X131515000Y-106800000D01*
X134635000Y-106000000D02*
X134635000Y-104200000D01*
X131515000Y-106000000D02*
X131515000Y-105200000D01*
X144688748Y-108065000D02*
X145211252Y-108065000D01*
X144688748Y-109535000D02*
X145211252Y-109535000D01*
X121450000Y-127450000D02*
X119550000Y-127450000D01*
X119550000Y-125550000D02*
X121450000Y-125550000D01*
X121450000Y-125550000D02*
X121450000Y-127450000D01*
X119550000Y-127450000D02*
X119550000Y-125550000D01*
X123697500Y-117261252D02*
X123697500Y-116738748D01*
X125167500Y-117261252D02*
X125167500Y-116738748D01*
X140150000Y-98830000D02*
X140150000Y-96170000D01*
X132470000Y-98830000D02*
X140150000Y-98830000D01*
X131200000Y-98830000D02*
X129870000Y-98830000D01*
X132470000Y-98830000D02*
X132470000Y-96170000D01*
X132470000Y-96170000D02*
X140150000Y-96170000D01*
X129870000Y-98830000D02*
X129870000Y-97500000D01*
X122061252Y-118265000D02*
X121538748Y-118265000D01*
X122061252Y-119735000D02*
X121538748Y-119735000D01*
X119765000Y-116564564D02*
X119765000Y-116110436D01*
X121235000Y-116564564D02*
X121235000Y-116110436D01*
X146815000Y-105840000D02*
X146815000Y-107760000D01*
X146815000Y-107760000D02*
X149500000Y-107760000D01*
X149500000Y-105840000D02*
X146815000Y-105840000D01*
X140660000Y-109000000D02*
X140660000Y-107500000D01*
X140660000Y-109000000D02*
X140660000Y-110500000D01*
X136340000Y-109000000D02*
X136340000Y-107500000D01*
X136340000Y-109000000D02*
X136340000Y-111875000D01*
D13*
X147215000Y-115460000D02*
G75*
G03*
X147215000Y-115460000I-317500J0D01*
G01*
D12*
X148272936Y-109535000D02*
X148727064Y-109535000D01*
X148272936Y-108065000D02*
X148727064Y-108065000D01*
X124000000Y-97440000D02*
X123200000Y-97440000D01*
X124000000Y-100560000D02*
X125800000Y-100560000D01*
X124000000Y-97440000D02*
X124800000Y-97440000D01*
X124000000Y-100560000D02*
X123200000Y-100560000D01*
X127920000Y-113710000D02*
X127920000Y-113830000D01*
X127920000Y-113830000D02*
X130580000Y-113830000D01*
X130580000Y-111170000D02*
X130580000Y-112500000D01*
X130580000Y-113710000D02*
X130580000Y-113830000D01*
X129250000Y-111170000D02*
X130580000Y-111170000D01*
X117550000Y-127450000D02*
X117550000Y-125550000D01*
X119450000Y-127450000D02*
X117550000Y-127450000D01*
X119450000Y-125550000D02*
X119450000Y-127450000D01*
X117550000Y-125550000D02*
X119450000Y-125550000D01*
X127422936Y-106735000D02*
X127877064Y-106735000D01*
X127422936Y-105265000D02*
X127877064Y-105265000D01*
X129238748Y-108735000D02*
X129761252Y-108735000D01*
X129238748Y-107265000D02*
X129761252Y-107265000D01*
X127815000Y-109040000D02*
X127815000Y-110960000D01*
X130500000Y-109040000D02*
X127815000Y-109040000D01*
X127815000Y-110960000D02*
X130500000Y-110960000D01*
X127697500Y-116738748D02*
X127697500Y-117261252D01*
X129167500Y-116738748D02*
X129167500Y-117261252D01*
M02*
