G04 #@! TF.GenerationSoftware,KiCad,Pcbnew,(6.0.7)*
G04 #@! TF.CreationDate,2022-11-19T14:13:10-06:00*
G04 #@! TF.ProjectId,BPS-Amperes,4250532d-416d-4706-9572-65732e6b6963,rev?*
G04 #@! TF.SameCoordinates,Original*
G04 #@! TF.FileFunction,Copper,L1,Top*
G04 #@! TF.FilePolarity,Positive*
%FSLAX46Y46*%
G04 Gerber Fmt 4.6, Leading zero omitted, Abs format (unit mm)*
G04 Created by KiCad (PCBNEW (6.0.7)) date 2022-11-19 14:13:10*
%MOMM*%
%LPD*%
G01*
G04 APERTURE LIST*
G04 Aperture macros list*
%AMRoundRect*
0 Rectangle with rounded corners*
0 $1 Rounding radius*
0 $2 $3 $4 $5 $6 $7 $8 $9 X,Y pos of 4 corners*
0 Add a 4 corners polygon primitive as box body*
4,1,4,$2,$3,$4,$5,$6,$7,$8,$9,$2,$3,0*
0 Add four circle primitives for the rounded corners*
1,1,$1+$1,$2,$3*
1,1,$1+$1,$4,$5*
1,1,$1+$1,$6,$7*
1,1,$1+$1,$8,$9*
0 Add four rect primitives between the rounded corners*
20,1,$1+$1,$2,$3,$4,$5,0*
20,1,$1+$1,$4,$5,$6,$7,0*
20,1,$1+$1,$6,$7,$8,$9,0*
20,1,$1+$1,$8,$9,$2,$3,0*%
G04 Aperture macros list end*
G04 #@! TA.AperFunction,SMDPad,CuDef*
%ADD10RoundRect,0.250000X0.450000X-0.262500X0.450000X0.262500X-0.450000X0.262500X-0.450000X-0.262500X0*%
G04 #@! TD*
G04 #@! TA.AperFunction,SMDPad,CuDef*
%ADD11RoundRect,0.250000X-0.450000X0.262500X-0.450000X-0.262500X0.450000X-0.262500X0.450000X0.262500X0*%
G04 #@! TD*
G04 #@! TA.AperFunction,SMDPad,CuDef*
%ADD12RoundRect,0.218750X-0.381250X0.218750X-0.381250X-0.218750X0.381250X-0.218750X0.381250X0.218750X0*%
G04 #@! TD*
G04 #@! TA.AperFunction,SMDPad,CuDef*
%ADD13RoundRect,0.150000X0.150000X-0.825000X0.150000X0.825000X-0.150000X0.825000X-0.150000X-0.825000X0*%
G04 #@! TD*
G04 #@! TA.AperFunction,SMDPad,CuDef*
%ADD14R,1.500000X1.500000*%
G04 #@! TD*
G04 #@! TA.AperFunction,SMDPad,CuDef*
%ADD15RoundRect,0.250000X0.262500X0.450000X-0.262500X0.450000X-0.262500X-0.450000X0.262500X-0.450000X0*%
G04 #@! TD*
G04 #@! TA.AperFunction,SMDPad,CuDef*
%ADD16R,2.000000X2.000000*%
G04 #@! TD*
G04 #@! TA.AperFunction,SMDPad,CuDef*
%ADD17RoundRect,0.250000X0.250000X0.475000X-0.250000X0.475000X-0.250000X-0.475000X0.250000X-0.475000X0*%
G04 #@! TD*
G04 #@! TA.AperFunction,ComponentPad*
%ADD18RoundRect,0.250001X0.499999X0.759999X-0.499999X0.759999X-0.499999X-0.759999X0.499999X-0.759999X0*%
G04 #@! TD*
G04 #@! TA.AperFunction,ComponentPad*
%ADD19O,1.500000X2.020000*%
G04 #@! TD*
G04 #@! TA.AperFunction,SMDPad,CuDef*
%ADD20RoundRect,0.125000X0.125000X-0.537500X0.125000X0.537500X-0.125000X0.537500X-0.125000X-0.537500X0*%
G04 #@! TD*
G04 #@! TA.AperFunction,ComponentPad*
%ADD21O,1.000000X1.800000*%
G04 #@! TD*
G04 #@! TA.AperFunction,SMDPad,CuDef*
%ADD22RoundRect,0.125000X-0.125000X0.537500X-0.125000X-0.537500X0.125000X-0.537500X0.125000X0.537500X0*%
G04 #@! TD*
G04 #@! TA.AperFunction,SMDPad,CuDef*
%ADD23RoundRect,0.250000X-0.250000X-0.475000X0.250000X-0.475000X0.250000X0.475000X-0.250000X0.475000X0*%
G04 #@! TD*
G04 #@! TA.AperFunction,SMDPad,CuDef*
%ADD24RoundRect,0.250000X0.475000X-0.250000X0.475000X0.250000X-0.475000X0.250000X-0.475000X-0.250000X0*%
G04 #@! TD*
G04 #@! TA.AperFunction,ComponentPad*
%ADD25R,1.700000X1.700000*%
G04 #@! TD*
G04 #@! TA.AperFunction,ComponentPad*
%ADD26O,1.700000X1.700000*%
G04 #@! TD*
G04 #@! TA.AperFunction,SMDPad,CuDef*
%ADD27RoundRect,0.243750X-0.243750X-0.456250X0.243750X-0.456250X0.243750X0.456250X-0.243750X0.456250X0*%
G04 #@! TD*
G04 #@! TA.AperFunction,SMDPad,CuDef*
%ADD28RoundRect,0.075000X0.075000X-0.650000X0.075000X0.650000X-0.075000X0.650000X-0.075000X-0.650000X0*%
G04 #@! TD*
G04 #@! TA.AperFunction,SMDPad,CuDef*
%ADD29R,0.760000X2.200000*%
G04 #@! TD*
G04 #@! TA.AperFunction,SMDPad,CuDef*
%ADD30RoundRect,0.250000X-0.262500X-0.450000X0.262500X-0.450000X0.262500X0.450000X-0.262500X0.450000X0*%
G04 #@! TD*
G04 #@! TA.AperFunction,SMDPad,CuDef*
%ADD31RoundRect,0.150000X0.512500X0.150000X-0.512500X0.150000X-0.512500X-0.150000X0.512500X-0.150000X0*%
G04 #@! TD*
G04 #@! TA.AperFunction,SMDPad,CuDef*
%ADD32RoundRect,0.250000X-0.475000X0.250000X-0.475000X-0.250000X0.475000X-0.250000X0.475000X0.250000X0*%
G04 #@! TD*
G04 #@! TA.AperFunction,ViaPad*
%ADD33C,0.800000*%
G04 #@! TD*
G04 #@! TA.AperFunction,Conductor*
%ADD34C,0.400000*%
G04 #@! TD*
G04 #@! TA.AperFunction,Conductor*
%ADD35C,0.200000*%
G04 #@! TD*
G04 APERTURE END LIST*
D10*
X126432500Y-117912500D03*
X126432500Y-116087500D03*
D11*
X127432500Y-119587500D03*
X127432500Y-121412500D03*
D12*
X125500000Y-101437500D03*
X125500000Y-103562500D03*
D13*
X122595000Y-113475000D03*
X123865000Y-113475000D03*
X125135000Y-113475000D03*
X126405000Y-113475000D03*
X126405000Y-108525000D03*
X125135000Y-108525000D03*
X123865000Y-108525000D03*
X122595000Y-108525000D03*
D14*
X122500000Y-126500000D03*
D15*
X144412500Y-111000000D03*
X142587500Y-111000000D03*
D16*
X149750000Y-125750000D03*
D17*
X145950000Y-106800000D03*
X144050000Y-106800000D03*
D12*
X122500000Y-101437500D03*
X122500000Y-103562500D03*
D10*
X122500000Y-117250000D03*
X122500000Y-115425000D03*
D18*
X139500000Y-125915000D03*
D19*
X136500000Y-125915000D03*
X133500000Y-125915000D03*
X130500000Y-125915000D03*
D15*
X139500000Y-104000000D03*
X137675000Y-104000000D03*
D16*
X149750000Y-123250000D03*
D14*
X124500000Y-126500000D03*
D20*
X123457500Y-123137500D03*
X124107500Y-123137500D03*
X124757500Y-123137500D03*
X125407500Y-123137500D03*
X125407500Y-120862500D03*
X124757500Y-120862500D03*
X124107500Y-120862500D03*
X123457500Y-120862500D03*
D21*
X143690000Y-103500000D03*
X146230000Y-103500000D03*
X148770000Y-103500000D03*
X151310000Y-103500000D03*
D22*
X134050000Y-104862500D03*
X133400000Y-104862500D03*
X132750000Y-104862500D03*
X132100000Y-104862500D03*
X132100000Y-107137500D03*
X132750000Y-107137500D03*
X133400000Y-107137500D03*
X134050000Y-107137500D03*
D23*
X144000000Y-108800000D03*
X145900000Y-108800000D03*
D14*
X120500000Y-126500000D03*
D24*
X124432500Y-117950000D03*
X124432500Y-116050000D03*
D25*
X131200000Y-97500000D03*
D26*
X133740000Y-97500000D03*
X136280000Y-97500000D03*
X138820000Y-97500000D03*
D17*
X122750000Y-119000000D03*
X120850000Y-119000000D03*
D10*
X120500000Y-117250000D03*
X120500000Y-115425000D03*
D27*
X147562500Y-106800000D03*
X149437500Y-106800000D03*
D28*
X136750000Y-111150000D03*
X137250000Y-111150000D03*
X137750000Y-111150000D03*
X138250000Y-111150000D03*
X138750000Y-111150000D03*
X139250000Y-111150000D03*
X139750000Y-111150000D03*
X140250000Y-111150000D03*
X140250000Y-106850000D03*
X139750000Y-106850000D03*
X139250000Y-106850000D03*
X138750000Y-106850000D03*
X138250000Y-106850000D03*
X137750000Y-106850000D03*
X137250000Y-106850000D03*
X136750000Y-106850000D03*
D29*
X145945000Y-113872500D03*
X144675000Y-113872500D03*
X143405000Y-113872500D03*
X142135000Y-113872500D03*
X140865000Y-113872500D03*
X139595000Y-113872500D03*
X138325000Y-113872500D03*
X137055000Y-113872500D03*
X137055000Y-122127500D03*
X138325000Y-122127500D03*
X139595000Y-122127500D03*
X140865000Y-122127500D03*
X142135000Y-122127500D03*
X143405000Y-122127500D03*
X144675000Y-122127500D03*
X145945000Y-122127500D03*
D30*
X147587500Y-108800000D03*
X149412500Y-108800000D03*
D31*
X125137500Y-99950000D03*
X125137500Y-99000000D03*
X125137500Y-98050000D03*
X122862500Y-98050000D03*
X122862500Y-99950000D03*
D25*
X129250000Y-112500000D03*
D14*
X118500000Y-126500000D03*
D30*
X126737500Y-106000000D03*
X128562500Y-106000000D03*
D23*
X128550000Y-108000000D03*
X130450000Y-108000000D03*
D27*
X128562500Y-110000000D03*
X130437500Y-110000000D03*
D32*
X128432500Y-116050000D03*
X128432500Y-117950000D03*
D25*
X117525000Y-107420000D03*
D26*
X117525000Y-109960000D03*
X117525000Y-112500000D03*
X117525000Y-115040000D03*
X117525000Y-117580000D03*
D25*
X152500000Y-107425000D03*
D26*
X152500000Y-109965000D03*
X152500000Y-112505000D03*
X152500000Y-115045000D03*
X152500000Y-117585000D03*
D33*
X149000000Y-120750000D03*
X150250000Y-120750000D03*
X121000000Y-129000000D03*
X121000000Y-96000000D03*
X133500000Y-116500000D03*
X119500000Y-96000000D03*
X125500000Y-129000000D03*
X133500000Y-122500000D03*
X134500000Y-101000000D03*
X133500000Y-119500000D03*
X133500000Y-118000000D03*
X119500000Y-124000000D03*
X116000000Y-126000000D03*
X116000000Y-124500000D03*
X116500000Y-97500000D03*
X133000000Y-111000000D03*
X119500000Y-129000000D03*
X124000000Y-129000000D03*
X116000000Y-123000000D03*
X127500000Y-99750000D03*
X118000000Y-96500000D03*
X138000000Y-101000000D03*
X133500000Y-113500000D03*
X122500000Y-129000000D03*
X131000000Y-103500000D03*
X118000000Y-128500000D03*
X122500000Y-96000000D03*
X138250000Y-109000000D03*
X118500000Y-102500000D03*
X116000000Y-120000000D03*
X124000000Y-96000000D03*
X128650000Y-119000000D03*
X126500000Y-111500000D03*
X133500000Y-121000000D03*
X133500000Y-115000000D03*
X116500000Y-127500000D03*
X121000000Y-111500000D03*
X116000000Y-100500000D03*
X126500000Y-123000000D03*
X116000000Y-121500000D03*
X136000000Y-111000000D03*
X116000000Y-99000000D03*
X124500000Y-106000000D03*
X139450000Y-109000000D03*
X140750000Y-108000000D03*
X132500000Y-108750000D03*
X127500000Y-98250000D03*
X140750000Y-104500000D03*
X135500000Y-108250000D03*
X136000000Y-106500000D03*
X135000000Y-109500000D03*
X122432500Y-123000000D03*
X135075000Y-105000000D03*
X122600000Y-111000000D03*
X123500000Y-102500000D03*
X124500000Y-104500000D03*
D34*
X144050000Y-103860000D02*
X143690000Y-103500000D01*
X144000000Y-106850000D02*
X144050000Y-106800000D01*
X144050000Y-106800000D02*
X144050000Y-103860000D01*
D35*
X149000000Y-120750000D02*
X149000000Y-122500000D01*
X149000000Y-122500000D02*
X149750000Y-123250000D01*
D34*
X144000000Y-108800000D02*
X144000000Y-106850000D01*
D35*
X150977000Y-124523000D02*
X149750000Y-125750000D01*
X150250000Y-120750000D02*
X150977000Y-121477000D01*
X150977000Y-121477000D02*
X150977000Y-124523000D01*
D34*
X145950000Y-106800000D02*
X145950000Y-103780000D01*
X145950000Y-103780000D02*
X146230000Y-103500000D01*
D35*
X138500000Y-105750000D02*
X138750000Y-106000000D01*
X136150000Y-111150000D02*
X136000000Y-111000000D01*
D34*
X125137500Y-99000000D02*
X126750000Y-99000000D01*
X126750000Y-99000000D02*
X127500000Y-99750000D01*
X147562500Y-104707500D02*
X148770000Y-103500000D01*
D35*
X137750000Y-106850000D02*
X137750000Y-106000000D01*
X137750000Y-108500000D02*
X138250000Y-109000000D01*
X136750000Y-111150000D02*
X136150000Y-111150000D01*
D34*
X148770000Y-103500000D02*
X145770000Y-100500000D01*
D35*
X126362500Y-123137500D02*
X126500000Y-123000000D01*
D34*
X132750000Y-104862500D02*
X132750000Y-104210775D01*
X132750000Y-104210775D02*
X132039225Y-103500000D01*
D35*
X137750000Y-106850000D02*
X137750000Y-108500000D01*
X138750000Y-106000000D02*
X138750000Y-106850000D01*
D34*
X147562500Y-107137500D02*
X145900000Y-108800000D01*
X132039225Y-103500000D02*
X131000000Y-103500000D01*
X145770000Y-100500000D02*
X140500000Y-100500000D01*
D35*
X125407500Y-123137500D02*
X126362500Y-123137500D01*
X138000000Y-105750000D02*
X138500000Y-105750000D01*
D34*
X147562500Y-104707500D02*
X147562500Y-106800000D01*
D35*
X137750000Y-106000000D02*
X138000000Y-105750000D01*
D34*
X147562500Y-106800000D02*
X147562500Y-107137500D01*
D35*
X148500000Y-107887500D02*
X147587500Y-108800000D01*
D34*
X147083575Y-99273575D02*
X128523575Y-99273575D01*
X122862500Y-98050000D02*
X125137500Y-98050000D01*
X125137500Y-98050000D02*
X127300000Y-98050000D01*
D35*
X151310000Y-103500000D02*
X150500000Y-103500000D01*
X150500000Y-103500000D02*
X148500000Y-105500000D01*
X148500000Y-105500000D02*
X148500000Y-107887500D01*
D34*
X117525000Y-117580000D02*
X116250000Y-116305000D01*
X116250000Y-102250000D02*
X120450000Y-98050000D01*
D35*
X139750000Y-111150000D02*
X140250000Y-111150000D01*
D34*
X132100000Y-108350000D02*
X132500000Y-108750000D01*
X116250000Y-116305000D02*
X116250000Y-102250000D01*
D35*
X139750000Y-109300000D02*
X139750000Y-111150000D01*
X117525000Y-125525000D02*
X118500000Y-126500000D01*
D34*
X136000000Y-112250000D02*
X132500000Y-108750000D01*
X120450000Y-98050000D02*
X122862500Y-98050000D01*
D35*
X140250000Y-107500000D02*
X140750000Y-108000000D01*
X138250000Y-107800000D02*
X138250000Y-106850000D01*
X139450000Y-109000000D02*
X138250000Y-107800000D01*
D34*
X127300000Y-98050000D02*
X127500000Y-98250000D01*
X151310000Y-103500000D02*
X147083575Y-99273575D01*
D35*
X140250000Y-106850000D02*
X140250000Y-107500000D01*
X117525000Y-117580000D02*
X117525000Y-125525000D01*
D34*
X139250000Y-112250000D02*
X136000000Y-112250000D01*
D35*
X139450000Y-109000000D02*
X139750000Y-109300000D01*
X139750000Y-111750000D02*
X139250000Y-112250000D01*
D34*
X128523575Y-99273575D02*
X127500000Y-98250000D01*
D35*
X139250000Y-111150000D02*
X139750000Y-111150000D01*
X139750000Y-111150000D02*
X139750000Y-111750000D01*
D34*
X132100000Y-107137500D02*
X132100000Y-108350000D01*
D35*
X122500000Y-117250000D02*
X122500000Y-118750000D01*
X124107500Y-119607500D02*
X124107500Y-120862500D01*
X122500000Y-118750000D02*
X122750000Y-119000000D01*
X123500000Y-119000000D02*
X124107500Y-119607500D01*
X122750000Y-119000000D02*
X123500000Y-119000000D01*
X134835000Y-127250000D02*
X141486500Y-127250000D01*
X145945000Y-122791500D02*
X145945000Y-122127500D01*
X141486500Y-127250000D02*
X145945000Y-122791500D01*
X133500000Y-125915000D02*
X134835000Y-127250000D01*
X137915000Y-124500000D02*
X141696500Y-124500000D01*
X136500000Y-125915000D02*
X137915000Y-124500000D01*
X141696500Y-124500000D02*
X143405000Y-122791500D01*
X143405000Y-122791500D02*
X143405000Y-122127500D01*
X143405000Y-111817500D02*
X142587500Y-111000000D01*
X142587500Y-111000000D02*
X139750000Y-108162500D01*
X139750000Y-108162500D02*
X139750000Y-106850000D01*
X143405000Y-113872500D02*
X143405000Y-111817500D01*
X144412500Y-111000000D02*
X144412500Y-110662500D01*
X144412500Y-111000000D02*
X145945000Y-112532500D01*
X144412500Y-110662500D02*
X140750000Y-107000000D01*
X140750000Y-106000000D02*
X140500000Y-105750000D01*
X140750000Y-107000000D02*
X140750000Y-106000000D01*
X139473954Y-105750000D02*
X139250000Y-105973954D01*
X145945000Y-112532500D02*
X145945000Y-113872500D01*
X139250000Y-105973954D02*
X139250000Y-106850000D01*
X140500000Y-105750000D02*
X139473954Y-105750000D01*
X136750000Y-106850000D02*
X136750000Y-104925000D01*
X136750000Y-104925000D02*
X137675000Y-104000000D01*
X140250000Y-104000000D02*
X140750000Y-104500000D01*
X137250000Y-106850000D02*
X137250000Y-106037552D01*
X139500000Y-104000000D02*
X140250000Y-104000000D01*
X139287552Y-104000000D02*
X139500000Y-104000000D01*
X137250000Y-106037552D02*
X139287552Y-104000000D01*
X135500000Y-108250000D02*
X136002092Y-108250000D01*
X136002092Y-108250000D02*
X138250000Y-110497908D01*
X133400000Y-107137500D02*
X133400000Y-107825000D01*
X138250000Y-110497908D02*
X138250000Y-111150000D01*
X135250000Y-108250000D02*
X135500000Y-108250000D01*
X133825000Y-108250000D02*
X135250000Y-108250000D01*
X133400000Y-107825000D02*
X133825000Y-108250000D01*
X138448000Y-110198000D02*
X138450092Y-110198000D01*
X134050000Y-107137500D02*
X135362500Y-107137500D01*
X135362500Y-107137500D02*
X136000000Y-106500000D01*
X135362500Y-107137500D02*
X135387500Y-107137500D01*
X138750000Y-110497908D02*
X138750000Y-111150000D01*
X135387500Y-107137500D02*
X138448000Y-110198000D01*
X138450092Y-110198000D02*
X138750000Y-110497908D01*
X135250000Y-109500000D02*
X136752092Y-109500000D01*
X132750000Y-107137500D02*
X132750000Y-107675000D01*
X136752092Y-109500000D02*
X137750000Y-110497908D01*
X134575000Y-109500000D02*
X135000000Y-109500000D01*
X132750000Y-107675000D02*
X134575000Y-109500000D01*
X135000000Y-109500000D02*
X135250000Y-109500000D01*
X137750000Y-110497908D02*
X137750000Y-111150000D01*
D34*
X123500000Y-102562500D02*
X122500000Y-103562500D01*
X133400000Y-103650000D02*
X133400000Y-104862500D01*
D35*
X120500000Y-124932500D02*
X122432500Y-123000000D01*
D34*
X122600000Y-108530000D02*
X122595000Y-108525000D01*
X133400000Y-104862500D02*
X134050000Y-104862500D01*
D35*
X120500000Y-126500000D02*
X120500000Y-124932500D01*
D34*
X122595000Y-103657500D02*
X122595000Y-108525000D01*
X123500000Y-102500000D02*
X123500000Y-102562500D01*
X134937500Y-104862500D02*
X135075000Y-105000000D01*
D35*
X123457500Y-123137500D02*
X122570000Y-123137500D01*
X124107500Y-123137500D02*
X123457500Y-123137500D01*
D34*
X122500000Y-103562500D02*
X122595000Y-103657500D01*
X134050000Y-104862500D02*
X134937500Y-104862500D01*
X123500000Y-102500000D02*
X132250000Y-102500000D01*
D35*
X122570000Y-123137500D02*
X122432500Y-123000000D01*
D34*
X132250000Y-102500000D02*
X133400000Y-103650000D01*
X122600000Y-111000000D02*
X122600000Y-108530000D01*
D35*
X124757500Y-124242500D02*
X122500000Y-126500000D01*
D34*
X125500000Y-103562500D02*
X125437500Y-103562500D01*
D35*
X125687080Y-103562500D02*
X125500000Y-103562500D01*
X124757500Y-124242500D02*
X124757500Y-123137500D01*
X127500000Y-113400000D02*
X127500000Y-105375420D01*
X127500000Y-105375420D02*
X125687080Y-103562500D01*
X129384500Y-115284500D02*
X127500000Y-113400000D01*
X125002000Y-122248000D02*
X125678303Y-122248000D01*
X125678303Y-122248000D02*
X125680303Y-122250000D01*
X125002000Y-122248000D02*
X124757500Y-122492500D01*
X128300000Y-122250000D02*
X129384500Y-121165500D01*
X129384500Y-121165500D02*
X129384500Y-115284500D01*
D34*
X125437500Y-103562500D02*
X124500000Y-104500000D01*
D35*
X124757500Y-123137500D02*
X124757500Y-122492500D01*
X125680303Y-122250000D02*
X128300000Y-122250000D01*
X126432500Y-116087500D02*
X128395000Y-116087500D01*
X126432500Y-116087500D02*
X125135000Y-114790000D01*
X128395000Y-116087500D02*
X128432500Y-116050000D01*
X125135000Y-114790000D02*
X125135000Y-113475000D01*
X125957500Y-121412500D02*
X127432500Y-121412500D01*
X125407500Y-120862500D02*
X125957500Y-121412500D01*
X123865000Y-112385000D02*
X126405000Y-109845000D01*
X123865000Y-113475000D02*
X123865000Y-112385000D01*
X122595000Y-113475000D02*
X123865000Y-113475000D01*
X126405000Y-109845000D02*
X126405000Y-108525000D01*
X124432500Y-116050000D02*
X123865000Y-115482500D01*
X123865000Y-115482500D02*
X123865000Y-113475000D01*
X126432500Y-117912500D02*
X126432500Y-118587500D01*
X124432500Y-117950000D02*
X126395000Y-117950000D01*
X126395000Y-117950000D02*
X126432500Y-117912500D01*
X126432500Y-118587500D02*
X127432500Y-119587500D01*
X120850000Y-119000000D02*
X122712500Y-120862500D01*
X120850000Y-119000000D02*
X120500000Y-118650000D01*
X122712500Y-120862500D02*
X123457500Y-120862500D01*
X120500000Y-118650000D02*
X120500000Y-117250000D01*
X128550000Y-108000000D02*
X128550000Y-109987500D01*
X128562500Y-110000000D02*
X128562500Y-111812500D01*
X128550000Y-106637500D02*
X128550000Y-108000000D01*
X128562500Y-106000000D02*
X129700000Y-104862500D01*
X128550000Y-109987500D02*
X128562500Y-110000000D01*
X129700000Y-104862500D02*
X132100000Y-104862500D01*
X128562500Y-111812500D02*
X129250000Y-112500000D01*
X123865000Y-108525000D02*
X125135000Y-108525000D01*
X125135000Y-107865000D02*
X126737500Y-106262500D01*
X126737500Y-106262500D02*
X126737500Y-106000000D01*
X125135000Y-108525000D02*
X125135000Y-107865000D01*
X149437500Y-106800000D02*
X149437500Y-108775000D01*
X149437500Y-108775000D02*
X149412500Y-108800000D01*
D34*
X125137500Y-99950000D02*
X125500000Y-100312500D01*
X125500000Y-100312500D02*
X125500000Y-101437500D01*
X122862500Y-99950000D02*
X122500000Y-100312500D01*
X122500000Y-100312500D02*
X122500000Y-101437500D01*
D35*
X122500000Y-115425000D02*
X122500000Y-114935000D01*
X122500000Y-114935000D02*
X117525000Y-109960000D01*
G04 #@! TA.AperFunction,Conductor*
G36*
X141193039Y-95270185D02*
G01*
X141238794Y-95322989D01*
X141250000Y-95374500D01*
X141250000Y-98699075D01*
X141230315Y-98766114D01*
X141177511Y-98811869D01*
X141126000Y-98823075D01*
X139084213Y-98823075D01*
X139017174Y-98803390D01*
X138971419Y-98750586D01*
X138961475Y-98681428D01*
X138990500Y-98617872D01*
X139049278Y-98580098D01*
X139066420Y-98576358D01*
X139072387Y-98575493D01*
X139072389Y-98575493D01*
X139078007Y-98574678D01*
X139083384Y-98572853D01*
X139083387Y-98572852D01*
X139189535Y-98536819D01*
X139269531Y-98509664D01*
X139446001Y-98410837D01*
X139508433Y-98358913D01*
X139597138Y-98285137D01*
X139601505Y-98281505D01*
X139636331Y-98239631D01*
X139727206Y-98130367D01*
X139727207Y-98130366D01*
X139730837Y-98126001D01*
X139744772Y-98101119D01*
X139826886Y-97954491D01*
X139829664Y-97949531D01*
X139868355Y-97835553D01*
X139892852Y-97763387D01*
X139892853Y-97763384D01*
X139894678Y-97758007D01*
X139899265Y-97726369D01*
X139923176Y-97561458D01*
X139923176Y-97561453D01*
X139923700Y-97557842D01*
X139925215Y-97500000D01*
X139906708Y-97298591D01*
X139851807Y-97103926D01*
X139762351Y-96922527D01*
X139641335Y-96760467D01*
X139492812Y-96623174D01*
X139460762Y-96602952D01*
X139326566Y-96518280D01*
X139326564Y-96518279D01*
X139321757Y-96515246D01*
X139133898Y-96440298D01*
X139128317Y-96439188D01*
X139128314Y-96439187D01*
X139038339Y-96421290D01*
X138935526Y-96400839D01*
X138929839Y-96400765D01*
X138929834Y-96400764D01*
X138738975Y-96398266D01*
X138738970Y-96398266D01*
X138733286Y-96398192D01*
X138727682Y-96399155D01*
X138727681Y-96399155D01*
X138539546Y-96431482D01*
X138539543Y-96431483D01*
X138533949Y-96432444D01*
X138512660Y-96440298D01*
X138349521Y-96500483D01*
X138349517Y-96500485D01*
X138344193Y-96502449D01*
X138339310Y-96505354D01*
X138339308Y-96505355D01*
X138240007Y-96564433D01*
X138170371Y-96605862D01*
X138018305Y-96739220D01*
X137893089Y-96898057D01*
X137798914Y-97077053D01*
X137797229Y-97082479D01*
X137797228Y-97082482D01*
X137790744Y-97103365D01*
X137738937Y-97270213D01*
X137715164Y-97471069D01*
X137715535Y-97476731D01*
X137715535Y-97476735D01*
X137720851Y-97557842D01*
X137728392Y-97672894D01*
X137778178Y-97868928D01*
X137862856Y-98052607D01*
X137979588Y-98217780D01*
X138124466Y-98358913D01*
X138292637Y-98471282D01*
X138478470Y-98551122D01*
X138552535Y-98567881D01*
X138597840Y-98578133D01*
X138658882Y-98612127D01*
X138691855Y-98673727D01*
X138686290Y-98743375D01*
X138643954Y-98798958D01*
X138578288Y-98822828D01*
X138570473Y-98823075D01*
X136544213Y-98823075D01*
X136477174Y-98803390D01*
X136431419Y-98750586D01*
X136421475Y-98681428D01*
X136450500Y-98617872D01*
X136509278Y-98580098D01*
X136526420Y-98576358D01*
X136532387Y-98575493D01*
X136532389Y-98575493D01*
X136538007Y-98574678D01*
X136543384Y-98572853D01*
X136543387Y-98572852D01*
X136649535Y-98536819D01*
X136729531Y-98509664D01*
X136906001Y-98410837D01*
X136968433Y-98358913D01*
X137057138Y-98285137D01*
X137061505Y-98281505D01*
X137096331Y-98239631D01*
X137187206Y-98130367D01*
X137187207Y-98130366D01*
X137190837Y-98126001D01*
X137204772Y-98101119D01*
X137286886Y-97954491D01*
X137289664Y-97949531D01*
X137328355Y-97835553D01*
X137352852Y-97763387D01*
X137352853Y-97763384D01*
X137354678Y-97758007D01*
X137359265Y-97726369D01*
X137383176Y-97561458D01*
X137383176Y-97561453D01*
X137383700Y-97557842D01*
X137385215Y-97500000D01*
X137366708Y-97298591D01*
X137311807Y-97103926D01*
X137222351Y-96922527D01*
X137101335Y-96760467D01*
X136952812Y-96623174D01*
X136920762Y-96602952D01*
X136786566Y-96518280D01*
X136786564Y-96518279D01*
X136781757Y-96515246D01*
X136593898Y-96440298D01*
X136588317Y-96439188D01*
X136588314Y-96439187D01*
X136498339Y-96421290D01*
X136395526Y-96400839D01*
X136389839Y-96400765D01*
X136389834Y-96400764D01*
X136198975Y-96398266D01*
X136198970Y-96398266D01*
X136193286Y-96398192D01*
X136187682Y-96399155D01*
X136187681Y-96399155D01*
X135999546Y-96431482D01*
X135999543Y-96431483D01*
X135993949Y-96432444D01*
X135972660Y-96440298D01*
X135809521Y-96500483D01*
X135809517Y-96500485D01*
X135804193Y-96502449D01*
X135799310Y-96505354D01*
X135799308Y-96505355D01*
X135700007Y-96564433D01*
X135630371Y-96605862D01*
X135478305Y-96739220D01*
X135353089Y-96898057D01*
X135258914Y-97077053D01*
X135257229Y-97082479D01*
X135257228Y-97082482D01*
X135250744Y-97103365D01*
X135198937Y-97270213D01*
X135175164Y-97471069D01*
X135175535Y-97476731D01*
X135175535Y-97476735D01*
X135180851Y-97557842D01*
X135188392Y-97672894D01*
X135238178Y-97868928D01*
X135322856Y-98052607D01*
X135439588Y-98217780D01*
X135584466Y-98358913D01*
X135752637Y-98471282D01*
X135938470Y-98551122D01*
X136012535Y-98567881D01*
X136057840Y-98578133D01*
X136118882Y-98612127D01*
X136151855Y-98673727D01*
X136146290Y-98743375D01*
X136103954Y-98798958D01*
X136038288Y-98822828D01*
X136030473Y-98823075D01*
X134004213Y-98823075D01*
X133937174Y-98803390D01*
X133891419Y-98750586D01*
X133881475Y-98681428D01*
X133910500Y-98617872D01*
X133969278Y-98580098D01*
X133986420Y-98576358D01*
X133992387Y-98575493D01*
X133992389Y-98575493D01*
X133998007Y-98574678D01*
X134003384Y-98572853D01*
X134003387Y-98572852D01*
X134109535Y-98536819D01*
X134189531Y-98509664D01*
X134366001Y-98410837D01*
X134428433Y-98358913D01*
X134517138Y-98285137D01*
X134521505Y-98281505D01*
X134556331Y-98239631D01*
X134647206Y-98130367D01*
X134647207Y-98130366D01*
X134650837Y-98126001D01*
X134664772Y-98101119D01*
X134746886Y-97954491D01*
X134749664Y-97949531D01*
X134788355Y-97835553D01*
X134812852Y-97763387D01*
X134812853Y-97763384D01*
X134814678Y-97758007D01*
X134819265Y-97726369D01*
X134843176Y-97561458D01*
X134843176Y-97561453D01*
X134843700Y-97557842D01*
X134845215Y-97500000D01*
X134826708Y-97298591D01*
X134771807Y-97103926D01*
X134682351Y-96922527D01*
X134561335Y-96760467D01*
X134412812Y-96623174D01*
X134380762Y-96602952D01*
X134246566Y-96518280D01*
X134246564Y-96518279D01*
X134241757Y-96515246D01*
X134053898Y-96440298D01*
X134048317Y-96439188D01*
X134048314Y-96439187D01*
X133958339Y-96421290D01*
X133855526Y-96400839D01*
X133849839Y-96400765D01*
X133849834Y-96400764D01*
X133658975Y-96398266D01*
X133658970Y-96398266D01*
X133653286Y-96398192D01*
X133647682Y-96399155D01*
X133647681Y-96399155D01*
X133459546Y-96431482D01*
X133459543Y-96431483D01*
X133453949Y-96432444D01*
X133432660Y-96440298D01*
X133269521Y-96500483D01*
X133269517Y-96500485D01*
X133264193Y-96502449D01*
X133259310Y-96505354D01*
X133259308Y-96505355D01*
X133160007Y-96564433D01*
X133090371Y-96605862D01*
X132938305Y-96739220D01*
X132813089Y-96898057D01*
X132718914Y-97077053D01*
X132717229Y-97082479D01*
X132717228Y-97082482D01*
X132710744Y-97103365D01*
X132658937Y-97270213D01*
X132635164Y-97471069D01*
X132635535Y-97476731D01*
X132635535Y-97476735D01*
X132640851Y-97557842D01*
X132648392Y-97672894D01*
X132698178Y-97868928D01*
X132782856Y-98052607D01*
X132899588Y-98217780D01*
X133044466Y-98358913D01*
X133212637Y-98471282D01*
X133398470Y-98551122D01*
X133472535Y-98567881D01*
X133517840Y-98578133D01*
X133578882Y-98612127D01*
X133611855Y-98673727D01*
X133606290Y-98743375D01*
X133563954Y-98798958D01*
X133498288Y-98822828D01*
X133490473Y-98823075D01*
X132191139Y-98823075D01*
X132124100Y-98803390D01*
X132078345Y-98750586D01*
X132068401Y-98681428D01*
X132097426Y-98617872D01*
X132143688Y-98584513D01*
X132157702Y-98578709D01*
X132220087Y-98537024D01*
X132237024Y-98520087D01*
X132278710Y-98457699D01*
X132287878Y-98435567D01*
X132298810Y-98380604D01*
X132300000Y-98368528D01*
X132300000Y-97717830D01*
X132295596Y-97702831D01*
X132294226Y-97701644D01*
X132286668Y-97700000D01*
X130117830Y-97700000D01*
X130102831Y-97704404D01*
X130101644Y-97705774D01*
X130100000Y-97713332D01*
X130100000Y-98368528D01*
X130101190Y-98380604D01*
X130112122Y-98435567D01*
X130121290Y-98457699D01*
X130162976Y-98520087D01*
X130179913Y-98537024D01*
X130242298Y-98578709D01*
X130256312Y-98584513D01*
X130310716Y-98628354D01*
X130332782Y-98694648D01*
X130315504Y-98762347D01*
X130264367Y-98809958D01*
X130208861Y-98823075D01*
X128761541Y-98823075D01*
X128694502Y-98803390D01*
X128673860Y-98786756D01*
X128188057Y-98300954D01*
X128154572Y-98239631D01*
X128152636Y-98228170D01*
X128151859Y-98221744D01*
X128140273Y-98126001D01*
X128137262Y-98101119D01*
X128137261Y-98101115D01*
X128136363Y-98093694D01*
X128080710Y-97946412D01*
X128052823Y-97905836D01*
X127995768Y-97822821D01*
X127995765Y-97822818D01*
X127991531Y-97816657D01*
X127936444Y-97767576D01*
X127879559Y-97716893D01*
X127879558Y-97716892D01*
X127873976Y-97711919D01*
X127734831Y-97638245D01*
X127582128Y-97599889D01*
X127500329Y-97599461D01*
X127432158Y-97599104D01*
X127432157Y-97599104D01*
X127424684Y-97599065D01*
X127417417Y-97600810D01*
X127409989Y-97601669D01*
X127409771Y-97599784D01*
X127373021Y-97600574D01*
X127371270Y-97600020D01*
X127364663Y-97599500D01*
X127311932Y-97599500D01*
X127307063Y-97599404D01*
X127259273Y-97597526D01*
X127259272Y-97597526D01*
X127250006Y-97597162D01*
X127242922Y-97599040D01*
X127234562Y-97599500D01*
X125963954Y-97599500D01*
X125896915Y-97579815D01*
X125894677Y-97578285D01*
X125888342Y-97571950D01*
X125775304Y-97514354D01*
X125746067Y-97509723D01*
X125686339Y-97500263D01*
X125686334Y-97500263D01*
X125681519Y-97499500D01*
X125676641Y-97499500D01*
X125137110Y-97499501D01*
X124593482Y-97499501D01*
X124520849Y-97511004D01*
X124509331Y-97512828D01*
X124509330Y-97512828D01*
X124499696Y-97514354D01*
X124386658Y-97571950D01*
X124382157Y-97576451D01*
X124318127Y-97599298D01*
X124311046Y-97599500D01*
X123688954Y-97599500D01*
X123621915Y-97579815D01*
X123619677Y-97578285D01*
X123613342Y-97571950D01*
X123500304Y-97514354D01*
X123471067Y-97509723D01*
X123411339Y-97500263D01*
X123411334Y-97500263D01*
X123406519Y-97499500D01*
X123401641Y-97499500D01*
X122862110Y-97499501D01*
X122318482Y-97499501D01*
X122245849Y-97511004D01*
X122234331Y-97512828D01*
X122234330Y-97512828D01*
X122224696Y-97514354D01*
X122111658Y-97571950D01*
X122107157Y-97576451D01*
X122043127Y-97599298D01*
X122036046Y-97599500D01*
X120484103Y-97599500D01*
X120469529Y-97598641D01*
X120444895Y-97595725D01*
X120444892Y-97595725D01*
X120435690Y-97594636D01*
X120406210Y-97600020D01*
X120377978Y-97605176D01*
X120374136Y-97605816D01*
X120340983Y-97610801D01*
X120316038Y-97614551D01*
X120309525Y-97617679D01*
X120302427Y-97618975D01*
X120294201Y-97623248D01*
X120250337Y-97646033D01*
X120246863Y-97647769D01*
X120193921Y-97673191D01*
X120188701Y-97678016D01*
X120188480Y-97678165D01*
X120182212Y-97681421D01*
X120177172Y-97685725D01*
X120139903Y-97722994D01*
X120136393Y-97726369D01*
X120101251Y-97758853D01*
X120101249Y-97758856D01*
X120094444Y-97765146D01*
X120090763Y-97771484D01*
X120085172Y-97777725D01*
X115955564Y-101907333D01*
X115944651Y-101917031D01*
X115917890Y-101938128D01*
X115898010Y-101966893D01*
X115884510Y-101986426D01*
X115882281Y-101989546D01*
X115847366Y-102036816D01*
X115844973Y-102043632D01*
X115840869Y-102049569D01*
X115826509Y-102094973D01*
X115823175Y-102105516D01*
X115821943Y-102109209D01*
X115805552Y-102155884D01*
X115805551Y-102155888D01*
X115802481Y-102164631D01*
X115802202Y-102171735D01*
X115802153Y-102171986D01*
X115800020Y-102178730D01*
X115799500Y-102185337D01*
X115799500Y-102238068D01*
X115799404Y-102242937D01*
X115797162Y-102299994D01*
X115799040Y-102307078D01*
X115799500Y-102315438D01*
X115799500Y-116270897D01*
X115798641Y-116285471D01*
X115794636Y-116319310D01*
X115796302Y-116328431D01*
X115805176Y-116377022D01*
X115805816Y-116380864D01*
X115814551Y-116438962D01*
X115817679Y-116445475D01*
X115818975Y-116452573D01*
X115823248Y-116460799D01*
X115846033Y-116504663D01*
X115847769Y-116508137D01*
X115873191Y-116561079D01*
X115878016Y-116566299D01*
X115878165Y-116566520D01*
X115881421Y-116572788D01*
X115885725Y-116577828D01*
X115922994Y-116615097D01*
X115926369Y-116618607D01*
X115958853Y-116653749D01*
X115958856Y-116653751D01*
X115965146Y-116660556D01*
X115971484Y-116664237D01*
X115977725Y-116669828D01*
X116441737Y-117133840D01*
X116475222Y-117195163D01*
X116472479Y-117258291D01*
X116443937Y-117350213D01*
X116420164Y-117551069D01*
X116420535Y-117556731D01*
X116420535Y-117556735D01*
X116425851Y-117637842D01*
X116433392Y-117752894D01*
X116483178Y-117948928D01*
X116485554Y-117954082D01*
X116518018Y-118024500D01*
X116567856Y-118132607D01*
X116684588Y-118297780D01*
X116829466Y-118438913D01*
X116997637Y-118551282D01*
X117099449Y-118595024D01*
X117153273Y-118639572D01*
X117174500Y-118708953D01*
X117174500Y-125474391D01*
X117172400Y-125494123D01*
X117172206Y-125498243D01*
X117170049Y-125508261D01*
X117171591Y-125521290D01*
X117173640Y-125538601D01*
X117173953Y-125543909D01*
X117174078Y-125543899D01*
X117174500Y-125549004D01*
X117174500Y-125554115D01*
X117177044Y-125569399D01*
X117177400Y-125571539D01*
X117178222Y-125577318D01*
X117178893Y-125582987D01*
X117183764Y-125624138D01*
X117187423Y-125631758D01*
X117188812Y-125640103D01*
X117193676Y-125649118D01*
X117193678Y-125649123D01*
X117211215Y-125681623D01*
X117213845Y-125686784D01*
X117234274Y-125729326D01*
X117237592Y-125733274D01*
X117239498Y-125735180D01*
X117240994Y-125736811D01*
X117241214Y-125737220D01*
X117241175Y-125737256D01*
X117241326Y-125737428D01*
X117244222Y-125742794D01*
X117251744Y-125749747D01*
X117280676Y-125776492D01*
X117284185Y-125779867D01*
X117463181Y-125958863D01*
X117496666Y-126020186D01*
X117499500Y-126046544D01*
X117499500Y-127274674D01*
X117514034Y-127347740D01*
X117569399Y-127430601D01*
X117579552Y-127437385D01*
X117611558Y-127458770D01*
X117652260Y-127485966D01*
X117685369Y-127492552D01*
X117719347Y-127499311D01*
X117719350Y-127499311D01*
X117725326Y-127500500D01*
X119274674Y-127500500D01*
X119280650Y-127499311D01*
X119280653Y-127499311D01*
X119314631Y-127492552D01*
X119347740Y-127485966D01*
X119430601Y-127430601D01*
X119433015Y-127434213D01*
X119473642Y-127412029D01*
X119543334Y-127417013D01*
X119567920Y-127432814D01*
X119569399Y-127430601D01*
X119652260Y-127485966D01*
X119685369Y-127492552D01*
X119719347Y-127499311D01*
X119719350Y-127499311D01*
X119725326Y-127500500D01*
X121274674Y-127500500D01*
X121280650Y-127499311D01*
X121280653Y-127499311D01*
X121314631Y-127492552D01*
X121347740Y-127485966D01*
X121430601Y-127430601D01*
X121433015Y-127434213D01*
X121473642Y-127412029D01*
X121543334Y-127417013D01*
X121567920Y-127432814D01*
X121569399Y-127430601D01*
X121652260Y-127485966D01*
X121685369Y-127492552D01*
X121719347Y-127499311D01*
X121719350Y-127499311D01*
X121725326Y-127500500D01*
X123274674Y-127500500D01*
X123280650Y-127499311D01*
X123280653Y-127499311D01*
X123314631Y-127492552D01*
X123347740Y-127485966D01*
X123430601Y-127430601D01*
X123432934Y-127434093D01*
X123474003Y-127411668D01*
X123543695Y-127416652D01*
X123568281Y-127432453D01*
X123569760Y-127430240D01*
X123642301Y-127478710D01*
X123664433Y-127487878D01*
X123719396Y-127498810D01*
X123731472Y-127500000D01*
X124282170Y-127500000D01*
X124297169Y-127495596D01*
X124298356Y-127494226D01*
X124300000Y-127486668D01*
X124300000Y-127482170D01*
X124700000Y-127482170D01*
X124704404Y-127497169D01*
X124705774Y-127498356D01*
X124713332Y-127500000D01*
X125268528Y-127500000D01*
X125280604Y-127498810D01*
X125335567Y-127487878D01*
X125357699Y-127478710D01*
X125420087Y-127437024D01*
X125437024Y-127420087D01*
X125478710Y-127357699D01*
X125487878Y-127335567D01*
X125498810Y-127280604D01*
X125500000Y-127268528D01*
X125500000Y-126717830D01*
X125495596Y-126702831D01*
X125494226Y-126701644D01*
X125486668Y-126700000D01*
X124717830Y-126700000D01*
X124702831Y-126704404D01*
X124701644Y-126705774D01*
X124700000Y-126713332D01*
X124700000Y-127482170D01*
X124300000Y-127482170D01*
X124300000Y-126282170D01*
X124700000Y-126282170D01*
X124704404Y-126297169D01*
X124705774Y-126298356D01*
X124713332Y-126300000D01*
X125482170Y-126300000D01*
X125497169Y-126295596D01*
X125498356Y-126294226D01*
X125500000Y-126286668D01*
X125500000Y-125731472D01*
X125498810Y-125719396D01*
X125487878Y-125664433D01*
X125478710Y-125642301D01*
X125437024Y-125579913D01*
X125420087Y-125562976D01*
X125357699Y-125521290D01*
X125335567Y-125512122D01*
X125280604Y-125501190D01*
X125268528Y-125500000D01*
X124717830Y-125500000D01*
X124702831Y-125504404D01*
X124701644Y-125505774D01*
X124700000Y-125513332D01*
X124700000Y-126282170D01*
X124300000Y-126282170D01*
X124300000Y-125517830D01*
X124295596Y-125502831D01*
X124294226Y-125501644D01*
X124273641Y-125497166D01*
X124274347Y-125493923D01*
X124228005Y-125480315D01*
X124182250Y-125427511D01*
X124172306Y-125358353D01*
X124201331Y-125294797D01*
X124207363Y-125288319D01*
X124969551Y-124526131D01*
X124985000Y-124513654D01*
X124988048Y-124510881D01*
X124996652Y-124505325D01*
X125015573Y-124481324D01*
X125019099Y-124477356D01*
X125019003Y-124477275D01*
X125022309Y-124473373D01*
X125025928Y-124469754D01*
X125036196Y-124455386D01*
X125039679Y-124450745D01*
X125068892Y-124413689D01*
X125071693Y-124405713D01*
X125076611Y-124398831D01*
X125090122Y-124353654D01*
X125091927Y-124348097D01*
X125104971Y-124310953D01*
X125104971Y-124310951D01*
X125107555Y-124303594D01*
X125108000Y-124298456D01*
X125108000Y-124295774D01*
X125108096Y-124293550D01*
X125108227Y-124293112D01*
X125108281Y-124293114D01*
X125108296Y-124292883D01*
X125110044Y-124287036D01*
X125109068Y-124262181D01*
X125108096Y-124237455D01*
X125108000Y-124232587D01*
X125108000Y-124160938D01*
X125127685Y-124093899D01*
X125180489Y-124048144D01*
X125202882Y-124041594D01*
X125203049Y-124041450D01*
X125207496Y-124026362D01*
X125607500Y-124026362D01*
X125611391Y-124039612D01*
X125625243Y-124041580D01*
X125632216Y-124040553D01*
X125650400Y-124034903D01*
X125744616Y-123988645D01*
X125761054Y-123976876D01*
X125834772Y-123903031D01*
X125846517Y-123886565D01*
X125892612Y-123792263D01*
X125898230Y-123774088D01*
X125906851Y-123714993D01*
X125907500Y-123706045D01*
X125907500Y-123355330D01*
X125903096Y-123340331D01*
X125901726Y-123339144D01*
X125894168Y-123337500D01*
X125625330Y-123337500D01*
X125610331Y-123341904D01*
X125609144Y-123343274D01*
X125607500Y-123350832D01*
X125607500Y-124026362D01*
X125207496Y-124026362D01*
X125207500Y-124026348D01*
X125207500Y-123893919D01*
X125220097Y-123839464D01*
X125243099Y-123792407D01*
X125243099Y-123792405D01*
X125247326Y-123783759D01*
X125258000Y-123710590D01*
X125258000Y-123061500D01*
X125277685Y-122994461D01*
X125330489Y-122948706D01*
X125382000Y-122937500D01*
X125889670Y-122937500D01*
X125904669Y-122933096D01*
X125905856Y-122931726D01*
X125907500Y-122924168D01*
X125907500Y-122724500D01*
X125927185Y-122657461D01*
X125979989Y-122611706D01*
X126031500Y-122600500D01*
X128249391Y-122600500D01*
X128269123Y-122602600D01*
X128273243Y-122602794D01*
X128283261Y-122604951D01*
X128313601Y-122601360D01*
X128318909Y-122601047D01*
X128318899Y-122600922D01*
X128324004Y-122600500D01*
X128329115Y-122600500D01*
X128346539Y-122597600D01*
X128352318Y-122596778D01*
X128388960Y-122592441D01*
X128388962Y-122592440D01*
X128399138Y-122591236D01*
X128406758Y-122587577D01*
X128415103Y-122586188D01*
X128424118Y-122581324D01*
X128424123Y-122581322D01*
X128456623Y-122563785D01*
X128461784Y-122561155D01*
X128504326Y-122540726D01*
X128508274Y-122537408D01*
X128510180Y-122535502D01*
X128511811Y-122534006D01*
X128512220Y-122533786D01*
X128512256Y-122533825D01*
X128512428Y-122533674D01*
X128517794Y-122530778D01*
X128551492Y-122494324D01*
X128554867Y-122490815D01*
X129596551Y-121449131D01*
X129612000Y-121436654D01*
X129615048Y-121433881D01*
X129623652Y-121428325D01*
X129642573Y-121404324D01*
X129646100Y-121400355D01*
X129646004Y-121400274D01*
X129649310Y-121396372D01*
X129652929Y-121392753D01*
X129663197Y-121378385D01*
X129666698Y-121373721D01*
X129689546Y-121344739D01*
X129689546Y-121344738D01*
X129695892Y-121336689D01*
X129698694Y-121328711D01*
X129703611Y-121321830D01*
X129717120Y-121276658D01*
X129718926Y-121271101D01*
X129731971Y-121233956D01*
X129731973Y-121233946D01*
X129734555Y-121226594D01*
X129735000Y-121221456D01*
X129735000Y-121218774D01*
X129735096Y-121216550D01*
X129735227Y-121216112D01*
X129735281Y-121216114D01*
X129735296Y-121215883D01*
X129737044Y-121210036D01*
X129735780Y-121177850D01*
X129735096Y-121160455D01*
X129735000Y-121155587D01*
X129735000Y-115335109D01*
X129737100Y-115315377D01*
X129737294Y-115311257D01*
X129739451Y-115301239D01*
X129735860Y-115270899D01*
X129735547Y-115265591D01*
X129735422Y-115265601D01*
X129735000Y-115260495D01*
X129735000Y-115255385D01*
X129732101Y-115237967D01*
X129731279Y-115232196D01*
X129730428Y-115225000D01*
X129725736Y-115185361D01*
X129722077Y-115177740D01*
X129720688Y-115169397D01*
X129698286Y-115127879D01*
X129695648Y-115122702D01*
X129690428Y-115111831D01*
X129675226Y-115080173D01*
X129671907Y-115076226D01*
X129670020Y-115074339D01*
X129668506Y-115072689D01*
X129668293Y-115072294D01*
X129668335Y-115072255D01*
X129668173Y-115072071D01*
X129665278Y-115066706D01*
X129628811Y-115032996D01*
X129625302Y-115029621D01*
X128407863Y-113812181D01*
X128374378Y-113750858D01*
X128379362Y-113681166D01*
X128421234Y-113625233D01*
X128486698Y-113600816D01*
X128495544Y-113600500D01*
X130124674Y-113600500D01*
X130130650Y-113599311D01*
X130130653Y-113599311D01*
X130163687Y-113592740D01*
X130197740Y-113585966D01*
X130280601Y-113530601D01*
X130335966Y-113447740D01*
X130348792Y-113383261D01*
X130349311Y-113380653D01*
X130349311Y-113380650D01*
X130350500Y-113374674D01*
X130350500Y-111625326D01*
X130335966Y-111552260D01*
X130280601Y-111469399D01*
X130197740Y-111414034D01*
X130163687Y-111407260D01*
X130130653Y-111400689D01*
X130130650Y-111400689D01*
X130124674Y-111399500D01*
X129037000Y-111399500D01*
X128969961Y-111379815D01*
X128924206Y-111327011D01*
X128913000Y-111275500D01*
X128913000Y-111030053D01*
X128932685Y-110963014D01*
X128985489Y-110917259D01*
X128993472Y-110913944D01*
X129046041Y-110894237D01*
X129112466Y-110844454D01*
X129152266Y-110814626D01*
X129159331Y-110809331D01*
X129164897Y-110801905D01*
X129238942Y-110703106D01*
X129244237Y-110696041D01*
X129290430Y-110572821D01*
X129291205Y-110570755D01*
X129291206Y-110570751D01*
X129293934Y-110563474D01*
X129300500Y-110503032D01*
X129300500Y-110499624D01*
X129700001Y-110499624D01*
X129700364Y-110506329D01*
X129705719Y-110555636D01*
X129709289Y-110570647D01*
X129753105Y-110687526D01*
X129761504Y-110702868D01*
X129835728Y-110801905D01*
X129848095Y-110814272D01*
X129947132Y-110888496D01*
X129962474Y-110896895D01*
X130079350Y-110940710D01*
X130094366Y-110944281D01*
X130143674Y-110949637D01*
X130150374Y-110950000D01*
X130219670Y-110950000D01*
X130234669Y-110945596D01*
X130235856Y-110944226D01*
X130237500Y-110936668D01*
X130237500Y-110932169D01*
X130637500Y-110932169D01*
X130641904Y-110947168D01*
X130643274Y-110948355D01*
X130650832Y-110949999D01*
X130724624Y-110949999D01*
X130731329Y-110949636D01*
X130780636Y-110944281D01*
X130795647Y-110940711D01*
X130912526Y-110896895D01*
X130927868Y-110888496D01*
X131026905Y-110814272D01*
X131039272Y-110801905D01*
X131113496Y-110702868D01*
X131121895Y-110687526D01*
X131165710Y-110570650D01*
X131169281Y-110555634D01*
X131174637Y-110506326D01*
X131175000Y-110499626D01*
X131175000Y-110217830D01*
X131170596Y-110202831D01*
X131169226Y-110201644D01*
X131161668Y-110200000D01*
X130655330Y-110200000D01*
X130640331Y-110204404D01*
X130639144Y-110205774D01*
X130637500Y-110213332D01*
X130637500Y-110932169D01*
X130237500Y-110932169D01*
X130237500Y-110217830D01*
X130233096Y-110202831D01*
X130231726Y-110201644D01*
X130224168Y-110200000D01*
X129717831Y-110200000D01*
X129702832Y-110204404D01*
X129701645Y-110205774D01*
X129700001Y-110213332D01*
X129700001Y-110499624D01*
X129300500Y-110499624D01*
X129300500Y-109782170D01*
X129700000Y-109782170D01*
X129704404Y-109797169D01*
X129705774Y-109798356D01*
X129713332Y-109800000D01*
X130219670Y-109800000D01*
X130234669Y-109795596D01*
X130235856Y-109794226D01*
X130237500Y-109786668D01*
X130237500Y-109782170D01*
X130637500Y-109782170D01*
X130641904Y-109797169D01*
X130643274Y-109798356D01*
X130650832Y-109800000D01*
X131157169Y-109800000D01*
X131172168Y-109795596D01*
X131173355Y-109794226D01*
X131174999Y-109786668D01*
X131174999Y-109500376D01*
X131174636Y-109493671D01*
X131169281Y-109444364D01*
X131165711Y-109429353D01*
X131121895Y-109312474D01*
X131113496Y-109297132D01*
X131039272Y-109198095D01*
X131026906Y-109185729D01*
X130937958Y-109119067D01*
X130896117Y-109063111D01*
X130891171Y-108993416D01*
X130924690Y-108932112D01*
X130942882Y-108918484D01*
X130942581Y-108918083D01*
X131050124Y-108837484D01*
X131062484Y-108825124D01*
X131137788Y-108724646D01*
X131146183Y-108709311D01*
X131190629Y-108590753D01*
X131194197Y-108575744D01*
X131199637Y-108525669D01*
X131200000Y-108518972D01*
X131200000Y-108217830D01*
X131195596Y-108202831D01*
X131194226Y-108201644D01*
X131186668Y-108200000D01*
X130667830Y-108200000D01*
X130652831Y-108204404D01*
X130651644Y-108205774D01*
X130650000Y-108213332D01*
X130650000Y-108975000D01*
X130649801Y-108975000D01*
X130649802Y-109026361D01*
X130642722Y-109039328D01*
X130637500Y-109063332D01*
X130637500Y-109782170D01*
X130237500Y-109782170D01*
X130237500Y-109050001D01*
X130237699Y-109050001D01*
X130237699Y-108998637D01*
X130244778Y-108985672D01*
X130250000Y-108961668D01*
X130250000Y-108217830D01*
X130245596Y-108202831D01*
X130244226Y-108201644D01*
X130236668Y-108200000D01*
X129717830Y-108200000D01*
X129702831Y-108204404D01*
X129701644Y-108205774D01*
X129700000Y-108213332D01*
X129700000Y-108518972D01*
X129700363Y-108525669D01*
X129705803Y-108575744D01*
X129709371Y-108590753D01*
X129753817Y-108709311D01*
X129762212Y-108724646D01*
X129837516Y-108825124D01*
X129849879Y-108837487D01*
X129948919Y-108911713D01*
X129990760Y-108967670D01*
X129995706Y-109037364D01*
X129962187Y-109098669D01*
X129948919Y-109110165D01*
X129848095Y-109185728D01*
X129835728Y-109198095D01*
X129761504Y-109297132D01*
X129753105Y-109312474D01*
X129709290Y-109429350D01*
X129705719Y-109444366D01*
X129700363Y-109493674D01*
X129700000Y-109500374D01*
X129700000Y-109782170D01*
X129300500Y-109782170D01*
X129300500Y-109496968D01*
X129293934Y-109436526D01*
X129291206Y-109429249D01*
X129291205Y-109429245D01*
X129247337Y-109312229D01*
X129244237Y-109303959D01*
X129178770Y-109216606D01*
X129164626Y-109197734D01*
X129159331Y-109190669D01*
X129152266Y-109185374D01*
X129051915Y-109110165D01*
X129010075Y-109054208D01*
X129005129Y-108984513D01*
X129038649Y-108923209D01*
X129051915Y-108911714D01*
X129150477Y-108837845D01*
X129150481Y-108837841D01*
X129157546Y-108832546D01*
X129185752Y-108794911D01*
X129238230Y-108724891D01*
X129238231Y-108724889D01*
X129243526Y-108717824D01*
X129247035Y-108708465D01*
X129264880Y-108660860D01*
X129293851Y-108583580D01*
X129300500Y-108522377D01*
X129300499Y-107782170D01*
X129700000Y-107782170D01*
X129704404Y-107797169D01*
X129705774Y-107798356D01*
X129713332Y-107800000D01*
X130232170Y-107800000D01*
X130247169Y-107795596D01*
X130248356Y-107794226D01*
X130250000Y-107786668D01*
X130250000Y-107782170D01*
X130650000Y-107782170D01*
X130654404Y-107797169D01*
X130655774Y-107798356D01*
X130663332Y-107800000D01*
X131182170Y-107800000D01*
X131197169Y-107795596D01*
X131198356Y-107794226D01*
X131200000Y-107786668D01*
X131200000Y-107481028D01*
X131199637Y-107474331D01*
X131194197Y-107424256D01*
X131190629Y-107409247D01*
X131146183Y-107290689D01*
X131137788Y-107275354D01*
X131062484Y-107174876D01*
X131050124Y-107162516D01*
X130949646Y-107087212D01*
X130934311Y-107078817D01*
X130815753Y-107034371D01*
X130800744Y-107030803D01*
X130750669Y-107025363D01*
X130743972Y-107025000D01*
X130667830Y-107025000D01*
X130652831Y-107029404D01*
X130651644Y-107030774D01*
X130650000Y-107038332D01*
X130650000Y-107782170D01*
X130250000Y-107782170D01*
X130250000Y-107042830D01*
X130245596Y-107027831D01*
X130244226Y-107026644D01*
X130236668Y-107025000D01*
X130156028Y-107025000D01*
X130149331Y-107025363D01*
X130099256Y-107030803D01*
X130084247Y-107034371D01*
X129965689Y-107078817D01*
X129950354Y-107087212D01*
X129849876Y-107162516D01*
X129837516Y-107174876D01*
X129762212Y-107275354D01*
X129753817Y-107290689D01*
X129709371Y-107409247D01*
X129705803Y-107424256D01*
X129700363Y-107474331D01*
X129700000Y-107481028D01*
X129700000Y-107782170D01*
X129300499Y-107782170D01*
X129300499Y-107477624D01*
X129293851Y-107416420D01*
X129255016Y-107312827D01*
X129246626Y-107290445D01*
X129246626Y-107290444D01*
X129243526Y-107282176D01*
X129157546Y-107167454D01*
X129061476Y-107095453D01*
X129019636Y-107039496D01*
X129014691Y-106969801D01*
X129048210Y-106908497D01*
X129067959Y-106893706D01*
X129067824Y-106893526D01*
X129175481Y-106812841D01*
X129182546Y-106807546D01*
X129187841Y-106800481D01*
X129263230Y-106699891D01*
X129263231Y-106699889D01*
X129268526Y-106692824D01*
X129318851Y-106558580D01*
X129325500Y-106497377D01*
X129325499Y-105784044D01*
X129345183Y-105717005D01*
X129361818Y-105696363D01*
X129808862Y-105249319D01*
X129870185Y-105215834D01*
X129896543Y-105213000D01*
X131475500Y-105213000D01*
X131542539Y-105232685D01*
X131588294Y-105285489D01*
X131599500Y-105337000D01*
X131599500Y-105435590D01*
X131604242Y-105467803D01*
X131605832Y-105478600D01*
X131610365Y-105509396D01*
X131614613Y-105518048D01*
X131660941Y-105612409D01*
X131660943Y-105612411D01*
X131665459Y-105621610D01*
X131693230Y-105649332D01*
X131746277Y-105702286D01*
X131753931Y-105709927D01*
X131866241Y-105764826D01*
X131907779Y-105770886D01*
X131934959Y-105774851D01*
X131934963Y-105774851D01*
X131939410Y-105775500D01*
X132260590Y-105775500D01*
X132295012Y-105770433D01*
X132324860Y-105766039D01*
X132324861Y-105766039D01*
X132334396Y-105764635D01*
X132343049Y-105760387D01*
X132343051Y-105760386D01*
X132370964Y-105746682D01*
X132439817Y-105734806D01*
X132480067Y-105746587D01*
X132507743Y-105760115D01*
X132525905Y-105765729D01*
X132532359Y-105766670D01*
X132546056Y-105764730D01*
X132550000Y-105751348D01*
X132550000Y-105618919D01*
X132562597Y-105564464D01*
X132585599Y-105517407D01*
X132585599Y-105517405D01*
X132589826Y-105508759D01*
X132597537Y-105455901D01*
X132599851Y-105440041D01*
X132599851Y-105440037D01*
X132600500Y-105435590D01*
X132600500Y-104289410D01*
X132589635Y-104215604D01*
X132573968Y-104183693D01*
X132562692Y-104160727D01*
X132550000Y-104106078D01*
X132550000Y-103973638D01*
X132546109Y-103960388D01*
X132532257Y-103958420D01*
X132525284Y-103959447D01*
X132507098Y-103965098D01*
X132480176Y-103978316D01*
X132411323Y-103990193D01*
X132371070Y-103978412D01*
X132333759Y-103960174D01*
X132292221Y-103954114D01*
X132265041Y-103950149D01*
X132265037Y-103950149D01*
X132260590Y-103949500D01*
X131939410Y-103949500D01*
X131904988Y-103954567D01*
X131875140Y-103958961D01*
X131875139Y-103958961D01*
X131865604Y-103960365D01*
X131856951Y-103964613D01*
X131856952Y-103964613D01*
X131762591Y-104010941D01*
X131762589Y-104010943D01*
X131753390Y-104015459D01*
X131746148Y-104022714D01*
X131677794Y-104091188D01*
X131665073Y-104103931D01*
X131610174Y-104216241D01*
X131599500Y-104289410D01*
X131599500Y-104388000D01*
X131579815Y-104455039D01*
X131527011Y-104500794D01*
X131475500Y-104512000D01*
X129750609Y-104512000D01*
X129730877Y-104509900D01*
X129726757Y-104509706D01*
X129716739Y-104507549D01*
X129686849Y-104511087D01*
X129686399Y-104511140D01*
X129681091Y-104511453D01*
X129681101Y-104511578D01*
X129675996Y-104512000D01*
X129670885Y-104512000D01*
X129660533Y-104513723D01*
X129653461Y-104514900D01*
X129647682Y-104515722D01*
X129611040Y-104520059D01*
X129611038Y-104520060D01*
X129600862Y-104521264D01*
X129593242Y-104524923D01*
X129584897Y-104526312D01*
X129575882Y-104531176D01*
X129575877Y-104531178D01*
X129543377Y-104548715D01*
X129538216Y-104551345D01*
X129495674Y-104571774D01*
X129491726Y-104575092D01*
X129489820Y-104576998D01*
X129488189Y-104578494D01*
X129487780Y-104578714D01*
X129487744Y-104578675D01*
X129487572Y-104578826D01*
X129482206Y-104581722D01*
X129475253Y-104589244D01*
X129448508Y-104618176D01*
X129445133Y-104621685D01*
X129044033Y-105022785D01*
X128982710Y-105056270D01*
X128933618Y-105055799D01*
X128933580Y-105056149D01*
X128872377Y-105049500D01*
X128562547Y-105049500D01*
X128252624Y-105049501D01*
X128191420Y-105056149D01*
X128057176Y-105106474D01*
X128050110Y-105111770D01*
X128050104Y-105111773D01*
X127954084Y-105183737D01*
X127888633Y-105208191D01*
X127820352Y-105193378D01*
X127788528Y-105168479D01*
X127787408Y-105167146D01*
X127785510Y-105165248D01*
X127784006Y-105163608D01*
X127783788Y-105163204D01*
X127783828Y-105163167D01*
X127783673Y-105162991D01*
X127780778Y-105157626D01*
X127744324Y-105123928D01*
X127740815Y-105120553D01*
X126386819Y-103766557D01*
X126353334Y-103705234D01*
X126350500Y-103678876D01*
X126350499Y-103302699D01*
X126350499Y-103299336D01*
X126344266Y-103241949D01*
X126297810Y-103118027D01*
X126292709Y-103048344D01*
X126326092Y-102986965D01*
X126387359Y-102953378D01*
X126413919Y-102950500D01*
X132012035Y-102950500D01*
X132079074Y-102970185D01*
X132099716Y-102986819D01*
X132913181Y-103800284D01*
X132946666Y-103861607D01*
X132949500Y-103887965D01*
X132949500Y-104107104D01*
X132936903Y-104161560D01*
X132910174Y-104216241D01*
X132899500Y-104289410D01*
X132899500Y-105435590D01*
X132904242Y-105467803D01*
X132905832Y-105478600D01*
X132910365Y-105509396D01*
X132914613Y-105518048D01*
X132937308Y-105564273D01*
X132950000Y-105618922D01*
X132950000Y-105751362D01*
X132953891Y-105764612D01*
X132967743Y-105766580D01*
X132974716Y-105765553D01*
X132992902Y-105759902D01*
X133019824Y-105746684D01*
X133088677Y-105734807D01*
X133128928Y-105746587D01*
X133166241Y-105764826D01*
X133207779Y-105770886D01*
X133234959Y-105774851D01*
X133234963Y-105774851D01*
X133239410Y-105775500D01*
X133560590Y-105775500D01*
X133634396Y-105764635D01*
X133643045Y-105760389D01*
X133643050Y-105760387D01*
X133670393Y-105746962D01*
X133739246Y-105735085D01*
X133779498Y-105746866D01*
X133807593Y-105760599D01*
X133807595Y-105760600D01*
X133816241Y-105764826D01*
X133857779Y-105770886D01*
X133884959Y-105774851D01*
X133884963Y-105774851D01*
X133889410Y-105775500D01*
X134210590Y-105775500D01*
X134245012Y-105770433D01*
X134274860Y-105766039D01*
X134274861Y-105766039D01*
X134284396Y-105764635D01*
X134320579Y-105746870D01*
X134387409Y-105714059D01*
X134387411Y-105714057D01*
X134396610Y-105709541D01*
X134454362Y-105651688D01*
X134477686Y-105628323D01*
X134477687Y-105628322D01*
X134484927Y-105621069D01*
X134506978Y-105575958D01*
X134554104Y-105524374D01*
X134621637Y-105506457D01*
X134690097Y-105529301D01*
X134695410Y-105534135D01*
X134701980Y-105537702D01*
X134701984Y-105537705D01*
X134827208Y-105605696D01*
X134833776Y-105609262D01*
X134936031Y-105636088D01*
X134978841Y-105647319D01*
X134978843Y-105647319D01*
X134986069Y-105649215D01*
X135063127Y-105650425D01*
X135136025Y-105651571D01*
X135136028Y-105651571D01*
X135143495Y-105651688D01*
X135150776Y-105650020D01*
X135150780Y-105650020D01*
X135289681Y-105618207D01*
X135296968Y-105616538D01*
X135437625Y-105545795D01*
X135443306Y-105540943D01*
X135443309Y-105540941D01*
X135551666Y-105448395D01*
X135551667Y-105448394D01*
X135557348Y-105443542D01*
X135568393Y-105428172D01*
X135633906Y-105337000D01*
X135649224Y-105315683D01*
X135707950Y-105169598D01*
X135710516Y-105151571D01*
X135729562Y-105017744D01*
X135729562Y-105017740D01*
X135730134Y-105013723D01*
X135730278Y-105000000D01*
X135723153Y-104941123D01*
X135712262Y-104851119D01*
X135712261Y-104851115D01*
X135711363Y-104843694D01*
X135697704Y-104807546D01*
X135658354Y-104703408D01*
X135658352Y-104703405D01*
X135655710Y-104696412D01*
X135648675Y-104686176D01*
X135570768Y-104572821D01*
X135570765Y-104572818D01*
X135566531Y-104566657D01*
X135491717Y-104500000D01*
X135454559Y-104466893D01*
X135454558Y-104466892D01*
X135448976Y-104461919D01*
X135309831Y-104388245D01*
X135157128Y-104349889D01*
X135075329Y-104349461D01*
X135007158Y-104349104D01*
X135007157Y-104349104D01*
X134999684Y-104349065D01*
X134992421Y-104350809D01*
X134992418Y-104350809D01*
X134923136Y-104367442D01*
X134846588Y-104385820D01*
X134839949Y-104389247D01*
X134839948Y-104389247D01*
X134822623Y-104398189D01*
X134765751Y-104412000D01*
X134674397Y-104412000D01*
X134607358Y-104392315D01*
X134561603Y-104339511D01*
X134550728Y-104297055D01*
X134550500Y-104293941D01*
X134550500Y-104289410D01*
X134549840Y-104284926D01*
X134541039Y-104225140D01*
X134541039Y-104225139D01*
X134539635Y-104215604D01*
X134524231Y-104184229D01*
X134489059Y-104112591D01*
X134489057Y-104112589D01*
X134484541Y-104103390D01*
X134435573Y-104054508D01*
X134403323Y-104022314D01*
X134403322Y-104022313D01*
X134396069Y-104015073D01*
X134283759Y-103960174D01*
X134242221Y-103954114D01*
X134215041Y-103950149D01*
X134215037Y-103950149D01*
X134210590Y-103949500D01*
X133974500Y-103949500D01*
X133907461Y-103929815D01*
X133861706Y-103877011D01*
X133850500Y-103825500D01*
X133850500Y-103684103D01*
X133851359Y-103669529D01*
X133854275Y-103644893D01*
X133854275Y-103644892D01*
X133855364Y-103635690D01*
X133853699Y-103626574D01*
X133853699Y-103626567D01*
X133844818Y-103577938D01*
X133844178Y-103574097D01*
X133836827Y-103525202D01*
X133836827Y-103525201D01*
X133835449Y-103516038D01*
X133832323Y-103509528D01*
X133831026Y-103502427D01*
X133824704Y-103490256D01*
X133803961Y-103450322D01*
X133802221Y-103446840D01*
X133780822Y-103402277D01*
X133780821Y-103402275D01*
X133776809Y-103393921D01*
X133771984Y-103388702D01*
X133771839Y-103388487D01*
X133768580Y-103382212D01*
X133764276Y-103377172D01*
X133726995Y-103339891D01*
X133723620Y-103336381D01*
X133696623Y-103307176D01*
X133684854Y-103294444D01*
X133678519Y-103290765D01*
X133672282Y-103285178D01*
X132592666Y-102205563D01*
X132582968Y-102194650D01*
X132567611Y-102175169D01*
X132567608Y-102175167D01*
X132561872Y-102167890D01*
X132513554Y-102134495D01*
X132510454Y-102132281D01*
X132463184Y-102097366D01*
X132456368Y-102094973D01*
X132450431Y-102090869D01*
X132394481Y-102073174D01*
X132390791Y-102071943D01*
X132344116Y-102055552D01*
X132344112Y-102055551D01*
X132335369Y-102052481D01*
X132328265Y-102052202D01*
X132328014Y-102052153D01*
X132321270Y-102050020D01*
X132314663Y-102049500D01*
X132261932Y-102049500D01*
X132257063Y-102049404D01*
X132209273Y-102047526D01*
X132209272Y-102047526D01*
X132200006Y-102047162D01*
X132192922Y-102049040D01*
X132184562Y-102049500D01*
X126413919Y-102049500D01*
X126346880Y-102029815D01*
X126301125Y-101977011D01*
X126291181Y-101907853D01*
X126297810Y-101881973D01*
X126341537Y-101765332D01*
X126341538Y-101765328D01*
X126344266Y-101758051D01*
X126350500Y-101700665D01*
X126350499Y-101174336D01*
X126344266Y-101116949D01*
X126297083Y-100991088D01*
X126216472Y-100883528D01*
X126108912Y-100802917D01*
X126030973Y-100773699D01*
X125975109Y-100731735D01*
X125950801Y-100666230D01*
X125950500Y-100657590D01*
X125950500Y-100413954D01*
X125970185Y-100346915D01*
X125971715Y-100344677D01*
X125978050Y-100338342D01*
X126035646Y-100225304D01*
X126050500Y-100131519D01*
X126050499Y-99768482D01*
X126035646Y-99674696D01*
X125978050Y-99561658D01*
X125971148Y-99554756D01*
X125965845Y-99547457D01*
X125942364Y-99481651D01*
X125958189Y-99413596D01*
X125965845Y-99401683D01*
X125982071Y-99379350D01*
X126030734Y-99283845D01*
X126036692Y-99265505D01*
X126044278Y-99217609D01*
X126042538Y-99204145D01*
X126028786Y-99200000D01*
X124245764Y-99200000D01*
X124232735Y-99203826D01*
X124230793Y-99218053D01*
X124238309Y-99265513D01*
X124244264Y-99283840D01*
X124292929Y-99379350D01*
X124309155Y-99401683D01*
X124332636Y-99467489D01*
X124316811Y-99535543D01*
X124309155Y-99547457D01*
X124303852Y-99554756D01*
X124296950Y-99561658D01*
X124239354Y-99674696D01*
X124237827Y-99684338D01*
X124231415Y-99724824D01*
X124224500Y-99768481D01*
X124224501Y-100131518D01*
X124239354Y-100225304D01*
X124296950Y-100338342D01*
X124386658Y-100428050D01*
X124499696Y-100485646D01*
X124528933Y-100490277D01*
X124588661Y-100499737D01*
X124588666Y-100499737D01*
X124593481Y-100500500D01*
X124925500Y-100500500D01*
X124992539Y-100520185D01*
X125038294Y-100572989D01*
X125049500Y-100624500D01*
X125049500Y-100657590D01*
X125029815Y-100724629D01*
X124977011Y-100770384D01*
X124969027Y-100773699D01*
X124891088Y-100802917D01*
X124783528Y-100883528D01*
X124702917Y-100991088D01*
X124699814Y-100999364D01*
X124699814Y-100999365D01*
X124658463Y-101109668D01*
X124658462Y-101109672D01*
X124655734Y-101116949D01*
X124649500Y-101174335D01*
X124649501Y-101700664D01*
X124655734Y-101758051D01*
X124689946Y-101849312D01*
X124702190Y-101881973D01*
X124707291Y-101951656D01*
X124673908Y-102013035D01*
X124612641Y-102046622D01*
X124586081Y-102049500D01*
X124019502Y-102049500D01*
X123952463Y-102029815D01*
X123937013Y-102018083D01*
X123879559Y-101966893D01*
X123879557Y-101966892D01*
X123873976Y-101961919D01*
X123734831Y-101888245D01*
X123582128Y-101849889D01*
X123523122Y-101849580D01*
X123471903Y-101849312D01*
X123404967Y-101829277D01*
X123359490Y-101776234D01*
X123349277Y-101711921D01*
X123350138Y-101704000D01*
X123350138Y-101703995D01*
X123350500Y-101700665D01*
X123350499Y-101174336D01*
X123344266Y-101116949D01*
X123297083Y-100991088D01*
X123216472Y-100883528D01*
X123108912Y-100802917D01*
X123030973Y-100773699D01*
X122975109Y-100731735D01*
X122950801Y-100666230D01*
X122950500Y-100657590D01*
X122950500Y-100624499D01*
X122970185Y-100557460D01*
X123022989Y-100511705D01*
X123074500Y-100500499D01*
X123406518Y-100500499D01*
X123479151Y-100488996D01*
X123490669Y-100487172D01*
X123490670Y-100487172D01*
X123500304Y-100485646D01*
X123613342Y-100428050D01*
X123703050Y-100338342D01*
X123760646Y-100225304D01*
X123775500Y-100131519D01*
X123775499Y-99768482D01*
X123760646Y-99674696D01*
X123703050Y-99561658D01*
X123613342Y-99471950D01*
X123500304Y-99414354D01*
X123471067Y-99409723D01*
X123411339Y-99400263D01*
X123411334Y-99400263D01*
X123406519Y-99399500D01*
X123401641Y-99399500D01*
X122862110Y-99399501D01*
X122318482Y-99399501D01*
X122245849Y-99411004D01*
X122234331Y-99412828D01*
X122234330Y-99412828D01*
X122224696Y-99414354D01*
X122111658Y-99471950D01*
X122021950Y-99561658D01*
X121964354Y-99674696D01*
X121962827Y-99684338D01*
X121956415Y-99724824D01*
X121949500Y-99768481D01*
X121949501Y-100131518D01*
X121964354Y-100225304D01*
X122021950Y-100338342D01*
X122026451Y-100342843D01*
X122049298Y-100406873D01*
X122049500Y-100413954D01*
X122049500Y-100657590D01*
X122029815Y-100724629D01*
X121977011Y-100770384D01*
X121969027Y-100773699D01*
X121891088Y-100802917D01*
X121783528Y-100883528D01*
X121702917Y-100991088D01*
X121699814Y-100999364D01*
X121699814Y-100999365D01*
X121658463Y-101109668D01*
X121658462Y-101109672D01*
X121655734Y-101116949D01*
X121649500Y-101174335D01*
X121649501Y-101700664D01*
X121655734Y-101758051D01*
X121702917Y-101883912D01*
X121783528Y-101991472D01*
X121891088Y-102072083D01*
X121899364Y-102075186D01*
X121899365Y-102075186D01*
X122009668Y-102116537D01*
X122009672Y-102116538D01*
X122016949Y-102119266D01*
X122074335Y-102125500D01*
X122091919Y-102125500D01*
X122766349Y-102125499D01*
X122833387Y-102145183D01*
X122879142Y-102197987D01*
X122889086Y-102267146D01*
X122881878Y-102294540D01*
X122865309Y-102337039D01*
X122844758Y-102493138D01*
X122845578Y-102500565D01*
X122845578Y-102500566D01*
X122846924Y-102512753D01*
X122834716Y-102581548D01*
X122811354Y-102614043D01*
X122587215Y-102838181D01*
X122525892Y-102871666D01*
X122499534Y-102874500D01*
X122103622Y-102874501D01*
X122074336Y-102874501D01*
X122070995Y-102874864D01*
X122070993Y-102874864D01*
X122024682Y-102879894D01*
X122024681Y-102879894D01*
X122016949Y-102880734D01*
X121891088Y-102927917D01*
X121783528Y-103008528D01*
X121702917Y-103116088D01*
X121699814Y-103124364D01*
X121699814Y-103124365D01*
X121658463Y-103234668D01*
X121658462Y-103234672D01*
X121655734Y-103241949D01*
X121649500Y-103299335D01*
X121649501Y-103825664D01*
X121649864Y-103829002D01*
X121649864Y-103829007D01*
X121654894Y-103875318D01*
X121655734Y-103883051D01*
X121702917Y-104008912D01*
X121783528Y-104116472D01*
X121891088Y-104197083D01*
X121899364Y-104200186D01*
X121899365Y-104200186D01*
X122009668Y-104241537D01*
X122009672Y-104241538D01*
X122016949Y-104244266D01*
X122024677Y-104245105D01*
X122024683Y-104245107D01*
X122033895Y-104246108D01*
X122098416Y-104272919D01*
X122138199Y-104330356D01*
X122144500Y-104369382D01*
X122144500Y-107386046D01*
X122124815Y-107453085D01*
X122123285Y-107455323D01*
X122116950Y-107461658D01*
X122059354Y-107574696D01*
X122057827Y-107584338D01*
X122045427Y-107662631D01*
X122044500Y-107668481D01*
X122044501Y-109381518D01*
X122059354Y-109475304D01*
X122116950Y-109588342D01*
X122123852Y-109595244D01*
X122125818Y-109597950D01*
X122149298Y-109663756D01*
X122149500Y-109670836D01*
X122149500Y-110474777D01*
X122129815Y-110541816D01*
X122118204Y-110557023D01*
X122113034Y-110561533D01*
X122022501Y-110690348D01*
X121965309Y-110837039D01*
X121944758Y-110993138D01*
X121945578Y-111000566D01*
X121945578Y-111000568D01*
X121948833Y-111030053D01*
X121962035Y-111149633D01*
X122016143Y-111297490D01*
X122103958Y-111428172D01*
X122149266Y-111469399D01*
X122214878Y-111529102D01*
X122214882Y-111529105D01*
X122220410Y-111534135D01*
X122226980Y-111537702D01*
X122226981Y-111537703D01*
X122232945Y-111540941D01*
X122358776Y-111609262D01*
X122443242Y-111631421D01*
X122503841Y-111647319D01*
X122503843Y-111647319D01*
X122511069Y-111649215D01*
X122588127Y-111650425D01*
X122661025Y-111651571D01*
X122661028Y-111651571D01*
X122668495Y-111651688D01*
X122675776Y-111650020D01*
X122675780Y-111650020D01*
X122814681Y-111618207D01*
X122821968Y-111616538D01*
X122962625Y-111545795D01*
X122968306Y-111540943D01*
X122968309Y-111540941D01*
X123076666Y-111448395D01*
X123076667Y-111448394D01*
X123082348Y-111443542D01*
X123090666Y-111431967D01*
X123128140Y-111379815D01*
X123174224Y-111315683D01*
X123232950Y-111169598D01*
X123234793Y-111156649D01*
X123254562Y-111017744D01*
X123254562Y-111017740D01*
X123255134Y-111013723D01*
X123255278Y-111000000D01*
X123250802Y-110963014D01*
X123237262Y-110851119D01*
X123237261Y-110851115D01*
X123236363Y-110843694D01*
X123180710Y-110696412D01*
X123168907Y-110679239D01*
X123095768Y-110572821D01*
X123095765Y-110572818D01*
X123091531Y-110566657D01*
X123085945Y-110561680D01*
X123081488Y-110556625D01*
X123051918Y-110493321D01*
X123050500Y-110474620D01*
X123050500Y-109657072D01*
X123069697Y-109591695D01*
X123073050Y-109588342D01*
X123077481Y-109579647D01*
X123119515Y-109497150D01*
X123167490Y-109446354D01*
X123235311Y-109429559D01*
X123301446Y-109452097D01*
X123340485Y-109497150D01*
X123386950Y-109588342D01*
X123476658Y-109678050D01*
X123589696Y-109735646D01*
X123611832Y-109739152D01*
X123678661Y-109749737D01*
X123678666Y-109749737D01*
X123683481Y-109750500D01*
X123688359Y-109750500D01*
X123865130Y-109750499D01*
X124046518Y-109750499D01*
X124119151Y-109738996D01*
X124130669Y-109737172D01*
X124130670Y-109737172D01*
X124140304Y-109735646D01*
X124253342Y-109678050D01*
X124343050Y-109588342D01*
X124389515Y-109497150D01*
X124437490Y-109446354D01*
X124505311Y-109429559D01*
X124571446Y-109452097D01*
X124610485Y-109497150D01*
X124656950Y-109588342D01*
X124746658Y-109678050D01*
X124859696Y-109735646D01*
X124881832Y-109739152D01*
X124948661Y-109749737D01*
X124948666Y-109749737D01*
X124953481Y-109750500D01*
X124958359Y-109750500D01*
X125135130Y-109750499D01*
X125316518Y-109750499D01*
X125389151Y-109738996D01*
X125400669Y-109737172D01*
X125400670Y-109737172D01*
X125410304Y-109735646D01*
X125523342Y-109678050D01*
X125613050Y-109588342D01*
X125659515Y-109497150D01*
X125707490Y-109446354D01*
X125775311Y-109429559D01*
X125841446Y-109452097D01*
X125880485Y-109497150D01*
X125926950Y-109588342D01*
X125958782Y-109620174D01*
X125992267Y-109681497D01*
X125987283Y-109751189D01*
X125958782Y-109795536D01*
X123652949Y-112101369D01*
X123637500Y-112113846D01*
X123634452Y-112116619D01*
X123625848Y-112122175D01*
X123619506Y-112130220D01*
X123606927Y-112146176D01*
X123603401Y-112150144D01*
X123603497Y-112150225D01*
X123600191Y-112154127D01*
X123596572Y-112157746D01*
X123586313Y-112172103D01*
X123582821Y-112176755D01*
X123553608Y-112213811D01*
X123550807Y-112221787D01*
X123545889Y-112228669D01*
X123542953Y-112238485D01*
X123542952Y-112238488D01*
X123540631Y-112246248D01*
X123502563Y-112304836D01*
X123492903Y-112311305D01*
X123493250Y-112311782D01*
X123485353Y-112317520D01*
X123476658Y-112321950D01*
X123386950Y-112411658D01*
X123354425Y-112475492D01*
X123340485Y-112502850D01*
X123292510Y-112553646D01*
X123224689Y-112570441D01*
X123158554Y-112547903D01*
X123119515Y-112502850D01*
X123105575Y-112475492D01*
X123073050Y-112411658D01*
X122983342Y-112321950D01*
X122870304Y-112264354D01*
X122841067Y-112259723D01*
X122781339Y-112250263D01*
X122781334Y-112250263D01*
X122776519Y-112249500D01*
X122771641Y-112249500D01*
X122594870Y-112249501D01*
X122413482Y-112249501D01*
X122340849Y-112261004D01*
X122329331Y-112262828D01*
X122329330Y-112262828D01*
X122319696Y-112264354D01*
X122206658Y-112321950D01*
X122116950Y-112411658D01*
X122059354Y-112524696D01*
X122057827Y-112534338D01*
X122050261Y-112582110D01*
X122044500Y-112618481D01*
X122044501Y-113291137D01*
X122044501Y-113684458D01*
X122024817Y-113751497D01*
X121972013Y-113797252D01*
X121902854Y-113807196D01*
X121839298Y-113778171D01*
X121832820Y-113772139D01*
X120277721Y-112217039D01*
X118572854Y-110512172D01*
X118539369Y-110450849D01*
X118543116Y-110384632D01*
X118597852Y-110223387D01*
X118597853Y-110223384D01*
X118599678Y-110218007D01*
X118601452Y-110205774D01*
X118628176Y-110021458D01*
X118628176Y-110021453D01*
X118628700Y-110017842D01*
X118629133Y-110001331D01*
X118630119Y-109963661D01*
X118630215Y-109960000D01*
X118611708Y-109758591D01*
X118569593Y-109609262D01*
X118558352Y-109569403D01*
X118558351Y-109569400D01*
X118556807Y-109563926D01*
X118467351Y-109382527D01*
X118346335Y-109220467D01*
X118269221Y-109149184D01*
X118201988Y-109087034D01*
X118201986Y-109087033D01*
X118197812Y-109083174D01*
X118170374Y-109065862D01*
X118031566Y-108978280D01*
X118031564Y-108978279D01*
X118026757Y-108975246D01*
X117838898Y-108900298D01*
X117833317Y-108899188D01*
X117833314Y-108899187D01*
X117757345Y-108884076D01*
X117640526Y-108860839D01*
X117634839Y-108860765D01*
X117634834Y-108860764D01*
X117443975Y-108858266D01*
X117443970Y-108858266D01*
X117438286Y-108858192D01*
X117432682Y-108859155D01*
X117432681Y-108859155D01*
X117244546Y-108891482D01*
X117244543Y-108891483D01*
X117238949Y-108892444D01*
X117189731Y-108910601D01*
X117054521Y-108960483D01*
X117054517Y-108960485D01*
X117049193Y-108962449D01*
X117044310Y-108965354D01*
X117044308Y-108965355D01*
X116887900Y-109058408D01*
X116820221Y-109075768D01*
X116753901Y-109053782D01*
X116709995Y-108999431D01*
X116700500Y-108951842D01*
X116700500Y-108644500D01*
X116720185Y-108577461D01*
X116772989Y-108531706D01*
X116824500Y-108520500D01*
X118399674Y-108520500D01*
X118405650Y-108519311D01*
X118405653Y-108519311D01*
X118438687Y-108512740D01*
X118472740Y-108505966D01*
X118555601Y-108450601D01*
X118572130Y-108425864D01*
X118604180Y-108377896D01*
X118610966Y-108367740D01*
X118620127Y-108321686D01*
X118624311Y-108300653D01*
X118624311Y-108300650D01*
X118625500Y-108294674D01*
X118625500Y-106545326D01*
X118610966Y-106472260D01*
X118555601Y-106389399D01*
X118472740Y-106334034D01*
X118438687Y-106327260D01*
X118405653Y-106320689D01*
X118405650Y-106320689D01*
X118399674Y-106319500D01*
X116824500Y-106319500D01*
X116757461Y-106299815D01*
X116711706Y-106247011D01*
X116700500Y-106195500D01*
X116700500Y-102487965D01*
X116720185Y-102420926D01*
X116736819Y-102400284D01*
X120600284Y-98536819D01*
X120661607Y-98503334D01*
X120687965Y-98500500D01*
X122036046Y-98500500D01*
X122103085Y-98520185D01*
X122105323Y-98521715D01*
X122111658Y-98528050D01*
X122224696Y-98585646D01*
X122253933Y-98590277D01*
X122313661Y-98599737D01*
X122313666Y-98599737D01*
X122318481Y-98600500D01*
X122323359Y-98600500D01*
X122862890Y-98600499D01*
X123406518Y-98600499D01*
X123479151Y-98588996D01*
X123490669Y-98587172D01*
X123490670Y-98587172D01*
X123500304Y-98585646D01*
X123613342Y-98528050D01*
X123617843Y-98523549D01*
X123681873Y-98500702D01*
X123688954Y-98500500D01*
X124151798Y-98500500D01*
X124218837Y-98520185D01*
X124264592Y-98572989D01*
X124274536Y-98642147D01*
X124262283Y-98680794D01*
X124244267Y-98716152D01*
X124238308Y-98734495D01*
X124230722Y-98782391D01*
X124232462Y-98795855D01*
X124246214Y-98800000D01*
X126029236Y-98800000D01*
X126042265Y-98796174D01*
X126044207Y-98781947D01*
X126036691Y-98734487D01*
X126030735Y-98716157D01*
X126012717Y-98680794D01*
X125999821Y-98612125D01*
X126026098Y-98547385D01*
X126083204Y-98507128D01*
X126123202Y-98500500D01*
X126818496Y-98500500D01*
X126885535Y-98520185D01*
X126921417Y-98555339D01*
X126973257Y-98632485D01*
X127003958Y-98678172D01*
X127045698Y-98716152D01*
X127114878Y-98779102D01*
X127114882Y-98779105D01*
X127120410Y-98784135D01*
X127126980Y-98787702D01*
X127126981Y-98787703D01*
X127171489Y-98811869D01*
X127258776Y-98859262D01*
X127361031Y-98886088D01*
X127403841Y-98897319D01*
X127403843Y-98897319D01*
X127411069Y-98899215D01*
X127457381Y-98899943D01*
X127463507Y-98900039D01*
X127530229Y-98920775D01*
X127549240Y-98936343D01*
X128180908Y-99568011D01*
X128190606Y-99578924D01*
X128211703Y-99605685D01*
X128219328Y-99610955D01*
X128219329Y-99610956D01*
X128259972Y-99639046D01*
X128263141Y-99641310D01*
X128310392Y-99676210D01*
X128317209Y-99678604D01*
X128323144Y-99682706D01*
X128331983Y-99685501D01*
X128331984Y-99685502D01*
X128379094Y-99700401D01*
X128382737Y-99701616D01*
X128438206Y-99721095D01*
X128445308Y-99721374D01*
X128445570Y-99721426D01*
X128452305Y-99723555D01*
X128458912Y-99724075D01*
X128511618Y-99724075D01*
X128516487Y-99724171D01*
X128573569Y-99726414D01*
X128580653Y-99724535D01*
X128589018Y-99724075D01*
X141126000Y-99724075D01*
X141193039Y-99743760D01*
X141238794Y-99796564D01*
X141250000Y-99848075D01*
X141250000Y-103822681D01*
X141230315Y-103889720D01*
X141177511Y-103935475D01*
X141108353Y-103945419D01*
X141067977Y-103932268D01*
X140991443Y-103891745D01*
X140991437Y-103891743D01*
X140984831Y-103888245D01*
X140832128Y-103849889D01*
X140760089Y-103849512D01*
X140682165Y-103849104D01*
X140682164Y-103849104D01*
X140674684Y-103849065D01*
X140667413Y-103850811D01*
X140663391Y-103851276D01*
X140594533Y-103839425D01*
X140561460Y-103815778D01*
X140533631Y-103787949D01*
X140521154Y-103772500D01*
X140518381Y-103769452D01*
X140512825Y-103760848D01*
X140488824Y-103741927D01*
X140484856Y-103738401D01*
X140484775Y-103738497D01*
X140480873Y-103735191D01*
X140477254Y-103731572D01*
X140462886Y-103721304D01*
X140458245Y-103717821D01*
X140421189Y-103688608D01*
X140413213Y-103685807D01*
X140406331Y-103680889D01*
X140396517Y-103677954D01*
X140396515Y-103677953D01*
X140361156Y-103667379D01*
X140355599Y-103665574D01*
X140345914Y-103662173D01*
X140289184Y-103621388D01*
X140263509Y-103556407D01*
X140262999Y-103545177D01*
X140262999Y-103502624D01*
X140256351Y-103441420D01*
X140206026Y-103307176D01*
X140200151Y-103299336D01*
X140125341Y-103199519D01*
X140120046Y-103192454D01*
X140107468Y-103183027D01*
X140012391Y-103111770D01*
X140012389Y-103111769D01*
X140005324Y-103106474D01*
X139871080Y-103056149D01*
X139809877Y-103049500D01*
X139500047Y-103049500D01*
X139190124Y-103049501D01*
X139128920Y-103056149D01*
X138994676Y-103106474D01*
X138987611Y-103111769D01*
X138987609Y-103111770D01*
X138892532Y-103183027D01*
X138879954Y-103192454D01*
X138874659Y-103199519D01*
X138799850Y-103299336D01*
X138793974Y-103307176D01*
X138743649Y-103441420D01*
X138737000Y-103502623D01*
X138737001Y-103778615D01*
X138737001Y-104003507D01*
X138717317Y-104070546D01*
X138700682Y-104091188D01*
X138649681Y-104142189D01*
X138588358Y-104175674D01*
X138518666Y-104170690D01*
X138462733Y-104128818D01*
X138438316Y-104063354D01*
X138438000Y-104054508D01*
X138437999Y-103505985D01*
X138437999Y-103502624D01*
X138431351Y-103441420D01*
X138381026Y-103307176D01*
X138375151Y-103299336D01*
X138300341Y-103199519D01*
X138295046Y-103192454D01*
X138282468Y-103183027D01*
X138187391Y-103111770D01*
X138187389Y-103111769D01*
X138180324Y-103106474D01*
X138046080Y-103056149D01*
X137984877Y-103049500D01*
X137675047Y-103049500D01*
X137365124Y-103049501D01*
X137303920Y-103056149D01*
X137169676Y-103106474D01*
X137162611Y-103111769D01*
X137162609Y-103111770D01*
X137067532Y-103183027D01*
X137054954Y-103192454D01*
X137049659Y-103199519D01*
X136974850Y-103299336D01*
X136968974Y-103307176D01*
X136918649Y-103441420D01*
X136912000Y-103502623D01*
X136912001Y-103884076D01*
X136912001Y-104215955D01*
X136892317Y-104282994D01*
X136875682Y-104303636D01*
X136537949Y-104641369D01*
X136522500Y-104653846D01*
X136519452Y-104656619D01*
X136510848Y-104662175D01*
X136504506Y-104670220D01*
X136491927Y-104686176D01*
X136488401Y-104690144D01*
X136488497Y-104690225D01*
X136485191Y-104694127D01*
X136481572Y-104697746D01*
X136471313Y-104712103D01*
X136467821Y-104716755D01*
X136438608Y-104753811D01*
X136435807Y-104761787D01*
X136430889Y-104768669D01*
X136427954Y-104778483D01*
X136427953Y-104778485D01*
X136417379Y-104813844D01*
X136415573Y-104819403D01*
X136410080Y-104835045D01*
X136399945Y-104863906D01*
X136399500Y-104869044D01*
X136399500Y-104871726D01*
X136399404Y-104873950D01*
X136399273Y-104874388D01*
X136399219Y-104874386D01*
X136399204Y-104874617D01*
X136397456Y-104880464D01*
X136397858Y-104890705D01*
X136397858Y-104890708D01*
X136399404Y-104930045D01*
X136399500Y-104934913D01*
X136399500Y-105771996D01*
X136379815Y-105839035D01*
X136327011Y-105884790D01*
X136257853Y-105894734D01*
X136236675Y-105889222D01*
X136234831Y-105888245D01*
X136227586Y-105886425D01*
X136227583Y-105886424D01*
X136089378Y-105851710D01*
X136082128Y-105849889D01*
X136000329Y-105849461D01*
X135932158Y-105849104D01*
X135932157Y-105849104D01*
X135924684Y-105849065D01*
X135917421Y-105850809D01*
X135917418Y-105850809D01*
X135869002Y-105862433D01*
X135771588Y-105885820D01*
X135631679Y-105958032D01*
X135626048Y-105962945D01*
X135626047Y-105962945D01*
X135604844Y-105981442D01*
X135513034Y-106061533D01*
X135422501Y-106190348D01*
X135419785Y-106197313D01*
X135419785Y-106197314D01*
X135400409Y-106247011D01*
X135365309Y-106337039D01*
X135344758Y-106493138D01*
X135345578Y-106500566D01*
X135345578Y-106500569D01*
X135354770Y-106583831D01*
X135342561Y-106652625D01*
X135319200Y-106685118D01*
X135253637Y-106750681D01*
X135192314Y-106784166D01*
X135165956Y-106787000D01*
X134674500Y-106787000D01*
X134607461Y-106767315D01*
X134561706Y-106714511D01*
X134550500Y-106663000D01*
X134550500Y-106564410D01*
X134539635Y-106490604D01*
X134494931Y-106399552D01*
X134489059Y-106387591D01*
X134489057Y-106387589D01*
X134484541Y-106378390D01*
X134405828Y-106299815D01*
X134403323Y-106297314D01*
X134403322Y-106297313D01*
X134396069Y-106290073D01*
X134283759Y-106235174D01*
X134242221Y-106229114D01*
X134215041Y-106225149D01*
X134215037Y-106225149D01*
X134210590Y-106224500D01*
X133889410Y-106224500D01*
X133815604Y-106235365D01*
X133806955Y-106239611D01*
X133806950Y-106239613D01*
X133779607Y-106253038D01*
X133710754Y-106264915D01*
X133670502Y-106253134D01*
X133642407Y-106239401D01*
X133642405Y-106239400D01*
X133633759Y-106235174D01*
X133592221Y-106229114D01*
X133565041Y-106225149D01*
X133565037Y-106225149D01*
X133560590Y-106224500D01*
X133239410Y-106224500D01*
X133165604Y-106235365D01*
X133156955Y-106239611D01*
X133156950Y-106239613D01*
X133129607Y-106253038D01*
X133060754Y-106264915D01*
X133020502Y-106253134D01*
X132992407Y-106239401D01*
X132992405Y-106239400D01*
X132983759Y-106235174D01*
X132942221Y-106229114D01*
X132915041Y-106225149D01*
X132915037Y-106225149D01*
X132910590Y-106224500D01*
X132589410Y-106224500D01*
X132515604Y-106235365D01*
X132506955Y-106239611D01*
X132506950Y-106239613D01*
X132479607Y-106253038D01*
X132410754Y-106264915D01*
X132370502Y-106253134D01*
X132342407Y-106239401D01*
X132342405Y-106239400D01*
X132333759Y-106235174D01*
X132292221Y-106229114D01*
X132265041Y-106225149D01*
X132265037Y-106225149D01*
X132260590Y-106224500D01*
X131939410Y-106224500D01*
X131904988Y-106229567D01*
X131875140Y-106233961D01*
X131875139Y-106233961D01*
X131865604Y-106235365D01*
X131856951Y-106239613D01*
X131856952Y-106239613D01*
X131762591Y-106285941D01*
X131762589Y-106285943D01*
X131753390Y-106290459D01*
X131665073Y-106378931D01*
X131610174Y-106491241D01*
X131608785Y-106500765D01*
X131601478Y-106550854D01*
X131599500Y-106564410D01*
X131599500Y-107710590D01*
X131600160Y-107715072D01*
X131608117Y-107769123D01*
X131610365Y-107784396D01*
X131636809Y-107838255D01*
X131649500Y-107892903D01*
X131649500Y-108315897D01*
X131648641Y-108330471D01*
X131644636Y-108364310D01*
X131646302Y-108373431D01*
X131655176Y-108422022D01*
X131655816Y-108425864D01*
X131664551Y-108483962D01*
X131667679Y-108490475D01*
X131668975Y-108497573D01*
X131673248Y-108505799D01*
X131696033Y-108549663D01*
X131697769Y-108553137D01*
X131723191Y-108606079D01*
X131728016Y-108611299D01*
X131728165Y-108611520D01*
X131731421Y-108617788D01*
X131735725Y-108622828D01*
X131772994Y-108660097D01*
X131776369Y-108663607D01*
X131815146Y-108705556D01*
X131812586Y-108707922D01*
X131842790Y-108751154D01*
X131848502Y-108777049D01*
X131862035Y-108899633D01*
X131864601Y-108906645D01*
X131864602Y-108906649D01*
X131888934Y-108973139D01*
X131916143Y-109047490D01*
X131920314Y-109053697D01*
X131984781Y-109149633D01*
X132003958Y-109178172D01*
X132050440Y-109220467D01*
X132114878Y-109279102D01*
X132114882Y-109279105D01*
X132120410Y-109284135D01*
X132126980Y-109287702D01*
X132126981Y-109287703D01*
X132218535Y-109337413D01*
X132258776Y-109359262D01*
X132347458Y-109382527D01*
X132403841Y-109397319D01*
X132403843Y-109397319D01*
X132411069Y-109399215D01*
X132457381Y-109399943D01*
X132463507Y-109400039D01*
X132530229Y-109420775D01*
X132549240Y-109436343D01*
X135151216Y-112038319D01*
X135184701Y-112099642D01*
X135179717Y-112169334D01*
X135137845Y-112225267D01*
X135072381Y-112249684D01*
X135063535Y-112250000D01*
X134250000Y-112250000D01*
X134250000Y-123376000D01*
X134230315Y-123443039D01*
X134177511Y-123488794D01*
X134126000Y-123500000D01*
X126500000Y-123500000D01*
X126500000Y-129625500D01*
X126480315Y-129692539D01*
X126427511Y-129738294D01*
X126376000Y-129749500D01*
X119036885Y-129749500D01*
X119012694Y-129747117D01*
X119011980Y-129746975D01*
X119000000Y-129744592D01*
X118988020Y-129746975D01*
X118975815Y-129746975D01*
X118964942Y-129747778D01*
X118638563Y-129731744D01*
X118626460Y-129730551D01*
X118274525Y-129678346D01*
X118262606Y-129675975D01*
X117917479Y-129589526D01*
X117905846Y-129585997D01*
X117675963Y-129503743D01*
X117570872Y-129466141D01*
X117559630Y-129461485D01*
X117238000Y-129309366D01*
X117227268Y-129303629D01*
X116922118Y-129120729D01*
X116912000Y-129113969D01*
X116626230Y-128902028D01*
X116616824Y-128894308D01*
X116353217Y-128655388D01*
X116344612Y-128646783D01*
X116105692Y-128383176D01*
X116097972Y-128373770D01*
X115886031Y-128088000D01*
X115879271Y-128077882D01*
X115696371Y-127772732D01*
X115690634Y-127762000D01*
X115538515Y-127440370D01*
X115533859Y-127429128D01*
X115476395Y-127268528D01*
X115414003Y-127094154D01*
X115410473Y-127082518D01*
X115335163Y-126781862D01*
X115324025Y-126737394D01*
X115321652Y-126725467D01*
X115321194Y-126722376D01*
X115269449Y-126373540D01*
X115268256Y-126361433D01*
X115264362Y-126282170D01*
X115252222Y-126035058D01*
X115253025Y-126024185D01*
X115253025Y-126011980D01*
X115255408Y-126000000D01*
X115252883Y-125987306D01*
X115250500Y-125963115D01*
X115250500Y-99036885D01*
X115252883Y-99012694D01*
X115253025Y-99011980D01*
X115255408Y-99000000D01*
X115253025Y-98988020D01*
X115253025Y-98975815D01*
X115252222Y-98964939D01*
X115253376Y-98941465D01*
X115268256Y-98638563D01*
X115269449Y-98626457D01*
X115321654Y-98274525D01*
X115324026Y-98262599D01*
X115329780Y-98239631D01*
X115410474Y-97917479D01*
X115414003Y-97905846D01*
X115515860Y-97621175D01*
X115533859Y-97570872D01*
X115538515Y-97559630D01*
X115669743Y-97282170D01*
X130100000Y-97282170D01*
X130104404Y-97297169D01*
X130105774Y-97298356D01*
X130113332Y-97300000D01*
X130982170Y-97300000D01*
X130997169Y-97295596D01*
X130998356Y-97294226D01*
X131000000Y-97286668D01*
X131000000Y-97282170D01*
X131400000Y-97282170D01*
X131404404Y-97297169D01*
X131405774Y-97298356D01*
X131413332Y-97300000D01*
X132282170Y-97300000D01*
X132297169Y-97295596D01*
X132298356Y-97294226D01*
X132300000Y-97286668D01*
X132300000Y-96631472D01*
X132298810Y-96619396D01*
X132287878Y-96564433D01*
X132278710Y-96542301D01*
X132237024Y-96479913D01*
X132220087Y-96462976D01*
X132157699Y-96421290D01*
X132135567Y-96412122D01*
X132080604Y-96401190D01*
X132068528Y-96400000D01*
X131417830Y-96400000D01*
X131402831Y-96404404D01*
X131401644Y-96405774D01*
X131400000Y-96413332D01*
X131400000Y-97282170D01*
X131000000Y-97282170D01*
X131000000Y-96417830D01*
X130995596Y-96402831D01*
X130994226Y-96401644D01*
X130986668Y-96400000D01*
X130331472Y-96400000D01*
X130319396Y-96401190D01*
X130264433Y-96412122D01*
X130242301Y-96421290D01*
X130179913Y-96462976D01*
X130162976Y-96479913D01*
X130121290Y-96542301D01*
X130112122Y-96564433D01*
X130101190Y-96619396D01*
X130100000Y-96631472D01*
X130100000Y-97282170D01*
X115669743Y-97282170D01*
X115690634Y-97238000D01*
X115696371Y-97227268D01*
X115879271Y-96922118D01*
X115886031Y-96912000D01*
X116097972Y-96626230D01*
X116105692Y-96616824D01*
X116344612Y-96353217D01*
X116353217Y-96344612D01*
X116616824Y-96105692D01*
X116626230Y-96097972D01*
X116912000Y-95886031D01*
X116922118Y-95879271D01*
X117227268Y-95696371D01*
X117238000Y-95690634D01*
X117559630Y-95538515D01*
X117570872Y-95533859D01*
X117675963Y-95496257D01*
X117905846Y-95414003D01*
X117917479Y-95410474D01*
X118262606Y-95324025D01*
X118274525Y-95321654D01*
X118626460Y-95269449D01*
X118638563Y-95268256D01*
X118964942Y-95252222D01*
X118975815Y-95253025D01*
X118988020Y-95253025D01*
X119000000Y-95255408D01*
X119011980Y-95253025D01*
X119012694Y-95252883D01*
X119036885Y-95250500D01*
X141126000Y-95250500D01*
X141193039Y-95270185D01*
G37*
G04 #@! TD.AperFunction*
G04 #@! TA.AperFunction,Conductor*
G36*
X116893391Y-110861627D02*
G01*
X116908441Y-110871683D01*
X116997637Y-110931282D01*
X117183470Y-111011122D01*
X117212735Y-111017744D01*
X117375193Y-111054505D01*
X117375195Y-111054505D01*
X117380740Y-111055760D01*
X117498135Y-111060372D01*
X117577161Y-111063477D01*
X117577163Y-111063477D01*
X117582842Y-111063700D01*
X117588462Y-111062885D01*
X117588465Y-111062885D01*
X117777387Y-111035493D01*
X117777389Y-111035493D01*
X117783007Y-111034678D01*
X117788384Y-111032853D01*
X117788387Y-111032852D01*
X117927211Y-110985727D01*
X117949632Y-110978116D01*
X118019441Y-110975206D01*
X118077172Y-111007854D01*
X121696567Y-114627249D01*
X121730052Y-114688572D01*
X121725068Y-114758264D01*
X121697484Y-114801184D01*
X121692454Y-114804954D01*
X121687159Y-114812019D01*
X121611772Y-114912606D01*
X121611770Y-114912610D01*
X121606474Y-114919676D01*
X121605907Y-114921188D01*
X121559019Y-114967973D01*
X121490729Y-114982749D01*
X121425292Y-114958260D01*
X121390946Y-114918622D01*
X121387788Y-114912854D01*
X121312484Y-114812376D01*
X121300124Y-114800016D01*
X121199646Y-114724712D01*
X121184311Y-114716317D01*
X121065753Y-114671871D01*
X121050744Y-114668303D01*
X121000669Y-114662863D01*
X120993972Y-114662500D01*
X120717830Y-114662500D01*
X120702831Y-114666904D01*
X120701644Y-114668274D01*
X120700000Y-114675832D01*
X120700000Y-116169670D01*
X120704404Y-116184669D01*
X120705774Y-116185856D01*
X120713332Y-116187500D01*
X120993972Y-116187500D01*
X121000669Y-116187137D01*
X121050744Y-116181697D01*
X121065753Y-116178129D01*
X121184311Y-116133683D01*
X121199646Y-116125288D01*
X121300124Y-116049984D01*
X121312484Y-116037624D01*
X121387788Y-115937146D01*
X121390946Y-115931378D01*
X121440406Y-115882027D01*
X121508695Y-115867251D01*
X121574132Y-115891740D01*
X121605642Y-115928103D01*
X121606474Y-115930324D01*
X121611770Y-115937390D01*
X121611772Y-115937394D01*
X121668502Y-116013087D01*
X121692454Y-116045046D01*
X121699519Y-116050341D01*
X121800109Y-116125730D01*
X121800111Y-116125731D01*
X121807176Y-116131026D01*
X121941420Y-116181351D01*
X122002623Y-116188000D01*
X122499926Y-116188000D01*
X122997376Y-116187999D01*
X123058580Y-116181351D01*
X123192824Y-116131026D01*
X123199889Y-116125731D01*
X123199891Y-116125730D01*
X123258635Y-116081703D01*
X123324086Y-116057250D01*
X123392367Y-116072064D01*
X123441800Y-116121441D01*
X123457001Y-116180928D01*
X123457001Y-116347376D01*
X123463649Y-116408580D01*
X123466375Y-116415852D01*
X123466377Y-116415860D01*
X123491207Y-116482094D01*
X123496308Y-116551777D01*
X123462925Y-116613156D01*
X123401658Y-116646743D01*
X123331958Y-116641875D01*
X123300732Y-116624847D01*
X123199891Y-116549270D01*
X123199889Y-116549269D01*
X123192824Y-116543974D01*
X123175547Y-116537497D01*
X123129667Y-116520298D01*
X123058580Y-116493649D01*
X122997377Y-116487000D01*
X122500075Y-116487000D01*
X122002624Y-116487001D01*
X121941420Y-116493649D01*
X121848131Y-116528621D01*
X121824454Y-116537497D01*
X121807176Y-116543974D01*
X121800111Y-116549269D01*
X121800109Y-116549270D01*
X121709976Y-116616822D01*
X121692454Y-116629954D01*
X121687159Y-116637019D01*
X121611772Y-116737606D01*
X121611770Y-116737609D01*
X121606474Y-116744676D01*
X121606050Y-116745807D01*
X121559307Y-116792447D01*
X121491018Y-116807223D01*
X121425580Y-116782734D01*
X121394230Y-116746555D01*
X121393526Y-116744676D01*
X121388230Y-116737609D01*
X121388228Y-116737606D01*
X121312841Y-116637019D01*
X121307546Y-116629954D01*
X121290024Y-116616822D01*
X121199891Y-116549270D01*
X121199889Y-116549269D01*
X121192824Y-116543974D01*
X121175547Y-116537497D01*
X121129667Y-116520298D01*
X121058580Y-116493649D01*
X120997377Y-116487000D01*
X120500075Y-116487000D01*
X120002624Y-116487001D01*
X119941420Y-116493649D01*
X119848131Y-116528621D01*
X119824454Y-116537497D01*
X119807176Y-116543974D01*
X119800111Y-116549269D01*
X119800109Y-116549270D01*
X119709976Y-116616822D01*
X119692454Y-116629954D01*
X119687159Y-116637019D01*
X119611773Y-116737606D01*
X119606474Y-116744676D01*
X119556149Y-116878920D01*
X119549500Y-116940123D01*
X119549501Y-117559876D01*
X119556149Y-117621080D01*
X119606474Y-117755324D01*
X119611769Y-117762389D01*
X119611770Y-117762391D01*
X119664230Y-117832387D01*
X119692454Y-117870046D01*
X119699519Y-117875341D01*
X119800109Y-117950730D01*
X119800111Y-117950731D01*
X119807176Y-117956026D01*
X119941420Y-118006351D01*
X120002623Y-118013000D01*
X120025500Y-118013000D01*
X120092539Y-118032685D01*
X120138294Y-118085489D01*
X120149500Y-118137000D01*
X120149500Y-118278299D01*
X120141610Y-118321826D01*
X120106149Y-118416420D01*
X120099500Y-118477623D01*
X120099501Y-119522376D01*
X120106149Y-119583580D01*
X120156474Y-119717824D01*
X120161769Y-119724889D01*
X120161770Y-119724891D01*
X120237159Y-119825481D01*
X120242454Y-119832546D01*
X120249519Y-119837841D01*
X120350109Y-119913230D01*
X120350111Y-119913231D01*
X120357176Y-119918526D01*
X120491420Y-119968851D01*
X120552623Y-119975500D01*
X120849955Y-119975500D01*
X121147376Y-119975499D01*
X121208580Y-119968851D01*
X121215854Y-119966124D01*
X121215863Y-119966122D01*
X121217173Y-119965631D01*
X121218265Y-119965551D01*
X121223426Y-119964324D01*
X121223624Y-119965159D01*
X121286856Y-119960532D01*
X121348378Y-119994060D01*
X122428869Y-121074551D01*
X122441346Y-121090000D01*
X122444119Y-121093048D01*
X122449675Y-121101652D01*
X122457720Y-121107994D01*
X122473676Y-121120573D01*
X122477647Y-121124102D01*
X122477729Y-121124006D01*
X122481627Y-121127309D01*
X122485247Y-121130929D01*
X122499622Y-121141202D01*
X122504272Y-121144693D01*
X122541311Y-121173892D01*
X122549287Y-121176693D01*
X122556169Y-121181611D01*
X122565983Y-121184546D01*
X122565985Y-121184547D01*
X122601344Y-121195121D01*
X122606903Y-121196927D01*
X122644047Y-121209971D01*
X122644049Y-121209971D01*
X122651406Y-121212555D01*
X122656544Y-121213000D01*
X122659226Y-121213000D01*
X122661450Y-121213096D01*
X122661888Y-121213227D01*
X122661886Y-121213281D01*
X122662117Y-121213296D01*
X122667964Y-121215044D01*
X122678205Y-121214642D01*
X122678208Y-121214642D01*
X122717545Y-121213096D01*
X122722413Y-121213000D01*
X122833000Y-121213000D01*
X122900039Y-121232685D01*
X122945794Y-121285489D01*
X122957000Y-121337000D01*
X122957000Y-121435590D01*
X122967865Y-121509396D01*
X122972113Y-121518048D01*
X123018441Y-121612409D01*
X123018443Y-121612411D01*
X123022959Y-121621610D01*
X123111431Y-121709927D01*
X123223741Y-121764826D01*
X123265279Y-121770886D01*
X123292459Y-121774851D01*
X123292463Y-121774851D01*
X123296910Y-121775500D01*
X123618090Y-121775500D01*
X123691896Y-121764635D01*
X123700545Y-121760389D01*
X123700550Y-121760387D01*
X123727893Y-121746962D01*
X123796746Y-121735085D01*
X123836998Y-121746866D01*
X123865093Y-121760599D01*
X123865095Y-121760600D01*
X123873741Y-121764826D01*
X123915279Y-121770886D01*
X123942459Y-121774851D01*
X123942463Y-121774851D01*
X123946910Y-121775500D01*
X124268090Y-121775500D01*
X124341896Y-121764635D01*
X124350545Y-121760389D01*
X124350550Y-121760387D01*
X124377893Y-121746962D01*
X124446746Y-121735085D01*
X124486998Y-121746866D01*
X124515093Y-121760599D01*
X124515095Y-121760600D01*
X124523741Y-121764826D01*
X124565279Y-121770886D01*
X124592459Y-121774851D01*
X124592463Y-121774851D01*
X124596910Y-121775500D01*
X124677944Y-121775500D01*
X124744983Y-121795185D01*
X124790738Y-121847989D01*
X124800682Y-121917147D01*
X124768999Y-121983673D01*
X124750507Y-122003677D01*
X124747133Y-122007185D01*
X124545449Y-122208869D01*
X124530010Y-122221339D01*
X124526960Y-122224114D01*
X124518348Y-122229675D01*
X124514205Y-122234931D01*
X124488787Y-122252215D01*
X124487498Y-122252847D01*
X124487058Y-122253063D01*
X124418200Y-122264909D01*
X124378002Y-122253134D01*
X124349907Y-122239401D01*
X124349905Y-122239400D01*
X124341259Y-122235174D01*
X124299721Y-122229114D01*
X124272541Y-122225149D01*
X124272537Y-122225149D01*
X124268090Y-122224500D01*
X123946910Y-122224500D01*
X123873104Y-122235365D01*
X123864455Y-122239611D01*
X123864450Y-122239613D01*
X123837107Y-122253038D01*
X123768254Y-122264915D01*
X123728002Y-122253134D01*
X123699907Y-122239401D01*
X123699905Y-122239400D01*
X123691259Y-122235174D01*
X123649721Y-122229114D01*
X123622541Y-122225149D01*
X123622537Y-122225149D01*
X123618090Y-122224500D01*
X123296910Y-122224500D01*
X123262488Y-122229567D01*
X123232640Y-122233961D01*
X123232639Y-122233961D01*
X123223104Y-122235365D01*
X123214451Y-122239613D01*
X123214452Y-122239613D01*
X123120091Y-122285941D01*
X123120089Y-122285943D01*
X123110890Y-122290459D01*
X123022573Y-122378931D01*
X123018073Y-122388138D01*
X123018071Y-122388140D01*
X123000559Y-122423964D01*
X122953433Y-122475548D01*
X122885900Y-122493464D01*
X122819400Y-122472025D01*
X122818228Y-122471111D01*
X122818195Y-122471158D01*
X122812059Y-122466894D01*
X122806476Y-122461919D01*
X122667331Y-122388245D01*
X122514628Y-122349889D01*
X122432829Y-122349461D01*
X122364658Y-122349104D01*
X122364657Y-122349104D01*
X122357184Y-122349065D01*
X122349921Y-122350809D01*
X122349918Y-122350809D01*
X122280636Y-122367442D01*
X122204088Y-122385820D01*
X122064179Y-122458032D01*
X122058548Y-122462945D01*
X122058547Y-122462945D01*
X122044100Y-122475548D01*
X121945534Y-122561533D01*
X121855001Y-122690348D01*
X121797809Y-122837039D01*
X121777258Y-122993138D01*
X121778078Y-123000566D01*
X121778078Y-123000569D01*
X121787270Y-123083831D01*
X121775061Y-123152625D01*
X121751700Y-123185118D01*
X120287949Y-124648869D01*
X120272500Y-124661346D01*
X120269452Y-124664119D01*
X120260848Y-124669675D01*
X120254506Y-124677720D01*
X120241927Y-124693676D01*
X120238401Y-124697644D01*
X120238497Y-124697725D01*
X120235191Y-124701627D01*
X120231572Y-124705246D01*
X120226451Y-124712413D01*
X120221313Y-124719603D01*
X120217821Y-124724255D01*
X120188608Y-124761311D01*
X120185807Y-124769287D01*
X120180889Y-124776169D01*
X120177954Y-124785983D01*
X120177953Y-124785985D01*
X120167379Y-124821344D01*
X120165573Y-124826903D01*
X120154573Y-124858226D01*
X120149945Y-124871406D01*
X120149500Y-124876544D01*
X120149500Y-124879226D01*
X120149404Y-124881450D01*
X120149273Y-124881888D01*
X120149219Y-124881886D01*
X120149204Y-124882117D01*
X120147456Y-124887964D01*
X120147858Y-124898205D01*
X120147858Y-124898208D01*
X120149404Y-124937545D01*
X120149500Y-124942413D01*
X120149500Y-125375500D01*
X120129815Y-125442539D01*
X120077011Y-125488294D01*
X120025500Y-125499500D01*
X119725326Y-125499500D01*
X119719350Y-125500689D01*
X119719347Y-125500689D01*
X119700672Y-125504404D01*
X119652260Y-125514034D01*
X119569399Y-125569399D01*
X119566985Y-125565787D01*
X119526358Y-125587971D01*
X119456666Y-125582987D01*
X119432080Y-125567186D01*
X119430601Y-125569399D01*
X119420988Y-125562976D01*
X119347740Y-125514034D01*
X119299328Y-125504404D01*
X119280653Y-125500689D01*
X119280650Y-125500689D01*
X119274674Y-125499500D01*
X118046544Y-125499500D01*
X117979505Y-125479815D01*
X117958863Y-125463181D01*
X117911819Y-125416137D01*
X117878334Y-125354814D01*
X117875500Y-125328456D01*
X117875500Y-118712138D01*
X117895185Y-118645099D01*
X117947989Y-118599344D01*
X117959638Y-118594720D01*
X117969143Y-118591493D01*
X117974531Y-118589664D01*
X118151001Y-118490837D01*
X118170902Y-118474286D01*
X118302138Y-118365137D01*
X118306505Y-118361505D01*
X118339506Y-118321826D01*
X118432206Y-118210367D01*
X118432207Y-118210366D01*
X118435837Y-118206001D01*
X118460390Y-118162159D01*
X118505575Y-118081474D01*
X118534664Y-118029531D01*
X118588802Y-117870046D01*
X118597852Y-117843387D01*
X118597853Y-117843384D01*
X118599678Y-117838007D01*
X118612865Y-117747055D01*
X118628176Y-117641458D01*
X118628176Y-117641453D01*
X118628700Y-117637842D01*
X118630215Y-117580000D01*
X118611708Y-117378591D01*
X118566369Y-117217830D01*
X118558352Y-117189403D01*
X118558351Y-117189400D01*
X118556807Y-117183926D01*
X118467351Y-117002527D01*
X118346335Y-116840467D01*
X118241465Y-116743526D01*
X118201988Y-116707034D01*
X118201986Y-116707033D01*
X118197812Y-116703174D01*
X118193002Y-116700139D01*
X118031566Y-116598280D01*
X118031564Y-116598279D01*
X118026757Y-116595246D01*
X117838898Y-116520298D01*
X117833317Y-116519188D01*
X117833314Y-116519187D01*
X117760296Y-116504663D01*
X117640526Y-116480839D01*
X117634839Y-116480765D01*
X117634834Y-116480764D01*
X117443975Y-116478266D01*
X117443970Y-116478266D01*
X117438286Y-116478192D01*
X117432682Y-116479155D01*
X117432681Y-116479155D01*
X117244546Y-116511482D01*
X117244543Y-116511483D01*
X117238949Y-116512444D01*
X117233622Y-116514409D01*
X117233619Y-116514410D01*
X117207933Y-116523886D01*
X117138224Y-116528621D01*
X117077334Y-116495231D01*
X116736819Y-116154716D01*
X116703334Y-116093393D01*
X116700500Y-116067035D01*
X116700500Y-116044127D01*
X116720185Y-115977088D01*
X116772989Y-115931333D01*
X116842147Y-115921389D01*
X116893391Y-115941025D01*
X116993147Y-116007680D01*
X117003105Y-116013087D01*
X117178400Y-116088399D01*
X117189172Y-116091899D01*
X117307609Y-116118699D01*
X117321462Y-116117824D01*
X117325000Y-116108575D01*
X117325000Y-116104754D01*
X117725000Y-116104754D01*
X117728903Y-116118048D01*
X117742680Y-116120020D01*
X117777263Y-116115006D01*
X117788278Y-116112361D01*
X117968937Y-116051036D01*
X117979293Y-116046425D01*
X118145753Y-115953202D01*
X118155090Y-115946785D01*
X118301777Y-115824787D01*
X118309787Y-115816777D01*
X118380734Y-115731472D01*
X119550000Y-115731472D01*
X119550363Y-115738169D01*
X119555803Y-115788244D01*
X119559371Y-115803253D01*
X119603817Y-115921811D01*
X119612212Y-115937146D01*
X119687516Y-116037624D01*
X119699876Y-116049984D01*
X119800354Y-116125288D01*
X119815689Y-116133683D01*
X119934247Y-116178129D01*
X119949256Y-116181697D01*
X119999331Y-116187137D01*
X120006028Y-116187500D01*
X120282170Y-116187500D01*
X120297169Y-116183096D01*
X120298356Y-116181726D01*
X120300000Y-116174168D01*
X120300000Y-115642830D01*
X120295596Y-115627831D01*
X120294226Y-115626644D01*
X120286668Y-115625000D01*
X119567830Y-115625000D01*
X119552831Y-115629404D01*
X119551644Y-115630774D01*
X119550000Y-115638332D01*
X119550000Y-115731472D01*
X118380734Y-115731472D01*
X118431785Y-115670090D01*
X118438202Y-115660753D01*
X118531425Y-115494293D01*
X118536036Y-115483937D01*
X118597361Y-115303278D01*
X118600006Y-115292263D01*
X118605026Y-115257643D01*
X118603071Y-115243929D01*
X118589718Y-115240000D01*
X117742830Y-115240000D01*
X117727831Y-115244404D01*
X117726644Y-115245774D01*
X117725000Y-115253332D01*
X117725000Y-116104754D01*
X117325000Y-116104754D01*
X117325000Y-115207170D01*
X119550000Y-115207170D01*
X119554404Y-115222169D01*
X119555774Y-115223356D01*
X119563332Y-115225000D01*
X120282170Y-115225000D01*
X120297169Y-115220596D01*
X120298356Y-115219226D01*
X120300000Y-115211668D01*
X120300000Y-114680330D01*
X120295596Y-114665331D01*
X120294226Y-114664144D01*
X120286668Y-114662500D01*
X120006028Y-114662500D01*
X119999331Y-114662863D01*
X119949256Y-114668303D01*
X119934247Y-114671871D01*
X119815689Y-114716317D01*
X119800354Y-114724712D01*
X119699876Y-114800016D01*
X119687516Y-114812376D01*
X119612212Y-114912854D01*
X119603817Y-114928189D01*
X119559371Y-115046747D01*
X119555803Y-115061756D01*
X119550363Y-115111831D01*
X119550000Y-115118528D01*
X119550000Y-115207170D01*
X117325000Y-115207170D01*
X117325000Y-114822170D01*
X117725000Y-114822170D01*
X117729404Y-114837169D01*
X117730774Y-114838356D01*
X117738332Y-114840000D01*
X118593505Y-114840000D01*
X118607823Y-114835796D01*
X118608793Y-114830096D01*
X118557884Y-114649587D01*
X118553819Y-114638998D01*
X118469441Y-114467894D01*
X118463517Y-114458228D01*
X118349366Y-114305362D01*
X118341785Y-114296942D01*
X118201683Y-114167432D01*
X118192701Y-114160540D01*
X118031331Y-114058724D01*
X118021253Y-114053589D01*
X117844035Y-113982886D01*
X117833178Y-113979670D01*
X117742488Y-113961631D01*
X117729816Y-113962764D01*
X117725000Y-113977677D01*
X117725000Y-114822170D01*
X117325000Y-114822170D01*
X117325000Y-113975995D01*
X117321254Y-113963237D01*
X117306574Y-113961331D01*
X117244676Y-113971967D01*
X117233753Y-113974894D01*
X117054737Y-114040936D01*
X117044524Y-114045808D01*
X116887900Y-114138990D01*
X116820222Y-114156350D01*
X116753901Y-114134364D01*
X116709996Y-114080013D01*
X116700500Y-114032424D01*
X116700500Y-113504127D01*
X116720185Y-113437088D01*
X116772989Y-113391333D01*
X116842147Y-113381389D01*
X116893391Y-113401025D01*
X116993147Y-113467680D01*
X117003105Y-113473087D01*
X117178400Y-113548399D01*
X117189172Y-113551899D01*
X117307609Y-113578699D01*
X117321462Y-113577824D01*
X117325000Y-113568575D01*
X117325000Y-113564754D01*
X117725000Y-113564754D01*
X117728903Y-113578048D01*
X117742680Y-113580020D01*
X117777263Y-113575006D01*
X117788278Y-113572361D01*
X117968937Y-113511036D01*
X117979293Y-113506425D01*
X118145753Y-113413202D01*
X118155090Y-113406785D01*
X118301777Y-113284787D01*
X118309787Y-113276777D01*
X118431785Y-113130090D01*
X118438202Y-113120753D01*
X118531425Y-112954293D01*
X118536036Y-112943937D01*
X118597361Y-112763278D01*
X118600006Y-112752263D01*
X118605026Y-112717643D01*
X118603071Y-112703929D01*
X118589718Y-112700000D01*
X117742830Y-112700000D01*
X117727831Y-112704404D01*
X117726644Y-112705774D01*
X117725000Y-112713332D01*
X117725000Y-113564754D01*
X117325000Y-113564754D01*
X117325000Y-112282170D01*
X117725000Y-112282170D01*
X117729404Y-112297169D01*
X117730774Y-112298356D01*
X117738332Y-112300000D01*
X118593505Y-112300000D01*
X118607823Y-112295796D01*
X118608793Y-112290096D01*
X118557884Y-112109587D01*
X118553819Y-112098998D01*
X118469441Y-111927894D01*
X118463517Y-111918228D01*
X118349366Y-111765362D01*
X118341785Y-111756942D01*
X118201683Y-111627432D01*
X118192701Y-111620540D01*
X118031331Y-111518724D01*
X118021253Y-111513589D01*
X117844035Y-111442886D01*
X117833178Y-111439670D01*
X117742488Y-111421631D01*
X117729816Y-111422764D01*
X117725000Y-111437677D01*
X117725000Y-112282170D01*
X117325000Y-112282170D01*
X117325000Y-111435995D01*
X117321254Y-111423237D01*
X117306574Y-111421331D01*
X117244676Y-111431967D01*
X117233753Y-111434894D01*
X117054737Y-111500936D01*
X117044524Y-111505808D01*
X116887900Y-111598990D01*
X116820222Y-111616350D01*
X116753901Y-111594364D01*
X116709996Y-111540013D01*
X116700500Y-111492424D01*
X116700500Y-110964729D01*
X116720185Y-110897690D01*
X116772989Y-110851935D01*
X116842147Y-110841991D01*
X116893391Y-110861627D01*
G37*
G04 #@! TD.AperFunction*
G04 #@! TA.AperFunction,Conductor*
G36*
X127511060Y-116547213D02*
G01*
X127535862Y-116572029D01*
X127599954Y-116657546D01*
X127607019Y-116662841D01*
X127707609Y-116738230D01*
X127707611Y-116738231D01*
X127714676Y-116743526D01*
X127722944Y-116746626D01*
X127722945Y-116746626D01*
X127754268Y-116758368D01*
X127848920Y-116793851D01*
X127910123Y-116800500D01*
X127982898Y-116800500D01*
X128910000Y-116800499D01*
X128977039Y-116820183D01*
X129022794Y-116872987D01*
X129034000Y-116924499D01*
X129034000Y-117076000D01*
X129014315Y-117143039D01*
X128961511Y-117188794D01*
X128910000Y-117200000D01*
X128650330Y-117200000D01*
X128635331Y-117204404D01*
X128634144Y-117205774D01*
X128632500Y-117213332D01*
X128632500Y-118682170D01*
X128636904Y-118697169D01*
X128638274Y-118698356D01*
X128645832Y-118700000D01*
X128910000Y-118700000D01*
X128977039Y-118719685D01*
X129022794Y-118772489D01*
X129034000Y-118824000D01*
X129034000Y-120968956D01*
X129014315Y-121035995D01*
X128997681Y-121056637D01*
X128594680Y-121459638D01*
X128533357Y-121493123D01*
X128463665Y-121488139D01*
X128407732Y-121446267D01*
X128383315Y-121380803D01*
X128382999Y-121371957D01*
X128382999Y-121102624D01*
X128376351Y-121041420D01*
X128326026Y-120907176D01*
X128240046Y-120792454D01*
X128219426Y-120777000D01*
X128132391Y-120711770D01*
X128132389Y-120711769D01*
X128125324Y-120706474D01*
X127991080Y-120656149D01*
X127929877Y-120649500D01*
X127432575Y-120649500D01*
X126935124Y-120649501D01*
X126873920Y-120656149D01*
X126739676Y-120706474D01*
X126732611Y-120711769D01*
X126732609Y-120711770D01*
X126645574Y-120777000D01*
X126624954Y-120792454D01*
X126538974Y-120907176D01*
X126535874Y-120915445D01*
X126535873Y-120915447D01*
X126511102Y-120981526D01*
X126469138Y-121037390D01*
X126403633Y-121061699D01*
X126394992Y-121062000D01*
X126154043Y-121062000D01*
X126087004Y-121042315D01*
X126066367Y-121025686D01*
X125944317Y-120903635D01*
X125910834Y-120842314D01*
X125908000Y-120815956D01*
X125908000Y-120289410D01*
X125897135Y-120215604D01*
X125866867Y-120153954D01*
X125846559Y-120112591D01*
X125846557Y-120112589D01*
X125842041Y-120103390D01*
X125753569Y-120015073D01*
X125641259Y-119960174D01*
X125599721Y-119954114D01*
X125572541Y-119950149D01*
X125572537Y-119950149D01*
X125568090Y-119949500D01*
X125246910Y-119949500D01*
X125173104Y-119960365D01*
X125164455Y-119964611D01*
X125164450Y-119964613D01*
X125137107Y-119978038D01*
X125068254Y-119989915D01*
X125028002Y-119978134D01*
X124999907Y-119964401D01*
X124999905Y-119964400D01*
X124991259Y-119960174D01*
X124949721Y-119954114D01*
X124922541Y-119950149D01*
X124922537Y-119950149D01*
X124918090Y-119949500D01*
X124596910Y-119949500D01*
X124592438Y-119950158D01*
X124591049Y-119950260D01*
X124522752Y-119935521D01*
X124473266Y-119886197D01*
X124458000Y-119826591D01*
X124458000Y-119658114D01*
X124460101Y-119638379D01*
X124460295Y-119634257D01*
X124462452Y-119624240D01*
X124458860Y-119593893D01*
X124458547Y-119588590D01*
X124458421Y-119588600D01*
X124458000Y-119583508D01*
X124458000Y-119578385D01*
X124455100Y-119560961D01*
X124454278Y-119555182D01*
X124449941Y-119518540D01*
X124449940Y-119518538D01*
X124448736Y-119508362D01*
X124445077Y-119500742D01*
X124443688Y-119492397D01*
X124438824Y-119483382D01*
X124438822Y-119483377D01*
X124421285Y-119450877D01*
X124418655Y-119445716D01*
X124398226Y-119403174D01*
X124394908Y-119399226D01*
X124393002Y-119397320D01*
X124391506Y-119395689D01*
X124391286Y-119395280D01*
X124391325Y-119395244D01*
X124391174Y-119395072D01*
X124388278Y-119389706D01*
X124351824Y-119356008D01*
X124348315Y-119352633D01*
X123907863Y-118912181D01*
X123874378Y-118850858D01*
X123879362Y-118781166D01*
X123921234Y-118725233D01*
X123986698Y-118700816D01*
X123995544Y-118700500D01*
X124915325Y-118700499D01*
X124954876Y-118700499D01*
X125016080Y-118693851D01*
X125150324Y-118643526D01*
X125157389Y-118638231D01*
X125157391Y-118638230D01*
X125257981Y-118562841D01*
X125265046Y-118557546D01*
X125351026Y-118442824D01*
X125352411Y-118443862D01*
X125394415Y-118401947D01*
X125462704Y-118387167D01*
X125528142Y-118411654D01*
X125552953Y-118436476D01*
X125624954Y-118532546D01*
X125632019Y-118537841D01*
X125732609Y-118613230D01*
X125732611Y-118613231D01*
X125739676Y-118618526D01*
X125747944Y-118621626D01*
X125747945Y-118621626D01*
X125779268Y-118633368D01*
X125873920Y-118668851D01*
X125935123Y-118675500D01*
X126007696Y-118675500D01*
X126074735Y-118695185D01*
X126116820Y-118740611D01*
X126118712Y-118744117D01*
X126121345Y-118749284D01*
X126141774Y-118791826D01*
X126145092Y-118795774D01*
X126146998Y-118797680D01*
X126148494Y-118799311D01*
X126148714Y-118799720D01*
X126148675Y-118799756D01*
X126148826Y-118799928D01*
X126151722Y-118805294D01*
X126159244Y-118812247D01*
X126188176Y-118838992D01*
X126191685Y-118842367D01*
X126455285Y-119105967D01*
X126488770Y-119167290D01*
X126488299Y-119216382D01*
X126488649Y-119216420D01*
X126482000Y-119277623D01*
X126482001Y-119897376D01*
X126488649Y-119958580D01*
X126538974Y-120092824D01*
X126544269Y-120099889D01*
X126544270Y-120099891D01*
X126609691Y-120187181D01*
X126624954Y-120207546D01*
X126632019Y-120212841D01*
X126732609Y-120288230D01*
X126732611Y-120288231D01*
X126739676Y-120293526D01*
X126873920Y-120343851D01*
X126935123Y-120350500D01*
X127432426Y-120350500D01*
X127929876Y-120350499D01*
X127991080Y-120343851D01*
X128125324Y-120293526D01*
X128132389Y-120288231D01*
X128132391Y-120288230D01*
X128232981Y-120212841D01*
X128240046Y-120207546D01*
X128255309Y-120187181D01*
X128320730Y-120099891D01*
X128320731Y-120099889D01*
X128326026Y-120092824D01*
X128376351Y-119958580D01*
X128383000Y-119897377D01*
X128382999Y-119277624D01*
X128376351Y-119216420D01*
X128326026Y-119082176D01*
X128240046Y-118967454D01*
X128174587Y-118918395D01*
X128132747Y-118862438D01*
X128127802Y-118792743D01*
X128161321Y-118731439D01*
X128214017Y-118700192D01*
X128229669Y-118695596D01*
X128230856Y-118694226D01*
X128232500Y-118686668D01*
X128232500Y-117217830D01*
X128228096Y-117202831D01*
X128226726Y-117201644D01*
X128219168Y-117200000D01*
X127913528Y-117200000D01*
X127906831Y-117200363D01*
X127856756Y-117205803D01*
X127841747Y-117209371D01*
X127723189Y-117253817D01*
X127707854Y-117262212D01*
X127607376Y-117337516D01*
X127595012Y-117349880D01*
X127536125Y-117428452D01*
X127480168Y-117470292D01*
X127410474Y-117475237D01*
X127349170Y-117441718D01*
X127328761Y-117414471D01*
X127326026Y-117407176D01*
X127320730Y-117400110D01*
X127320728Y-117400106D01*
X127245341Y-117299519D01*
X127240046Y-117292454D01*
X127232981Y-117287159D01*
X127132391Y-117211770D01*
X127132389Y-117211769D01*
X127125324Y-117206474D01*
X127115607Y-117202831D01*
X127051569Y-117178825D01*
X126991080Y-117156149D01*
X126929877Y-117149500D01*
X126432575Y-117149500D01*
X125935124Y-117149501D01*
X125873920Y-117156149D01*
X125813431Y-117178825D01*
X125749394Y-117202831D01*
X125739676Y-117206474D01*
X125732611Y-117211769D01*
X125732609Y-117211770D01*
X125632019Y-117287159D01*
X125624954Y-117292454D01*
X125538974Y-117407176D01*
X125536497Y-117413784D01*
X125487666Y-117462503D01*
X125419377Y-117477278D01*
X125353940Y-117452787D01*
X125329137Y-117427970D01*
X125270341Y-117349519D01*
X125265046Y-117342454D01*
X125216135Y-117305797D01*
X125157391Y-117261770D01*
X125157389Y-117261769D01*
X125150324Y-117256474D01*
X125016080Y-117206149D01*
X124954877Y-117199500D01*
X124432578Y-117199500D01*
X123910124Y-117199501D01*
X123848920Y-117206149D01*
X123714676Y-117256474D01*
X123707611Y-117261769D01*
X123707609Y-117261770D01*
X123648865Y-117305797D01*
X123583414Y-117330250D01*
X123515133Y-117315436D01*
X123465700Y-117266059D01*
X123450499Y-117206571D01*
X123450499Y-116940124D01*
X123443851Y-116878920D01*
X123441125Y-116871648D01*
X123441123Y-116871640D01*
X123416293Y-116805406D01*
X123411192Y-116735723D01*
X123444575Y-116674344D01*
X123505842Y-116640757D01*
X123575542Y-116645625D01*
X123606768Y-116662653D01*
X123707609Y-116738230D01*
X123707611Y-116738231D01*
X123714676Y-116743526D01*
X123722944Y-116746626D01*
X123722945Y-116746626D01*
X123754268Y-116758368D01*
X123848920Y-116793851D01*
X123910123Y-116800500D01*
X124432422Y-116800500D01*
X124954876Y-116800499D01*
X125016080Y-116793851D01*
X125116644Y-116756152D01*
X125142055Y-116746626D01*
X125142056Y-116746626D01*
X125150324Y-116743526D01*
X125157389Y-116738231D01*
X125157391Y-116738230D01*
X125257981Y-116662841D01*
X125265046Y-116657546D01*
X125329137Y-116572030D01*
X125385094Y-116530190D01*
X125454789Y-116525245D01*
X125516093Y-116558764D01*
X125536337Y-116585790D01*
X125538974Y-116592824D01*
X125624954Y-116707546D01*
X125632019Y-116712841D01*
X125732609Y-116788230D01*
X125732611Y-116788231D01*
X125739676Y-116793526D01*
X125873920Y-116843851D01*
X125935123Y-116850500D01*
X126432426Y-116850500D01*
X126929876Y-116850499D01*
X126991080Y-116843851D01*
X127125324Y-116793526D01*
X127132389Y-116788231D01*
X127132391Y-116788230D01*
X127232981Y-116712841D01*
X127240046Y-116707546D01*
X127326026Y-116592824D01*
X127328503Y-116586216D01*
X127377334Y-116537497D01*
X127445623Y-116522722D01*
X127511060Y-116547213D01*
G37*
G04 #@! TD.AperFunction*
G04 #@! TA.AperFunction,Conductor*
G36*
X127096945Y-109480553D02*
G01*
X127140397Y-109535268D01*
X127149500Y-109581902D01*
X127149500Y-112419197D01*
X127129815Y-112486236D01*
X127077011Y-112531991D01*
X127007853Y-112541935D01*
X126944297Y-112512910D01*
X126915015Y-112475492D01*
X126887071Y-112420650D01*
X126875739Y-112405053D01*
X126799947Y-112329261D01*
X126784350Y-112317929D01*
X126688845Y-112269266D01*
X126670505Y-112263308D01*
X126622609Y-112255722D01*
X126609145Y-112257462D01*
X126605000Y-112271214D01*
X126605000Y-114679236D01*
X126608826Y-114692265D01*
X126623053Y-114694207D01*
X126670513Y-114686691D01*
X126688840Y-114680736D01*
X126784350Y-114632071D01*
X126799947Y-114620739D01*
X126875739Y-114544947D01*
X126887071Y-114529350D01*
X126935734Y-114433845D01*
X126941692Y-114415505D01*
X126954236Y-114336303D01*
X126955000Y-114326601D01*
X126955000Y-113619488D01*
X126974685Y-113552449D01*
X127027489Y-113506694D01*
X127096647Y-113496750D01*
X127160203Y-113525775D01*
X127190778Y-113565808D01*
X127209274Y-113604326D01*
X127212592Y-113608274D01*
X127214498Y-113610180D01*
X127215994Y-113611811D01*
X127216214Y-113612220D01*
X127216175Y-113612256D01*
X127216326Y-113612428D01*
X127219222Y-113617794D01*
X127253041Y-113649056D01*
X127255676Y-113651492D01*
X127259185Y-113654867D01*
X128692137Y-115087819D01*
X128725622Y-115149142D01*
X128720638Y-115218834D01*
X128678766Y-115274767D01*
X128613302Y-115299184D01*
X128604456Y-115299500D01*
X127921157Y-115299501D01*
X127910124Y-115299501D01*
X127848920Y-115306149D01*
X127714676Y-115356474D01*
X127707611Y-115361769D01*
X127707609Y-115361770D01*
X127674252Y-115386770D01*
X127599954Y-115442454D01*
X127513974Y-115557176D01*
X127512589Y-115556138D01*
X127470585Y-115598053D01*
X127402296Y-115612833D01*
X127336858Y-115588346D01*
X127312047Y-115563524D01*
X127245341Y-115474519D01*
X127240046Y-115467454D01*
X127199624Y-115437159D01*
X127132391Y-115386770D01*
X127132389Y-115386769D01*
X127125324Y-115381474D01*
X126991080Y-115331149D01*
X126929877Y-115324500D01*
X126882924Y-115324500D01*
X126216545Y-115324501D01*
X126149506Y-115304817D01*
X126128864Y-115288182D01*
X125583718Y-114743036D01*
X125550233Y-114681713D01*
X125555217Y-114612021D01*
X125583718Y-114567674D01*
X125613050Y-114538342D01*
X125659795Y-114446600D01*
X125707770Y-114395804D01*
X125775591Y-114379009D01*
X125841726Y-114401546D01*
X125880765Y-114446600D01*
X125922928Y-114529350D01*
X125934261Y-114544947D01*
X126010053Y-114620739D01*
X126025650Y-114632071D01*
X126121155Y-114680734D01*
X126139495Y-114686692D01*
X126187391Y-114694278D01*
X126200855Y-114692538D01*
X126205000Y-114678786D01*
X126205000Y-112270764D01*
X126201174Y-112257735D01*
X126186947Y-112255793D01*
X126139487Y-112263309D01*
X126121160Y-112269264D01*
X126025650Y-112317929D01*
X126010053Y-112329261D01*
X125934261Y-112405053D01*
X125922928Y-112420650D01*
X125880765Y-112503400D01*
X125832790Y-112554196D01*
X125764969Y-112570991D01*
X125698834Y-112548453D01*
X125659795Y-112503400D01*
X125659515Y-112502850D01*
X125613050Y-112411658D01*
X125523342Y-112321950D01*
X125410304Y-112264354D01*
X125381067Y-112259723D01*
X125321339Y-112250263D01*
X125321334Y-112250263D01*
X125316519Y-112249500D01*
X125311641Y-112249500D01*
X125134870Y-112249501D01*
X124953482Y-112249501D01*
X124880849Y-112261004D01*
X124869331Y-112262828D01*
X124869330Y-112262828D01*
X124859696Y-112264354D01*
X124851003Y-112268783D01*
X124851004Y-112268783D01*
X124785837Y-112301987D01*
X124717168Y-112314883D01*
X124652427Y-112288607D01*
X124612170Y-112231500D01*
X124609178Y-112161695D01*
X124641861Y-112103821D01*
X126617051Y-110128631D01*
X126632500Y-110116154D01*
X126635548Y-110113381D01*
X126644152Y-110107825D01*
X126663073Y-110083824D01*
X126666599Y-110079856D01*
X126666503Y-110079775D01*
X126669809Y-110075873D01*
X126673428Y-110072254D01*
X126683696Y-110057886D01*
X126687179Y-110053245D01*
X126716392Y-110016189D01*
X126719193Y-110008213D01*
X126724111Y-110001331D01*
X126731503Y-109976615D01*
X126737618Y-109956166D01*
X126739423Y-109950610D01*
X126752471Y-109913452D01*
X126755055Y-109906094D01*
X126755500Y-109900956D01*
X126755500Y-109898274D01*
X126755596Y-109896048D01*
X126755726Y-109895612D01*
X126755781Y-109895614D01*
X126755796Y-109895380D01*
X126757543Y-109889537D01*
X126755596Y-109839971D01*
X126755500Y-109835104D01*
X126755500Y-109766838D01*
X126775185Y-109699799D01*
X126794566Y-109679274D01*
X126793342Y-109678050D01*
X126883050Y-109588342D01*
X126915015Y-109525606D01*
X126962989Y-109474811D01*
X127030810Y-109458016D01*
X127096945Y-109480553D01*
G37*
G04 #@! TD.AperFunction*
G04 #@! TA.AperFunction,Conductor*
G36*
X136622587Y-109870185D02*
G01*
X136643229Y-109886819D01*
X136720029Y-109963619D01*
X136753514Y-110024942D01*
X136748530Y-110094634D01*
X136706658Y-110150567D01*
X136640456Y-110175035D01*
X136632893Y-110175531D01*
X136598992Y-110179993D01*
X136580985Y-110185242D01*
X136495546Y-110225082D01*
X136478040Y-110237340D01*
X136412340Y-110303040D01*
X136400082Y-110320546D01*
X136360241Y-110405987D01*
X136354993Y-110423993D01*
X136350529Y-110457895D01*
X136350000Y-110465968D01*
X136350000Y-110982170D01*
X136354404Y-110997169D01*
X136355774Y-110998356D01*
X136363332Y-111000000D01*
X136725500Y-111000000D01*
X136792539Y-111019685D01*
X136838294Y-111072489D01*
X136849500Y-111123998D01*
X136849501Y-111175998D01*
X136829818Y-111243037D01*
X136777015Y-111288793D01*
X136725501Y-111300000D01*
X136367831Y-111300000D01*
X136352832Y-111304404D01*
X136351645Y-111305774D01*
X136350001Y-111313332D01*
X136350001Y-111663536D01*
X136330316Y-111730575D01*
X136277512Y-111776330D01*
X136208354Y-111786274D01*
X136144798Y-111757249D01*
X136138320Y-111751217D01*
X134726876Y-110339773D01*
X134693391Y-110278450D01*
X134698375Y-110208758D01*
X134740247Y-110152825D01*
X134805711Y-110128408D01*
X134846022Y-110132151D01*
X134903838Y-110147318D01*
X134911069Y-110149215D01*
X134988127Y-110150425D01*
X135061025Y-110151571D01*
X135061028Y-110151571D01*
X135068495Y-110151688D01*
X135075776Y-110150020D01*
X135075780Y-110150020D01*
X135214681Y-110118207D01*
X135221968Y-110116538D01*
X135362625Y-110045795D01*
X135368306Y-110040943D01*
X135368309Y-110040941D01*
X135476664Y-109948397D01*
X135476666Y-109948395D01*
X135482348Y-109943542D01*
X135488197Y-109935402D01*
X135512097Y-109902142D01*
X135567202Y-109859186D01*
X135612796Y-109850500D01*
X136555548Y-109850500D01*
X136622587Y-109870185D01*
G37*
G04 #@! TD.AperFunction*
G04 #@! TA.AperFunction,Conductor*
G36*
X137817866Y-107548412D02*
G01*
X137862382Y-107599787D01*
X137887882Y-107654471D01*
X137899500Y-107706876D01*
X137899500Y-107749391D01*
X137897400Y-107769123D01*
X137897206Y-107773243D01*
X137895049Y-107783261D01*
X137896254Y-107793440D01*
X137898640Y-107813601D01*
X137898953Y-107818909D01*
X137899078Y-107818899D01*
X137899500Y-107824004D01*
X137899500Y-107829115D01*
X137900339Y-107834155D01*
X137902400Y-107846539D01*
X137903222Y-107852318D01*
X137908764Y-107899138D01*
X137912423Y-107906758D01*
X137913812Y-107915103D01*
X137918676Y-107924118D01*
X137918678Y-107924123D01*
X137936215Y-107956623D01*
X137938845Y-107961784D01*
X137959274Y-108004326D01*
X137962592Y-108008274D01*
X137964498Y-108010180D01*
X137965994Y-108011811D01*
X137966214Y-108012220D01*
X137966175Y-108012256D01*
X137966326Y-108012428D01*
X137969222Y-108017794D01*
X137976744Y-108024747D01*
X138005676Y-108051492D01*
X138009185Y-108054867D01*
X138769283Y-108814965D01*
X138802768Y-108876288D01*
X138804541Y-108918828D01*
X138794758Y-108993138D01*
X138795578Y-109000566D01*
X138795578Y-109000568D01*
X138801444Y-109053697D01*
X138812035Y-109149633D01*
X138814601Y-109156645D01*
X138814602Y-109156649D01*
X138839077Y-109223528D01*
X138866143Y-109297490D01*
X138876047Y-109312229D01*
X138935584Y-109400828D01*
X138953958Y-109428172D01*
X139008693Y-109477977D01*
X139064878Y-109529102D01*
X139064882Y-109529105D01*
X139070410Y-109534135D01*
X139076980Y-109537702D01*
X139076981Y-109537703D01*
X139182958Y-109595244D01*
X139208776Y-109609262D01*
X139216004Y-109611158D01*
X139216006Y-109611159D01*
X139250370Y-109620174D01*
X139306966Y-109635021D01*
X139366815Y-109671072D01*
X139397674Y-109733758D01*
X139399500Y-109754962D01*
X139399500Y-110050500D01*
X139379815Y-110117539D01*
X139327011Y-110163294D01*
X139275501Y-110174500D01*
X139146881Y-110174501D01*
X139136862Y-110174501D01*
X139132846Y-110175030D01*
X139132840Y-110175030D01*
X139098859Y-110179503D01*
X139098858Y-110179503D01*
X139089455Y-110180741D01*
X139080860Y-110184749D01*
X139058386Y-110195229D01*
X138989308Y-110205720D01*
X138925525Y-110177200D01*
X138918301Y-110170527D01*
X138733723Y-109985949D01*
X138721246Y-109970500D01*
X138718473Y-109967452D01*
X138712917Y-109958848D01*
X138688916Y-109939927D01*
X138684946Y-109936399D01*
X138684865Y-109936495D01*
X138680961Y-109933187D01*
X138677346Y-109929572D01*
X138673188Y-109926600D01*
X138671161Y-109924883D01*
X138663642Y-109917960D01*
X136782407Y-108036725D01*
X136748922Y-107975402D01*
X136753906Y-107905710D01*
X136795778Y-107849777D01*
X136861465Y-107825499D01*
X136863138Y-107825499D01*
X136888966Y-107822099D01*
X136901141Y-107820497D01*
X136901142Y-107820497D01*
X136910545Y-107819259D01*
X136947595Y-107801982D01*
X137016672Y-107791490D01*
X137052405Y-107801982D01*
X137080859Y-107815251D01*
X137080861Y-107815252D01*
X137089455Y-107819259D01*
X137101669Y-107820867D01*
X137132841Y-107824971D01*
X137132845Y-107824971D01*
X137136861Y-107825500D01*
X137249916Y-107825500D01*
X137363138Y-107825499D01*
X137367154Y-107824970D01*
X137367160Y-107824970D01*
X137401141Y-107820497D01*
X137401142Y-107820497D01*
X137410545Y-107819259D01*
X137419142Y-107815250D01*
X137419146Y-107815249D01*
X137448187Y-107801707D01*
X137517265Y-107791215D01*
X137552995Y-107801707D01*
X137580987Y-107814760D01*
X137588277Y-107816884D01*
X137596282Y-107815636D01*
X137600000Y-107802688D01*
X137600000Y-107707948D01*
X137611617Y-107655545D01*
X137637619Y-107599785D01*
X137683791Y-107547347D01*
X137750985Y-107528196D01*
X137817866Y-107548412D01*
G37*
G04 #@! TD.AperFunction*
G04 #@! TA.AperFunction,Conductor*
G36*
X124653120Y-102970185D02*
G01*
X124698875Y-103022989D01*
X124708819Y-103092147D01*
X124702190Y-103118027D01*
X124658463Y-103234668D01*
X124658462Y-103234672D01*
X124655734Y-103241949D01*
X124649500Y-103299335D01*
X124649501Y-103505985D01*
X124649501Y-103662034D01*
X124629817Y-103729073D01*
X124613182Y-103749715D01*
X124549956Y-103812941D01*
X124488633Y-103846426D01*
X124461627Y-103849258D01*
X124432159Y-103849104D01*
X124432158Y-103849104D01*
X124424684Y-103849065D01*
X124417421Y-103850809D01*
X124417418Y-103850809D01*
X124348136Y-103867443D01*
X124271588Y-103885820D01*
X124131679Y-103958032D01*
X124126048Y-103962945D01*
X124126047Y-103962945D01*
X124108427Y-103978316D01*
X124013034Y-104061533D01*
X123922501Y-104190348D01*
X123919785Y-104197313D01*
X123919785Y-104197314D01*
X123900761Y-104246108D01*
X123865309Y-104337039D01*
X123844758Y-104493138D01*
X123845578Y-104500566D01*
X123845578Y-104500568D01*
X123850894Y-104548715D01*
X123862035Y-104649633D01*
X123864601Y-104656645D01*
X123864602Y-104656649D01*
X123879642Y-104697746D01*
X123916143Y-104797490D01*
X124003958Y-104928172D01*
X124050130Y-104970185D01*
X124114878Y-105029102D01*
X124114882Y-105029105D01*
X124120410Y-105034135D01*
X124126980Y-105037702D01*
X124126981Y-105037703D01*
X124252208Y-105105696D01*
X124258776Y-105109262D01*
X124361031Y-105136088D01*
X124403841Y-105147319D01*
X124403843Y-105147319D01*
X124411069Y-105149215D01*
X124488127Y-105150425D01*
X124561025Y-105151571D01*
X124561028Y-105151571D01*
X124568495Y-105151688D01*
X124575776Y-105150020D01*
X124575780Y-105150020D01*
X124714681Y-105118207D01*
X124721968Y-105116538D01*
X124862625Y-105045795D01*
X124868306Y-105040943D01*
X124868309Y-105040941D01*
X124976666Y-104948395D01*
X124976667Y-104948394D01*
X124982348Y-104943542D01*
X124993393Y-104928172D01*
X125027674Y-104880464D01*
X125074224Y-104815683D01*
X125132950Y-104669598D01*
X125134007Y-104662175D01*
X125147600Y-104566657D01*
X125154574Y-104517657D01*
X125183508Y-104454060D01*
X125189656Y-104447447D01*
X125350284Y-104286819D01*
X125411607Y-104253334D01*
X125437965Y-104250500D01*
X125633000Y-104250500D01*
X125828035Y-104250499D01*
X125895074Y-104270183D01*
X125915716Y-104286818D01*
X126470820Y-104841922D01*
X126504305Y-104903245D01*
X126499321Y-104972937D01*
X126457449Y-105028870D01*
X126396531Y-105052878D01*
X126374144Y-105055310D01*
X126366420Y-105056149D01*
X126232176Y-105106474D01*
X126225111Y-105111769D01*
X126225109Y-105111770D01*
X126157847Y-105162181D01*
X126117454Y-105192454D01*
X126112159Y-105199519D01*
X126047728Y-105285489D01*
X126031474Y-105307176D01*
X125981149Y-105441420D01*
X125974500Y-105502623D01*
X125974501Y-105993124D01*
X125974501Y-106478455D01*
X125954817Y-106545494D01*
X125938182Y-106566136D01*
X125241137Y-107263181D01*
X125179814Y-107296666D01*
X125153457Y-107299500D01*
X124975254Y-107299501D01*
X124953482Y-107299501D01*
X124880849Y-107311004D01*
X124869331Y-107312828D01*
X124869330Y-107312828D01*
X124859696Y-107314354D01*
X124746658Y-107371950D01*
X124656950Y-107461658D01*
X124643528Y-107488000D01*
X124610485Y-107552850D01*
X124562510Y-107603646D01*
X124494689Y-107620441D01*
X124428554Y-107597903D01*
X124389515Y-107552850D01*
X124356472Y-107488000D01*
X124343050Y-107461658D01*
X124253342Y-107371950D01*
X124140304Y-107314354D01*
X124111067Y-107309723D01*
X124051339Y-107300263D01*
X124051334Y-107300263D01*
X124046519Y-107299500D01*
X124041641Y-107299500D01*
X123864870Y-107299501D01*
X123683482Y-107299501D01*
X123610849Y-107311004D01*
X123599331Y-107312828D01*
X123599330Y-107312828D01*
X123589696Y-107314354D01*
X123476658Y-107371950D01*
X123386950Y-107461658D01*
X123373528Y-107488000D01*
X123340485Y-107552850D01*
X123292510Y-107603646D01*
X123224689Y-107620441D01*
X123158554Y-107597903D01*
X123119515Y-107552850D01*
X123086472Y-107488000D01*
X123073050Y-107461658D01*
X123068549Y-107457157D01*
X123045702Y-107393127D01*
X123045500Y-107386046D01*
X123045500Y-104303852D01*
X123065185Y-104236813D01*
X123107066Y-104197775D01*
X123108912Y-104197083D01*
X123115979Y-104191787D01*
X123115982Y-104191785D01*
X123209404Y-104121769D01*
X123216472Y-104116472D01*
X123297083Y-104008912D01*
X123300186Y-104000635D01*
X123341537Y-103890332D01*
X123341538Y-103890328D01*
X123344266Y-103883051D01*
X123350500Y-103825665D01*
X123350499Y-103400466D01*
X123370183Y-103333427D01*
X123386818Y-103312785D01*
X123516576Y-103183027D01*
X123576574Y-103149838D01*
X123714681Y-103118207D01*
X123721968Y-103116538D01*
X123862625Y-103045795D01*
X123868306Y-103040943D01*
X123868309Y-103040941D01*
X123939415Y-102980210D01*
X124003177Y-102951639D01*
X124019947Y-102950500D01*
X124586081Y-102950500D01*
X124653120Y-102970185D01*
G37*
G04 #@! TD.AperFunction*
G04 #@! TA.AperFunction,Conductor*
G36*
X140184459Y-104849859D02*
G01*
X140228013Y-104889563D01*
X140253958Y-104928172D01*
X140300130Y-104970185D01*
X140364878Y-105029102D01*
X140364882Y-105029105D01*
X140370410Y-105034135D01*
X140376980Y-105037702D01*
X140376981Y-105037703D01*
X140502208Y-105105696D01*
X140508776Y-105109262D01*
X140611031Y-105136088D01*
X140653841Y-105147319D01*
X140653843Y-105147319D01*
X140661069Y-105149215D01*
X140738127Y-105150425D01*
X140811025Y-105151571D01*
X140811028Y-105151571D01*
X140818495Y-105151688D01*
X140825776Y-105150020D01*
X140825780Y-105150020D01*
X140964681Y-105118207D01*
X140971968Y-105116538D01*
X141070284Y-105067090D01*
X141139021Y-105054554D01*
X141203622Y-105081169D01*
X141243580Y-105138485D01*
X141250000Y-105177868D01*
X141250000Y-105705038D01*
X141230315Y-105772077D01*
X141177511Y-105817832D01*
X141108353Y-105827776D01*
X141044797Y-105798751D01*
X141037488Y-105791646D01*
X141037408Y-105791726D01*
X141036799Y-105791117D01*
X141035932Y-105790134D01*
X141034627Y-105788865D01*
X141034006Y-105788188D01*
X141033796Y-105787799D01*
X141033839Y-105787759D01*
X141033672Y-105787570D01*
X141030778Y-105782206D01*
X140994324Y-105748508D01*
X140990815Y-105745133D01*
X140783631Y-105537949D01*
X140771154Y-105522500D01*
X140768381Y-105519452D01*
X140762825Y-105510848D01*
X140738824Y-105491927D01*
X140734856Y-105488401D01*
X140734775Y-105488497D01*
X140730873Y-105485191D01*
X140727254Y-105481572D01*
X140712886Y-105471304D01*
X140708245Y-105467821D01*
X140671189Y-105438608D01*
X140663213Y-105435807D01*
X140656331Y-105430889D01*
X140646517Y-105427954D01*
X140646515Y-105427953D01*
X140611156Y-105417379D01*
X140605597Y-105415573D01*
X140568453Y-105402529D01*
X140568451Y-105402529D01*
X140561094Y-105399945D01*
X140555956Y-105399500D01*
X140553274Y-105399500D01*
X140551050Y-105399404D01*
X140550612Y-105399273D01*
X140550614Y-105399219D01*
X140550383Y-105399204D01*
X140544536Y-105397456D01*
X140534295Y-105397858D01*
X140534292Y-105397858D01*
X140494955Y-105399404D01*
X140490087Y-105399500D01*
X139524563Y-105399500D01*
X139504831Y-105397400D01*
X139500711Y-105397206D01*
X139490693Y-105395049D01*
X139461342Y-105398523D01*
X139460353Y-105398640D01*
X139455045Y-105398953D01*
X139455055Y-105399078D01*
X139449950Y-105399500D01*
X139444839Y-105399500D01*
X139427415Y-105402400D01*
X139421636Y-105403222D01*
X139384994Y-105407559D01*
X139384992Y-105407560D01*
X139374816Y-105408764D01*
X139367196Y-105412423D01*
X139358851Y-105413812D01*
X139349836Y-105418676D01*
X139349831Y-105418678D01*
X139317331Y-105436215D01*
X139312170Y-105438845D01*
X139269628Y-105459274D01*
X139265680Y-105462592D01*
X139263774Y-105464498D01*
X139262143Y-105465994D01*
X139261734Y-105466214D01*
X139261698Y-105466175D01*
X139261526Y-105466326D01*
X139256160Y-105469222D01*
X139238431Y-105488401D01*
X139222462Y-105505676D01*
X139219087Y-105509185D01*
X139037949Y-105690323D01*
X139022500Y-105702800D01*
X139019452Y-105705573D01*
X139010848Y-105711129D01*
X138995235Y-105730934D01*
X138991927Y-105735130D01*
X138988401Y-105739098D01*
X138988497Y-105739179D01*
X138985191Y-105743081D01*
X138981572Y-105746700D01*
X138971313Y-105761057D01*
X138967821Y-105765709D01*
X138938608Y-105802765D01*
X138935807Y-105810741D01*
X138930889Y-105817623D01*
X138927954Y-105827438D01*
X138924085Y-105840374D01*
X138910016Y-105862433D01*
X138900000Y-105897312D01*
X138900000Y-105906859D01*
X138899750Y-105912643D01*
X138899847Y-105912647D01*
X138899731Y-105915328D01*
X138899500Y-105917998D01*
X138899500Y-105920684D01*
X138899404Y-105922904D01*
X138899273Y-105923342D01*
X138899219Y-105923340D01*
X138899204Y-105923571D01*
X138897456Y-105929418D01*
X138897858Y-105939659D01*
X138897858Y-105939662D01*
X138899404Y-105978999D01*
X138899500Y-105983867D01*
X138899500Y-105993124D01*
X138887882Y-106045529D01*
X138862382Y-106100213D01*
X138816209Y-106152652D01*
X138749015Y-106171804D01*
X138682134Y-106151588D01*
X138637618Y-106100214D01*
X138622433Y-106067650D01*
X138611617Y-106044455D01*
X138600000Y-105992052D01*
X138600000Y-105897690D01*
X138596020Y-105884135D01*
X138588596Y-105883023D01*
X138580987Y-105885240D01*
X138552995Y-105898293D01*
X138483918Y-105908785D01*
X138448187Y-105898293D01*
X138419144Y-105884750D01*
X138419139Y-105884749D01*
X138410545Y-105880741D01*
X138396526Y-105878895D01*
X138367159Y-105875029D01*
X138367155Y-105875029D01*
X138363139Y-105874500D01*
X138350955Y-105874500D01*
X138208095Y-105874501D01*
X138141056Y-105854817D01*
X138095301Y-105802013D01*
X138085357Y-105732855D01*
X138114382Y-105669299D01*
X138120414Y-105662820D01*
X138862053Y-104921181D01*
X138923376Y-104887696D01*
X138993068Y-104892680D01*
X138994297Y-104893242D01*
X138994676Y-104893526D01*
X139128920Y-104943851D01*
X139190123Y-104950500D01*
X139499953Y-104950500D01*
X139809876Y-104950499D01*
X139871080Y-104943851D01*
X140005324Y-104893526D01*
X140012390Y-104888230D01*
X140012396Y-104888227D01*
X140050727Y-104859499D01*
X140116178Y-104835045D01*
X140184459Y-104849859D01*
G37*
G04 #@! TD.AperFunction*
G04 #@! TA.AperFunction,NonConductor*
G36*
X122910623Y-123568847D02*
G01*
X122950580Y-123626163D01*
X122957000Y-123665546D01*
X122957000Y-123710590D01*
X122957660Y-123715072D01*
X122966348Y-123774088D01*
X122967865Y-123784396D01*
X122972113Y-123793048D01*
X123018441Y-123887409D01*
X123018443Y-123887411D01*
X123022959Y-123896610D01*
X123111431Y-123984927D01*
X123223741Y-124039826D01*
X123265279Y-124045886D01*
X123292459Y-124049851D01*
X123292463Y-124049851D01*
X123296910Y-124050500D01*
X123618090Y-124050500D01*
X123691896Y-124039635D01*
X123700545Y-124035389D01*
X123700550Y-124035387D01*
X123727893Y-124021962D01*
X123796746Y-124010085D01*
X123836998Y-124021866D01*
X123865093Y-124035599D01*
X123865095Y-124035600D01*
X123873741Y-124039826D01*
X123915279Y-124045886D01*
X123942459Y-124049851D01*
X123942463Y-124049851D01*
X123946910Y-124050500D01*
X124154456Y-124050500D01*
X124221495Y-124070185D01*
X124267250Y-124122989D01*
X124277194Y-124192147D01*
X124248169Y-124255703D01*
X124242137Y-124262181D01*
X123041137Y-125463181D01*
X122979814Y-125496666D01*
X122953456Y-125499500D01*
X121725326Y-125499500D01*
X121719350Y-125500689D01*
X121719347Y-125500689D01*
X121700672Y-125504404D01*
X121652260Y-125514034D01*
X121569399Y-125569399D01*
X121566985Y-125565787D01*
X121526358Y-125587971D01*
X121456666Y-125582987D01*
X121432080Y-125567186D01*
X121430601Y-125569399D01*
X121420988Y-125562976D01*
X121347740Y-125514034D01*
X121299328Y-125504404D01*
X121280653Y-125500689D01*
X121280650Y-125500689D01*
X121274674Y-125499500D01*
X120974500Y-125499500D01*
X120907461Y-125479815D01*
X120861706Y-125427011D01*
X120850500Y-125375500D01*
X120850500Y-125129044D01*
X120870185Y-125062005D01*
X120886819Y-125041363D01*
X122244022Y-123684160D01*
X122305345Y-123650675D01*
X122343463Y-123649187D01*
X122343569Y-123649215D01*
X122428215Y-123650545D01*
X122493525Y-123651571D01*
X122493528Y-123651571D01*
X122500995Y-123651688D01*
X122508276Y-123650020D01*
X122508280Y-123650020D01*
X122647181Y-123618207D01*
X122654468Y-123616538D01*
X122710922Y-123588145D01*
X122777285Y-123554768D01*
X122846021Y-123542232D01*
X122910623Y-123568847D01*
G37*
G04 #@! TD.AperFunction*
M02*
