M48
; DRILL file {KiCad (6.0.7)} date Sat Nov 19 14:13:45 2022
; FORMAT={-:-/ absolute / metric / decimal}
; #@! TF.CreationDate,2022-11-19T14:13:45-06:00
; #@! TF.GenerationSoftware,Kicad,Pcbnew,(6.0.7)
; #@! TF.FileFunction,Plated,1,2,PTH
FMAT,2
METRIC
; #@! TA.AperFunction,Plated,PTH,ViaDrill
T1C0.400
; #@! TA.AperFunction,Plated,PTH,ComponentDrill
T2C0.850
; #@! TA.AperFunction,Plated,PTH,ComponentDrill
T3C1.000
; #@! TA.AperFunction,Plated,PTH,ComponentDrill
T4C1.020
%
G90
G05
T1
X116.0Y-99.0
X116.0Y-100.5
X116.0Y-120.0
X116.0Y-121.5
X116.0Y-123.0
X116.0Y-124.5
X116.0Y-126.0
X116.5Y-97.5
X116.5Y-127.5
X118.0Y-96.5
X118.0Y-128.5
X118.5Y-102.5
X119.5Y-96.0
X119.5Y-124.0
X119.5Y-129.0
X121.0Y-96.0
X121.0Y-111.5
X121.0Y-129.0
X122.432Y-123.0
X122.5Y-96.0
X122.5Y-129.0
X122.6Y-111.0
X123.5Y-102.5
X124.0Y-96.0
X124.0Y-129.0
X124.5Y-104.5
X124.5Y-106.0
X125.5Y-129.0
X126.5Y-111.5
X126.5Y-123.0
X127.5Y-98.25
X127.5Y-99.75
X128.65Y-119.0
X131.0Y-103.5
X132.5Y-108.75
X133.0Y-111.0
X133.5Y-113.5
X133.5Y-115.0
X133.5Y-116.5
X133.5Y-118.0
X133.5Y-119.5
X133.5Y-121.0
X133.5Y-122.5
X134.5Y-101.0
X135.0Y-109.5
X135.075Y-105.0
X135.5Y-108.25
X136.0Y-106.5
X136.0Y-111.0
X138.0Y-101.0
X138.25Y-109.0
X139.45Y-109.0
X140.75Y-104.5
X140.75Y-108.0
X149.0Y-120.75
X150.25Y-120.75
T2
X143.69Y-103.5
X146.23Y-103.5
X148.77Y-103.5
X151.31Y-103.5
T3
X117.525Y-107.42
X117.525Y-109.96
X117.525Y-112.5
X117.525Y-115.04
X117.525Y-117.58
X129.25Y-112.5
X131.2Y-97.5
X133.74Y-97.5
X136.28Y-97.5
X138.82Y-97.5
X152.5Y-107.425
X152.5Y-109.965
X152.5Y-112.505
X152.5Y-115.045
X152.5Y-117.585
T4
X130.5Y-125.915
X133.5Y-125.915
X136.5Y-125.915
X139.5Y-125.915
T0
M30
